<svg width="64" height="55" viewBox="0 0 64 55" fill="none" xmlns="http://www.w3.org/2000/svg">
<path fill-rule="evenodd" clip-rule="evenodd" d="M19.2036 2.84647e-08C18.9223 -4.60196e-05 18.6438 0.0568294 18.384 0.167374C18.1241 0.277918 17.888 0.439966 17.6891 0.644264C17.4903 0.848562 17.3325 1.09111 17.2249 1.35805C17.1173 1.62498 17.062 1.91108 17.062 2.2V52.8C17.062 53.3835 17.2876 53.9431 17.6892 54.3556C18.0909 54.7682 18.6356 55 19.2036 55C19.7715 55 20.3162 54.7682 20.7179 54.3556C21.1195 53.9431 21.3451 53.3835 21.3451 52.8V2.2C21.3451 1.91108 21.2898 1.62498 21.1822 1.35804C21.0746 1.0911 20.9168 0.848562 20.718 0.644264C20.5191 0.439966 20.283 0.277915 20.0231 0.167371C19.7633 0.0568273 19.4848 -4.64503e-05 19.2036 2.84647e-08ZM9.85298 10.0888C10.1128 9.97881 10.3913 9.9222 10.6726 9.92225C10.9538 9.9222 11.2323 9.97881 11.4922 10.0888C11.752 10.1989 11.9881 10.3602 12.187 10.5635C12.3859 10.7668 12.5436 11.0082 12.6512 11.2739C12.7588 11.5396 12.8142 11.8244 12.8141 12.1119V42.8894C12.8141 43.4702 12.5885 44.0271 12.1869 44.4378C11.7853 44.8484 11.2405 45.0791 10.6726 45.0791C10.1046 45.0791 9.55989 44.8484 9.15827 44.4378C8.75665 44.0271 8.53102 43.4702 8.53102 42.8894V12.1119C8.53098 11.8244 8.58634 11.5396 8.69394 11.2739C8.80155 11.0082 8.9593 10.7668 9.15817 10.5635C9.35704 10.3602 9.59314 10.1989 9.85298 10.0888ZM1.32196 18.4997C1.58181 18.3899 1.86031 18.3334 2.14155 18.3335C2.4228 18.3334 2.7013 18.3899 2.96114 18.4997C3.22099 18.6096 3.45709 18.7705 3.65596 18.9735C3.85483 19.1764 4.01258 19.4173 4.12018 19.6825C4.22779 19.9477 4.28315 20.2319 4.28311 20.5189V34.4814C4.28311 34.7684 4.22772 35.0526 4.12009 35.3177C4.01247 35.5829 3.85472 35.8238 3.65586 36.0267C3.457 36.2297 3.22092 36.3906 2.96109 36.5005C2.70127 36.6103 2.42279 36.6668 2.14155 36.6668C1.86032 36.6668 1.58184 36.6103 1.32202 36.5005C1.06219 36.3906 0.826109 36.2297 0.627248 36.0267C0.428386 35.8238 0.270641 35.5829 0.163018 35.3177C0.0553944 35.0526 1.53865e-08 34.7684 2.72395e-08 34.4814V20.5189C-4.48319e-05 20.2319 0.0553177 19.9477 0.162925 19.6825C0.270532 19.4174 0.428277 19.1764 0.627148 18.9735C0.826019 18.7705 1.06212 18.6096 1.32196 18.4997ZM26.9149 10.0888C27.1747 9.97881 27.4532 9.9222 27.7344 9.92225C28.0157 9.9222 28.2942 9.97881 28.554 10.0888C28.8139 10.1989 29.05 10.3602 29.2489 10.5635C29.4477 10.7668 29.6055 11.0082 29.7131 11.2739C29.8207 11.5396 29.876 11.8244 29.876 12.1119V42.8894C29.876 43.4702 29.6504 44.0271 29.2488 44.4378C28.8471 44.8484 28.3024 45.0791 27.7344 45.0791C27.1665 45.0791 26.6218 44.8484 26.2201 44.4378C25.8185 44.0271 25.5929 43.4702 25.5929 42.8894V12.1119C25.5928 11.8244 25.6482 11.5396 25.7558 11.2739C25.8634 11.0082 26.0212 10.7668 26.22 10.5635C26.4189 10.3601 26.655 10.1989 26.9149 10.0888ZM36.2655 18.3335C35.9842 18.3334 35.7057 18.3899 35.4459 18.4997C35.186 18.6096 34.9499 18.7705 34.7511 18.9735C34.5522 19.1764 34.3945 19.4174 34.2868 19.6825C34.1792 19.9477 34.1239 20.2319 34.1239 20.5189V34.4814C34.1239 35.061 34.3495 35.6169 34.7512 36.0267C35.1528 36.4366 35.6975 36.6668 36.2655 36.6668C36.8335 36.6668 37.3782 36.4366 37.7798 36.0267C38.1814 35.6169 38.407 35.061 38.407 34.4814V20.5189C38.4071 20.2319 38.3517 19.9477 38.2441 19.6825C38.1365 19.4173 37.9788 19.1764 37.7799 18.9735C37.581 18.7705 37.3449 18.6096 37.0851 18.4997C36.8252 18.3899 36.5467 18.3334 36.2655 18.3335ZM43.9768 10.0888C44.2367 9.97881 44.5152 9.9222 44.7964 9.92225C45.0777 9.9222 45.3562 9.97881 45.616 10.0888C45.8759 10.1989 46.112 10.3602 46.3108 10.5635C46.5097 10.7668 46.6675 11.0082 46.7751 11.2739C46.8827 11.5396 46.938 11.8244 46.938 12.1119V42.8894C46.938 43.4702 46.7124 44.0271 46.3108 44.4378C45.9091 44.8484 45.3644 45.0791 44.7964 45.0791C44.2285 45.0791 43.6838 44.8484 43.2821 44.4378C42.8805 44.0271 42.6549 43.4702 42.6549 42.8894V12.1119C42.6548 11.8244 42.7102 11.5396 42.8178 11.2739C42.9254 11.0082 43.0832 10.7668 43.282 10.5635C43.4809 10.3601 43.717 10.1989 43.9768 10.0888ZM53.3275 18.3335C53.0462 18.3334 52.7677 18.3899 52.5079 18.4997C52.2481 18.6096 52.012 18.7705 51.8131 18.9735C51.6142 19.1764 51.4565 19.4174 51.3489 19.6825C51.2413 19.9477 51.1859 20.2319 51.1859 20.5189V34.4814C51.1859 35.061 51.4116 35.6169 51.8132 36.0267C52.2148 36.4366 52.7595 36.6668 53.3275 36.6668C53.8955 36.6668 54.4402 36.4366 54.8418 36.0267C55.2434 35.6169 55.469 35.061 55.469 34.4814V20.5189C55.4691 20.2319 55.4137 19.9477 55.3061 19.6825C55.1985 19.4173 55.0408 19.1764 54.8419 18.9735C54.643 18.7705 54.4069 18.6096 54.1471 18.4997C53.8872 18.3899 53.6087 18.3334 53.3275 18.3335ZM61.8584 25.2357C60.6757 25.2357 59.7169 26.2099 59.7169 27.3926C59.7169 28.5754 60.6757 29.5495 61.8584 29.5495C63.0412 29.5495 64 28.5754 64 27.3926C64 26.2099 63.0412 25.2357 61.8584 25.2357Z" fill="#FCFCFC"/>
</svg>
