<svg width="70" height="69" viewBox="0 0 70 69" fill="none" xmlns="http://www.w3.org/2000/svg">
<path d="M3.375 51.75V60.375H12C12 55.6025 8.1475 51.75 3.375 51.75ZM3.375 40.25V46C11.31 46 17.75 52.44 17.75 60.375H23.5C23.5 49.2487 14.5012 40.25 3.375 40.25ZM55.125 20.125H14.875V24.8113C26.26 28.4913 35.2587 37.49 38.9388 48.875H55.125V20.125ZM3.375 28.75V34.5C17.6637 34.5 29.25 46.0863 29.25 60.375H35C35 42.895 20.8263 28.75 3.375 28.75ZM60.875 8.625H9.125C5.9625 8.625 3.375 11.2125 3.375 14.375V23H9.125V14.375H60.875V54.625H40.75V60.375H60.875C64.0375 60.375 66.625 57.7875 66.625 54.625V14.375C66.625 11.2125 64.0375 8.625 60.875 8.625Z" fill="#E8F6FB"/>
</svg>
