<svg width="50" height="50" viewBox="0 0 50 50" fill="none" xmlns="http://www.w3.org/2000/svg">
<path d="M25 43H8.97436C7.5641 43 6.41026 42.5312 5.51282 41.4375C5.12821 40.9687 5 40.3437 5 39.7187V10.0312C5 8.3125 6.53846 6.90625 8.33333 6.75H11.6667C12.1795 6.75 12.4359 6.59375 12.4359 6.125V4.875C12.6923 3.625 13.4615 3 14.7436 3C15.7692 3 16.5385 3.78125 16.6667 5.03125V5.1875C16.7949 6.90625 16.7949 6.90625 18.4615 6.90625H32.4359C33.0769 6.90625 33.3333 6.75 33.3333 6.125V5.03125C33.4615 3.78125 34.359 3.15625 35.5128 3.15625C36.6667 3.15625 37.4359 3.9375 37.5641 5.03125C37.5641 5.65625 37.3077 6.4375 37.6923 6.75C38.2051 7.0625 38.9744 6.90625 39.6154 6.90625H41.5385C43.4615 7.0625 45 8.46875 45 10.3438V39.7187C45 41.75 43.3333 43.1562 41.0256 43.3125C35.8974 43 30.3846 43 25 43ZM25.1282 16.2812H9.10256C8.46154 16.2812 8.20513 16.4375 8.20513 17.0625V38.625C8.20513 39.5625 8.58974 39.7187 9.35897 39.7187H40.8974C42.0513 39.7187 42.0513 39.7188 42.0513 38.625V17.2187C42.0513 16.4375 41.9231 16.2812 41.1538 16.2812H25.1282Z" fill="#4FA6FF"/>
<path d="M15.3564 34.837H13.3674C12.4972 34.837 12.1243 34.3478 12 33.5326V30.7609C12 29.9457 12.4972 29.4565 13.2431 29.4565H17.4697C18.3399 29.4565 18.7128 29.9457 18.7128 30.9239V33.5326C18.7128 34.3478 18.3399 34.837 17.4697 34.837H15.3564ZM25.0526 34.837H23.0637C22.1935 34.837 21.6962 34.3478 21.6962 33.5326V30.9239C21.6962 29.9457 22.0692 29.6196 22.9394 29.4565H27.0416C27.7875 29.4565 28.2847 29.9457 28.2847 30.7609V33.5326C28.2847 34.3478 27.7875 34.837 27.0416 34.837H25.0526ZM34.7489 29.4565H36.8622C37.608 29.4565 38.1053 29.9457 37.981 30.7609V33.6957C37.981 34.5109 37.4837 35 36.7379 35H32.5113C31.7654 35 31.2682 34.5109 31.2682 33.6957V30.9239C31.2682 30.1087 31.7654 29.6196 32.5113 29.6196C33.2572 29.2935 34.003 29.4565 34.7489 29.4565ZM25.0526 25.5435H22.9394C22.0692 25.5435 21.6962 25.2174 21.6962 24.2391V21.3043C21.6962 20.4891 22.0692 20.163 22.815 20.163H27.1659C27.9118 20.163 28.2847 20.6522 28.409 21.4674V24.2391C28.409 25.0543 28.0361 25.5435 27.1659 25.5435H25.0526ZM15.3564 20.163H17.4697C18.2155 20.163 18.7128 20.6522 18.7128 21.3043V24.2391C18.7128 25.0543 18.3399 25.3804 17.594 25.3804H13.2431C12.4972 25.3804 12.1243 25.0543 12.1243 24.2391V21.1413C12.1243 20.3261 12.6216 20 13.3674 20C13.989 20.163 14.6105 20.163 15.3564 20.163ZM34.6246 25.5435H32.5113C31.7654 25.5435 31.2682 25.0543 31.2682 24.2391V21.3043C31.2682 20.4891 31.6411 20.163 32.387 20.163H36.7379C37.4837 20.163 37.8567 20.6522 37.8567 21.3043V24.2391C37.8567 24.8913 37.4837 25.3804 36.7379 25.3804C36.1163 25.5435 35.3704 25.5435 34.6246 25.5435Z" fill="#4FA6FF"/>
</svg>
