<svg width="104" height="104" viewBox="0 0 104 104" fill="none" xmlns="http://www.w3.org/2000/svg">
<g style="mix-blend-mode:multiply">
<rect width="104" height="104" fill="white"/>
<path d="M7.99171 26.7617C7.99171 33.6504 13.5761 39.2349 20.4649 39.2349C27.3536 39.2349 32.938 33.6504 32.938 26.7617C32.938 19.873 27.3536 14.2886 20.4649 14.2886C13.5761 14.2886 7.99172 19.873 7.99171 26.7617Z" fill="#E4EBF7"/>
<path d="M81.415 48.4453C81.415 51.2148 83.6601 53.46 86.4297 53.46C89.1992 53.46 91.4443 51.2148 91.4443 48.4453C91.4443 45.6758 89.1992 43.4307 86.4297 43.4307C83.6601 43.4307 81.415 45.6758 81.415 48.4453Z" fill="#E4EBF7"/>
<path d="M89.0513 65.1523C89.0513 66.5371 90.1739 67.6597 91.5586 67.6597C92.9434 67.6597 94.066 66.5371 94.066 65.1523C94.066 63.7676 92.9434 62.645 91.5586 62.645C90.1739 62.645 89.0513 63.7676 89.0513 65.1523Z" fill="#FF7946"/>
<path d="M16.7388 45.6523C16.7388 47.0371 17.8613 48.1597 19.2461 48.1597C20.6309 48.1597 21.7534 47.0371 21.7534 45.6523C21.7534 44.2676 20.6309 43.145 19.2461 43.145C17.8613 43.145 16.7388 44.2676 16.7388 45.6523Z" fill="#FAAD14"/>
<path fill-rule="evenodd" clip-rule="evenodd" d="M81.5947 55.2584C81.5947 72.566 67.5637 86.596 50.2571 86.596C32.9496 86.596 18.9191 72.566 18.9191 55.2584C18.9191 37.9508 32.9496 23.9208 50.2571 23.9208C67.5637 23.9208 81.5947 37.9508 81.5947 55.2584Z" fill="#ADC6FF"/>
<mask id="mask0" mask-type="alpha" maskUnits="userSpaceOnUse" x="18" y="23" width="64" height="64">
<path d="M50.2573 23.9209C32.9492 23.9209 18.9192 37.9509 18.9192 55.258C18.9192 72.566 32.9492 86.5961 50.2573 86.5961C67.5643 86.5961 81.5949 72.566 81.5949 55.258C81.5949 37.9509 67.5643 23.9209 50.2573 23.9209Z" fill="white"/>
</mask>
<g mask="url(#mask0)">
<path fill-rule="evenodd" clip-rule="evenodd" d="M66.8795 52.951V90.6595C66.8795 91.2125 66.1615 91.4925 65.7665 91.1055L63.4657 88.4355L61.0424 90.8583C60.5595 91.3412 59.778 91.3462 59.2891 90.8694L56.7885 88.4355L54.4151 90.8402C53.9307 91.3306 53.1401 91.3356 52.6497 90.8507L50.2046 88.4355L47.7374 90.8659C47.251 91.3442 46.4705 91.3442 45.9851 90.8649L43.5219 88.4355L41.0657 90.8583C40.5773 91.3402 39.7917 91.3371 39.3069 90.8523L36.8891 88.4355L34.6468 91.1368C34.2533 91.5284 33.6342 91.2498 33.6342 90.6943V52.951H66.8795Z" fill="#E4EBF7"/>
<path fill-rule="evenodd" clip-rule="evenodd" d="M33.5822 52.8332H66.9314V50.8741C66.9314 50.1848 66.3724 49.6263 65.6832 49.6263H34.8305C34.1408 49.6263 33.5822 50.1848 33.5822 50.8741V52.8332Z" fill="#597EF7"/>
<path fill-rule="evenodd" clip-rule="evenodd" d="M59.7418 62.9853C59.9714 62.9853 60.1576 62.7991 60.1576 62.5696V60.0731C60.1576 59.843 59.9714 59.6568 59.7418 59.6568H57.2458C57.0157 59.6568 56.8295 59.843 56.8295 60.0731V62.5696C56.8295 62.7991 57.0157 62.9853 57.2458 62.9853H59.7418Z" fill="#FAAD14"/>
<path fill-rule="evenodd" clip-rule="evenodd" d="M37.1609 67.9367H63.1326C63.2996 67.9367 63.4343 67.8015 63.4343 67.6345V66.5749C63.4343 66.4079 63.2996 66.2727 63.1326 66.2727H37.1609C36.9944 66.2727 36.8586 66.4079 36.8586 66.5749V67.6345C36.8586 67.8015 36.9944 67.9367 37.1609 67.9367Z" fill="#A3B5D6"/>
<path fill-rule="evenodd" clip-rule="evenodd" d="M37.1609 72.8881H63.1326C63.2996 72.8881 63.4343 72.7528 63.4343 72.5858V71.5263C63.4343 71.3593 63.2996 71.2241 63.1326 71.2241H37.1609C36.9944 71.2241 36.8586 71.3593 36.8586 71.5263V72.5858C36.8586 72.7528 36.9944 72.8881 37.1609 72.8881Z" fill="#FF7946"/>
<path fill-rule="evenodd" clip-rule="evenodd" d="M37.1609 77.8395H63.1326C63.2996 77.8395 63.4343 77.7042 63.4343 77.5372V76.4777C63.4343 76.3107 63.2996 76.1754 63.1326 76.1754H37.1609C36.9944 76.1754 36.8586 76.3107 36.8586 76.4777V77.5372C36.8586 77.7042 36.9944 77.8395 37.1609 77.8395Z" fill="#FAAD14"/>
<path fill-rule="evenodd" clip-rule="evenodd" d="M33.6677 56.3518H48.0974V45.8678H33.6677V56.3518Z" fill="#253368"/>
<path fill-rule="evenodd" clip-rule="evenodd" d="M33.6677 61.5331H48.0974V58.0859H33.6677V61.5331Z" fill="#253368"/>
<path fill-rule="evenodd" clip-rule="evenodd" d="M53.5514 47.7675H28.2139L40.8831 35.0987L53.5514 47.7675Z" fill="#253368"/>
</g>
<path fill-rule="evenodd" clip-rule="evenodd" d="M75.3086 24.3702C68.6591 24.3702 63.2687 29.7607 63.2687 36.4102C63.2687 43.0596 68.6591 48.4501 75.3086 48.4501C81.9581 48.4501 87.3485 43.0596 87.3485 36.4102C87.3485 29.7607 81.9581 24.3702 75.3086 24.3702Z" fill="url(#paint0_linear)"/>
<path fill-rule="evenodd" clip-rule="evenodd" d="M73.3686 40.5L72.6084 39.7399L79.9743 32.3472C80.2262 32.0953 80.6346 32.0953 80.8865 32.3472L81.1905 32.6512C81.4424 32.9031 81.4424 33.3115 81.1905 33.5634L74.2807 40.5C74.0288 40.7519 73.6205 40.7519 73.3686 40.5Z" fill="white"/>
<path fill-rule="evenodd" clip-rule="evenodd" d="M75.0395 39.7399L74.2793 40.5C74.0275 40.7519 73.6191 40.7519 73.3672 40.5L70.3404 37.4732C70.0885 37.2214 70.0885 36.813 70.3404 36.5611L70.6444 36.257C70.8963 36.0051 71.3047 36.0051 71.5566 36.257L75.0395 39.7399Z" fill="white"/>
</g>
<defs>
<linearGradient id="paint0_linear" x1="86.3896" y1="25.1729" x2="63.276" y2="49.5005" gradientUnits="userSpaceOnUse">
<stop stop-color="#4FA6FF"/>
<stop offset="0.0001" stop-color="#3EDCEB"/>
<stop offset="0.0002" stop-color="#2594FF"/>
<stop offset="1" stop-color="#5533FF"/>
</linearGradient>
</defs>
</svg>
