<svg width="25" height="24" viewBox="0 0 25 24" fill="none" xmlns="http://www.w3.org/2000/svg">
<g clip-path="url(#clip0)">
<path d="M7.5 24H9.5V22H7.5V24ZM12.5 13C14.16 13 15.49 11.66 15.49 10L15.5 4C15.5 2.34 14.16 1 12.5 1C10.84 1 9.5 2.34 9.5 4V10C9.5 11.66 10.84 13 12.5 13ZM11.5 24H13.5V22H11.5V24ZM15.5 24H17.5V22H15.5V24ZM19.5 10H17.8C17.8 13 15.26 15.1 12.5 15.1C9.74 15.1 7.2 13 7.2 10H5.5C5.5 13.41 8.22 16.23 11.5 16.72V20H13.5V16.72C16.78 16.23 19.5 13.41 19.5 10Z" fill="#0B6BCC"/>
</g>
<defs>
<clipPath id="clip0">
<rect width="24" height="24" fill="white" transform="translate(0.5)"/>
</clipPath>
</defs>
</svg>
