<svg width="197" height="63" viewBox="0 0 197 63" fill="none" xmlns="http://www.w3.org/2000/svg">
<rect x="14.3647" y="6.82758" width="3.07812" height="19.3448" rx="1.53906" fill="#4FA6FF"/>
<rect x="21.5469" width="3.07812" height="33" rx="1.53906" fill="#4FA6FF"/>
<rect x="28.7292" y="4.55176" width="3.07812" height="23.8965" rx="1.53906" fill="#4FA6FF"/>
<rect x="35.9114" y="12.5172" width="3.07812" height="7.96552" rx="1.53906" fill="#4FA6FF"/>
<rect x="43.094" y="10.2414" width="3.07812" height="12.5172" rx="1.53906" fill="#4FA6FF"/>
<rect x="50.2761" y="6.82758" width="3.07812" height="19.3448" rx="1.53906" fill="#4FA6FF"/>
<rect x="57.4583" y="1.13794" width="3.07812" height="30.7241" rx="1.53906" fill="#4FA6FF"/>
<rect x="64.6404" y="11.3793" width="3.07812" height="10.2414" rx="1.53906" fill="#4FA6FF"/>
<rect x="71.823" y="7.96552" width="3.07812" height="17.069" rx="1.53906" fill="#4FA6FF"/>
<rect x="79.0051" y="7.43652" width="3.07812" height="18.3477" rx="1.53906" fill="#4FA6FF"/>
<rect x="86.1875" y="10.6725" width="3.07812" height="11.8721" rx="1.53906" fill="#4FA6FF"/>
<rect x="93.3696" y="2.27142" width="3.07812" height="28.4483" rx="1.53906" fill="#4FA6FF"/>
<rect x="100.552" y="6.82312" width="3.07812" height="19.3448" rx="1.53906" fill="#4FA6FF"/>
<rect x="107.734" y="11.3749" width="3.07812" height="10.2414" rx="1.53906" fill="#DDE1F0"/>
<rect x="114.917" y="4.5473" width="3.07812" height="23.8965" rx="1.53906" fill="#DDE1F0"/>
<rect x="122.099" y="6.82312" width="3.07812" height="19.3448" rx="1.53906" fill="#DDE1F0"/>
<rect x="129.281" y="10.2369" width="3.07812" height="12.5172" rx="1.53906" fill="#DDE1F0"/>
<rect x="136.464" y="12.5128" width="3.07812" height="7.96552" rx="1.53906" fill="#DDE1F0"/>
<rect x="143.646" y="4.5473" width="3.07812" height="23.8965" rx="1.53906" fill="#DDE1F0"/>
<rect x="150.828" y="7.96106" width="3.07812" height="17.069" rx="1.53906" fill="#DDE1F0"/>
<rect x="158.01" y="2.27142" width="3.07812" height="28.4483" rx="1.53906" fill="#DDE1F0"/>
<rect x="165.193" y="9.099" width="3.07812" height="14.7931" rx="1.53906" fill="#DDE1F0"/>
<rect x="172.375" y="3.40936" width="3.07812" height="26.1724" rx="1.53906" fill="#DDE1F0"/>
<rect x="179.557" y="9.099" width="3.07812" height="14.7931" rx="1.53906" fill="#DDE1F0"/>
<rect x="186.74" y="4.5473" width="3.07812" height="23.8965" rx="1.53906" fill="#DDE1F0"/>
<rect x="193.922" y="10.2369" width="3.07812" height="12.5172" rx="1.53906" fill="#DDE1F0"/>
<rect x="7.18237" y="7.43652" width="3.07812" height="17.2685" rx="1.53906" fill="#4FA6FF"/>
<rect y="12.8328" width="3.07812" height="7.55495" rx="1.53906" fill="#4FA6FF"/>
<path d="M64.596 55.908C66.132 56.532 67.632 57.336 69.108 58.332L69.804 57.24C68.436 56.388 66.924 55.644 65.28 54.996L65.388 54.804H69.624V53.628H65.892C66.108 52.932 66.24 52.14 66.288 51.264V49.776H65.076V51.264C65.028 52.14 64.86 52.932 64.572 53.628H59.388V54.804H63.912C63.864 54.852 63.828 54.912 63.78 54.972C63.012 55.86 61.5 56.604 59.268 57.204L59.952 58.26C62.064 57.708 63.612 56.928 64.596 55.908ZM61.152 51.36L60.528 52.284C61.32 52.596 62.076 53.028 62.82 53.58L63.468 52.584C62.772 52.104 61.992 51.696 61.152 51.36ZM62.376 49.692L61.752 50.616C62.52 50.916 63.264 51.336 63.996 51.888L64.644 50.892C63.948 50.412 63.192 50.016 62.376 49.692ZM69.564 48.144H65.172C65.052 47.76 64.932 47.4 64.8 47.076L63.516 47.292C63.648 47.556 63.768 47.832 63.888 48.144H59.412V50.676H60.636V49.296H68.34V50.676H69.564V48.144ZM75.798 47.94H72.066V57.276H73.29V56.268H74.598V56.988H75.798V47.94ZM73.29 55.104V52.62H74.598V55.104H73.29ZM73.29 51.456V49.08H74.598V51.456H73.29ZM77.634 51.576L76.602 52.224C77.298 53.328 77.85 54.336 78.258 55.224L79.302 54.504C78.918 53.676 78.354 52.704 77.634 51.576ZM80.214 58.128C81.03 58.128 81.45 57.708 81.45 56.868V50.424H82.746V49.212H81.45V47.244H80.178V49.212H76.242V50.424H80.178V56.556C80.178 56.844 80.034 56.988 79.77 56.988C79.146 56.988 78.486 56.964 77.79 56.916L78.066 58.128H80.214ZM86.712 50.496V52.128H85.848C86.124 51.444 86.388 50.664 86.64 49.788H89.076V48.588H86.952C87.048 48.18 87.132 47.76 87.228 47.328L86.04 47.148C85.944 47.652 85.836 48.132 85.74 48.588H84.42V49.788H85.44C85.176 50.736 84.888 51.528 84.576 52.152L84.84 53.256H86.712V54.72C85.992 54.84 85.236 54.936 84.432 55.032L84.6 56.256C85.332 56.16 86.04 56.064 86.712 55.944V58.236H87.924V55.704C88.428 55.596 88.92 55.476 89.4 55.356V54.18C88.932 54.3 88.44 54.408 87.924 54.504V53.256H89.136V52.128H87.924V50.496H86.712ZM89.508 48.588V49.788H91.056C90.984 50.124 90.9 50.472 90.828 50.808H89.172V51.996H90.528C90.312 52.788 90.096 53.556 89.856 54.288H93.828C93.468 54.816 93 55.332 92.412 55.86C91.884 55.572 91.344 55.308 90.792 55.068L90.12 56.064C91.416 56.616 92.664 57.372 93.888 58.32L94.596 57.24C94.224 56.964 93.828 56.7 93.42 56.448C94.188 55.692 94.752 54.948 95.112 54.216V53.184H91.416C91.536 52.812 91.656 52.416 91.776 51.996H95.592V50.808H92.076C92.148 50.484 92.232 50.148 92.316 49.788H95.28V48.588H92.556C92.628 48.156 92.7 47.724 92.784 47.268L91.548 47.148L91.296 48.588H89.508ZM101.55 47.532V48.636H102.27C102.558 49.404 102.99 50.052 103.578 50.58C102.786 50.904 101.838 51.168 100.746 51.384L101.334 52.428C102.654 52.152 103.77 51.792 104.682 51.348C105.546 51.828 106.626 52.14 107.946 52.296L108.39 51.204C107.418 51.108 106.578 50.916 105.858 50.652C106.65 50.064 107.178 49.368 107.454 48.564V47.532H101.55ZM103.494 48.636H106.146C105.822 49.164 105.33 49.62 104.682 50.028C104.154 49.644 103.758 49.188 103.494 48.636ZM101.898 52.98V54.108H104.022V55.14H101.382V56.316H104.022V58.296H105.27V56.316H108.138V55.14H105.27V54.108H107.55V52.98H105.27V52.032H104.022V52.98H101.898ZM98.886 47.22L97.998 48.084C98.85 48.708 99.51 49.296 99.966 49.848L100.83 48.972C100.29 48.396 99.642 47.808 98.886 47.22ZM97.206 50.688V51.888H98.802V56.1C98.802 56.376 98.682 56.604 98.466 56.796L98.946 57.924C99.75 57.312 100.518 56.616 101.238 55.848L100.902 54.516C100.59 54.852 100.302 55.176 100.014 55.476V50.688H97.206ZM114.852 47.088V49.14H110.604V54.996H111.864V54.336H114.852V58.344H116.148V54.336H119.148V54.996H120.408V49.14H116.148V47.088H114.852ZM111.864 53.112V50.364H114.852V53.112H111.864ZM116.148 53.112V50.364H119.148V53.112H116.148ZM123.894 55.188C123.63 55.188 123.402 55.272 123.234 55.464C123.042 55.644 122.958 55.872 122.958 56.136C122.958 56.4 123.042 56.616 123.234 56.808C123.402 56.976 123.63 57.072 123.894 57.072C124.158 57.072 124.374 56.976 124.566 56.808C124.746 56.616 124.842 56.4 124.842 56.136C124.842 55.872 124.746 55.644 124.566 55.464C124.374 55.272 124.158 55.188 123.894 55.188ZM127.949 55.188C127.685 55.188 127.457 55.272 127.289 55.464C127.097 55.644 127.013 55.872 127.013 56.136C127.013 56.4 127.097 56.616 127.289 56.808C127.457 56.976 127.685 57.072 127.949 57.072C128.213 57.072 128.429 56.976 128.621 56.808C128.801 56.616 128.897 56.4 128.897 56.136C128.897 55.872 128.801 55.644 128.621 55.464C128.429 55.272 128.213 55.188 127.949 55.188ZM132.003 55.188C131.739 55.188 131.511 55.272 131.343 55.464C131.151 55.644 131.067 55.872 131.067 56.136C131.067 56.4 131.151 56.616 131.343 56.808C131.511 56.976 131.739 57.072 132.003 57.072C132.267 57.072 132.483 56.976 132.675 56.808C132.855 56.616 132.951 56.4 132.951 56.136C132.951 55.872 132.855 55.644 132.675 55.464C132.483 55.272 132.267 55.188 132.003 55.188ZM136.058 55.188C135.794 55.188 135.566 55.272 135.398 55.464C135.206 55.644 135.122 55.872 135.122 56.136C135.122 56.4 135.206 56.616 135.398 56.808C135.566 56.976 135.794 57.072 136.058 57.072C136.322 57.072 136.538 56.976 136.73 56.808C136.91 56.616 137.006 56.4 137.006 56.136C137.006 55.872 136.91 55.644 136.73 55.464C136.538 55.272 136.322 55.188 136.058 55.188Z" fill="#4FA6FF"/>
</svg>
