<svg width="24" height="24" viewBox="0 0 24 24" fill="none" xmlns="http://www.w3.org/2000/svg">
<path d="M11.8665 0.547974C12.4446 0.547974 13.0641 0.798827 13.7119 1.28636C14.1635 1.62119 14.6281 2.08036 14.9945 2.54171C15.4308 3.09795 15.7416 3.67055 15.9663 4.29769C16.9806 3.87996 17.9819 3.54513 19.1511 3.51786H19.1936C19.5303 3.52439 19.8512 3.66209 20.0879 3.90165C20.3246 4.14121 20.4585 4.46371 20.461 4.80048C20.461 5.83007 20.4326 6.87602 20.4195 7.87944C20.4195 8.10302 20.4053 8.3397 20.4053 8.56328V9.06499C20.4053 10.027 20.3912 11.0151 20.0672 11.9913C18.982 15.1411 15.9521 17.3573 12.5155 17.51L12.4991 17.5253L11.0921 17.4697H11.0638C9.48558 17.2886 8.00555 16.7444 6.76655 15.8795C5.42721 14.947 4.45652 13.6916 3.94827 12.2421C3.32877 10.4589 3.39857 8.45095 3.48364 6.5281C3.51091 5.92823 3.52509 5.35781 3.52509 4.7983C3.52509 4.08937 4.1315 3.50259 4.83498 3.51677C5.73844 3.53458 6.62963 3.72949 7.45803 4.09046L7.76669 4.22788C8.0284 3.55599 8.41017 2.93733 8.89335 2.40211C10.0058 1.16202 10.9798 0.547974 11.8676 0.547974H11.8665ZM11.8949 1.74771C11.6277 1.74771 11.0289 1.91022 10.0036 3.01397L9.83787 3.19611C9.32543 3.7773 8.95405 4.46892 8.75265 5.21712L8.55633 5.92823L7.89321 5.5934C6.82326 5.06333 5.97691 4.74268 4.83607 4.71541C4.80771 4.71541 4.76627 4.75686 4.76627 4.79939C4.76627 5.36981 4.73573 5.9555 4.72264 6.56955C4.65284 8.39532 4.58194 10.2778 5.13164 11.8527C5.92128 14.2086 8.30221 15.9493 11.1903 16.2852L12.5002 16.3267C15.4319 16.187 18.0091 14.2915 18.9395 11.615C19.2067 10.8351 19.2209 9.94298 19.2209 9.07917V8.57746C19.2209 8.3397 19.2351 8.1172 19.2351 7.87944C19.2449 7.21086 19.2601 6.52265 19.27 5.83771L19.2787 4.81248C19.2726 4.78815 19.2627 4.76495 19.2492 4.74377C19.2351 4.72959 19.2209 4.71541 19.2067 4.71541C17.9961 4.75686 17.009 5.14732 15.8398 5.67738L15.1636 5.98386L15.0087 5.25965C14.8522 4.5355 14.5292 3.85774 14.0653 3.28009C13.4872 2.54171 12.5296 1.74662 11.8949 1.74662V1.74771ZM9.19001 21.4004C9.08365 21.4 8.97931 21.3713 8.8877 21.3172C8.79609 21.2632 8.7205 21.1858 8.66867 21.0929C7.89321 19.7557 6.65312 18.0401 5.06075 17.4413C4.41289 17.1916 3.53927 17.149 2.79216 17.3432C2.32753 17.4555 1.49645 17.7631 1.17252 18.5287C1.11022 18.6759 0.992079 18.7923 0.844029 18.8524C0.69598 18.9125 0.530124 18.9114 0.382875 18.8494C0.309987 18.82 0.24368 18.7763 0.18782 18.7211C0.13196 18.6658 0.0876646 18.5999 0.0575147 18.5273C0.0273649 18.4547 0.011964 18.3769 0.0122099 18.2983C0.0124558 18.2197 0.0283435 18.1419 0.058947 18.0695C0.453768 17.1501 1.32739 16.4793 2.51077 16.187C3.51091 15.9362 4.62448 15.9918 5.51228 16.3397C6.37173 16.6746 7.21699 17.2744 8.00555 18.1241C8.67085 18.857 9.25218 19.6608 9.73862 20.5224C9.90876 20.8147 9.80842 21.1768 9.51394 21.3437C9.38633 21.3721 9.28817 21.4004 9.19001 21.4004ZM14.7415 21.4004C14.637 21.3989 14.5347 21.37 14.4448 21.3165C14.3753 21.278 14.3141 21.2261 14.265 21.1636C14.2158 21.1011 14.1797 21.0294 14.1588 20.9527C14.1378 20.8761 14.1324 20.796 14.143 20.7172C14.1535 20.6384 14.1798 20.5625 14.2202 20.4941C14.7546 19.5605 15.3326 18.7512 15.9521 18.0968C16.7429 17.2461 17.5881 16.6462 18.4465 16.3125C19.3201 15.9776 20.4468 15.9231 21.448 16.1598C22.6303 16.4521 23.505 17.1207 23.8998 18.0401C23.9306 18.1125 23.9466 18.1904 23.947 18.2691C23.9473 18.3478 23.9319 18.4258 23.9018 18.4985C23.8716 18.5712 23.8273 18.6372 23.7713 18.6926C23.7154 18.748 23.6489 18.7916 23.5759 18.821C23.4287 18.8835 23.2627 18.8849 23.1144 18.825C22.9661 18.765 22.8477 18.6487 22.7852 18.5014C22.4612 17.7347 21.6313 17.4271 21.1655 17.317C20.4053 17.1348 19.5459 17.1763 18.8969 17.414C17.3046 18.027 16.0514 19.7415 15.2912 21.0656C15.1494 21.2892 14.952 21.4004 14.7404 21.4004H14.7415Z" fill="#4FA6FF"/>
<path d="M11.9398 13.8C10.8541 13.8 9.97111 12.9089 9.97111 11.8143C9.97111 11.5371 10.1939 11.3126 10.4686 11.3126C10.7433 11.3126 10.9661 11.5371 10.9661 11.8143C10.9661 12.3569 11.4034 12.7978 11.941 12.7978C12.4786 12.7978 12.9159 12.3569 12.9159 11.8143C12.9159 11.5371 13.1387 11.3126 13.4134 11.3126C13.6881 11.3126 13.9097 11.5371 13.9097 11.8143C13.9085 12.91 13.0256 13.8 11.9398 13.8ZM9.59505 9.06721C9.59505 9.70106 9.08577 10.2144 8.45744 10.2144C7.8291 10.2144 7.31982 9.70106 7.31982 9.06721C7.31982 8.43337 7.8291 7.91998 8.45744 7.91998C9.08577 7.91998 9.59505 8.43337 9.59505 9.06721ZM16.5598 9.06721C16.5598 9.70106 16.0506 10.2144 15.4222 10.2144C14.7939 10.2144 14.2846 9.70106 14.2846 9.06721C14.2846 8.43337 14.7939 7.91998 15.4222 7.91998C16.0506 7.91998 16.5598 8.43337 16.5598 9.06721Z" fill="#4FA6FF"/>
<path d="M11.9658 22.405C11.8871 22.4061 11.809 22.3917 11.7359 22.3626C11.6628 22.3335 11.5962 22.2903 11.5398 22.2353C11.4835 22.1804 11.4385 22.1149 11.4076 22.0426C11.3766 21.9702 11.3602 21.8925 11.3594 21.8138V16.9255C11.3594 16.8461 11.3751 16.7676 11.4057 16.6944C11.4362 16.6212 11.481 16.5548 11.5374 16.499C11.5938 16.4432 11.6607 16.3991 11.7342 16.3694C11.8078 16.3396 11.8865 16.3247 11.9658 16.3256C12.045 16.3249 12.1236 16.3399 12.197 16.3697C12.2704 16.3995 12.3372 16.4436 12.3935 16.4994C12.4498 16.5551 12.4944 16.6215 12.5249 16.6946C12.5554 16.7678 12.5711 16.8462 12.5711 16.9255V21.8051C12.5711 22.1388 12.3028 22.405 11.9658 22.405Z" fill="#4FA6FF"/>
</svg>
