<svg width="24" height="24" viewBox="0 0 24 24" fill="none" xmlns="http://www.w3.org/2000/svg">
<path d="M11.9603 13.399C15.5071 13.399 18.3839 10.5222 18.3839 6.9754C18.3839 3.42863 15.507 0.571442 11.9603 0.571442C8.41349 0.571442 5.53662 3.44831 5.53662 6.9754C5.53662 10.5025 8.41344 13.399 11.9603 13.399ZM11.9603 2.24633C14.5612 2.24633 16.6893 4.37439 16.6893 6.9754C16.6893 9.57642 14.5612 11.7044 11.9603 11.7044C9.35929 11.7044 7.23118 9.57637 7.23118 6.97536C7.23118 4.37435 9.35925 2.24633 11.9603 2.24633Z" fill="#6E798C"/>
<path d="M0.847282 23.4286H23.1527C23.6256 23.4286 24 23.0542 24 22.5813C24 18.1478 20.3941 14.5221 15.9409 14.5221H8.05912C3.62562 14.5221 0 18.128 0 22.5813C0 23.0542 0.374378 23.4286 0.847282 23.4286ZM8.05912 16.2167H15.9409C19.1724 16.2167 21.8325 18.6207 22.2463 21.7339H1.75369C2.16747 18.6404 4.8276 16.2167 8.05912 16.2167Z" fill="#6E798C"/>
</svg>
