<svg width="287" height="633" viewBox="0 0 287 633" fill="none" xmlns="http://www.w3.org/2000/svg">
<g filter="url(#filter0_d)">
<path fill-rule="evenodd" clip-rule="evenodd" d="M204.452 366.213L231.765 350.298C233.662 349.192 234.828 347.162 234.828 344.965L240.395 322.931C240.395 322.931 202.368 326.817 183.97 322.356C177.697 320.834 171.303 334.831 171.303 334.831C165.698 338.439 172.072 348.129 173.031 349.416C175.969 353.367 184.58 355.962 198.319 365.287C200.184 366.551 202.551 367.422 204.452 366.213Z" fill="#253368"/>
<path d="M198.873 323.758L198.932 323.763C199.092 323.792 199.204 323.931 199.204 324.088L199.199 324.147L198.205 329.645C198.173 329.825 198.001 329.944 197.821 329.912C197.661 329.883 197.549 329.744 197.549 329.587L197.554 329.527L198.548 324.03C198.577 323.87 198.716 323.758 198.873 323.758Z" fill="#253368"/>
<path fill-rule="evenodd" clip-rule="evenodd" d="M172.492 359.393L224.574 337.252C235.404 332.812 247.662 338.953 250.591 350.285C253.124 360.093 247.646 370.192 238.042 373.415L184.076 391.532C184.076 391.532 168.985 397.536 163.35 381.448C157.87 365.805 172.492 359.393 172.492 359.393Z" fill="#253368"/>
<path fill-rule="evenodd" clip-rule="evenodd" d="M127.835 383.254L183.506 373.078C194.993 370.825 201.847 358.953 198.056 347.879C194.774 338.296 184.642 332.878 174.849 335.472L119.819 350.046C119.819 350.046 103.915 353.337 108.064 369.869C112.098 385.948 127.835 383.254 127.835 383.254Z" fill="#253368"/>
<path fill-rule="evenodd" clip-rule="evenodd" d="M195.656 204.484L196.813 204.457C195.96 211.398 222.134 212.409 226.178 204.354C226.28 204.149 226.361 203.956 226.43 203.772L229.618 203.698L230.974 324.61C230.974 324.61 203.55 332.666 181.667 324.467C172.14 227.932 195.656 204.484 195.656 204.484Z" fill="#597EF7"/>
<path fill-rule="evenodd" clip-rule="evenodd" d="M176.104 437.116C181.257 437.135 185.276 441.58 184.763 446.708C183.885 455.475 182.708 468.968 182.315 481.555C181.963 492.836 183.95 500.487 181.855 503.501C179.596 506.75 174.436 504.305 170.515 508.523C166.593 512.741 163.776 515.971 152.568 514.075C139.461 511.857 150.781 507.832 156.553 502.046C166.748 491.828 167.821 487.169 168.061 479.972C168.551 465.231 167.968 453.91 167.369 446.534C166.956 441.445 170.999 437.098 176.104 437.116Z" fill="#FFC999"/>
<path fill-rule="evenodd" clip-rule="evenodd" d="M196.306 375.28L187.691 475.594C187.486 477.992 185.565 479.885 183.165 480.056L166.218 481.26C163.364 481.464 160.946 479.183 160.98 476.322L162.176 376.938C162.176 376.938 161.744 360.037 179.848 360.289C196.736 360.523 196.306 375.28 196.306 375.28Z" fill="#253368"/>
<path fill-rule="evenodd" clip-rule="evenodd" d="M182.517 492.508C182.517 492.508 180.801 495.01 174.708 500.394C169.901 504.641 166.769 507.224 163.995 506.168C158.932 504.241 155.058 503.326 155.058 503.326C155.058 503.326 150.542 505.89 147.187 508.702C143.832 511.512 144.445 515.86 152.158 516.731C159.873 517.602 164.257 516.96 171.28 511.088C178.305 505.216 181.562 507.379 182.55 504.148C184.095 499.098 182.517 492.508 182.517 492.508Z" fill="#253368"/>
<path fill-rule="evenodd" clip-rule="evenodd" d="M188.255 480.328L160.473 482.304C159.885 482.346 159.384 481.883 159.378 481.293L159.267 469.327C159.263 468.787 159.678 468.336 160.217 468.297L189.74 466.198C190.387 466.152 190.913 466.712 190.827 467.354L189.196 479.445C189.131 479.924 188.739 480.293 188.255 480.328Z" fill="#4E5C93"/>
<path fill-rule="evenodd" clip-rule="evenodd" d="M131.037 428.374C136.19 428.363 140.234 432.786 139.749 437.917C138.923 446.688 137.823 460.188 137.501 472.777C137.212 484.06 139.243 491.7 137.165 494.725C134.925 497.987 129.751 495.572 125.855 499.812C121.957 504.053 119.159 507.297 107.939 505.465C94.8201 503.323 106.116 499.233 111.855 493.414C121.992 483.138 123.039 478.473 123.237 471.275C123.644 456.532 122.997 445.214 122.356 437.842C121.913 432.756 125.932 428.386 131.037 428.374Z" fill="#FFC999"/>
<path fill-rule="evenodd" clip-rule="evenodd" d="M137.765 483.729C137.765 483.729 136.063 486.241 130.001 491.66C125.218 495.935 122.101 498.534 119.321 497.494C114.247 495.595 110.368 494.702 110.368 494.702C110.368 494.702 105.867 497.294 102.527 500.123C99.1891 502.953 99.8261 507.296 107.545 508.124C115.263 508.951 119.643 508.285 126.634 502.372C133.625 496.46 136.894 498.604 137.865 495.368C139.38 490.31 137.765 483.729 137.765 483.729Z" fill="#253368"/>
<path fill-rule="evenodd" clip-rule="evenodd" d="M140.799 363.81L141.289 464.492C141.3 466.9 139.559 468.957 137.183 469.344L120.415 472.077C117.591 472.537 114.977 470.486 114.752 467.632L106.957 368.547C106.957 368.547 104.999 351.753 123.053 350.368C139.892 349.074 140.799 363.81 140.799 363.81Z" fill="#253368"/>
<path fill-rule="evenodd" clip-rule="evenodd" d="M143.073 469.731L115.373 472.641C114.786 472.702 114.27 472.257 114.245 471.669L113.73 459.712C113.706 459.172 114.107 458.708 114.645 458.652L144.081 455.559C144.726 455.491 145.27 456.033 145.205 456.678L143.984 468.817C143.935 469.299 143.555 469.681 143.073 469.731Z" fill="#4E5C93"/>
<path fill-rule="evenodd" clip-rule="evenodd" d="M224.756 168.207C224.756 168.207 225.842 146.944 199.463 150.156C184.833 152.942 187.207 177.44 187.207 177.44C187.207 177.44 186.604 182.675 188.976 187.815C191.634 193.572 197.431 195.092 204.905 195.147C218.648 193.519 223.578 185.481 223.578 185.481C223.578 185.481 233.128 185.405 231.343 173.529C229.613 162.518 224.756 168.207 224.756 168.207Z" fill="#FFC999"/>
<path fill-rule="evenodd" clip-rule="evenodd" d="M221.358 153.881C221.696 159.305 226.368 163.428 231.793 163.089C237.218 162.75 241.341 158.078 241.002 152.654C240.664 147.228 235.991 143.106 230.566 143.444C225.142 143.784 221.018 148.455 221.358 153.881Z" fill="#253368"/>
<path fill-rule="evenodd" clip-rule="evenodd" d="M187.384 178.195C187.384 178.195 183.807 172.804 181.455 166.256C179.102 159.708 190.961 145.58 192.615 144.396C194.268 143.213 195.063 142.084 207.161 145.647C242.372 144.859 236.05 177.559 236.05 177.559C236.05 177.559 240.325 180.262 238.456 188.37C236.156 196.503 225.179 197.468 225.179 197.468L224.018 185.041C224.018 185.041 227.752 185.088 230.279 180.612C232.808 176.135 230.064 171.058 228.316 170.735C226.713 169.681 222.917 170.495 223.204 175.093C223.349 177.407 218.619 172.495 216.345 163.791C203.935 162.19 200.331 153.848 200.331 153.848C200.331 153.848 200.412 162.048 202.563 165.369C195.989 163.837 192.332 160.61 193.179 156.886C186.067 160.569 187.384 178.195 187.384 178.195Z" fill="#253368"/>
<path fill-rule="evenodd" clip-rule="evenodd" d="M225.426 200.101L223.804 180.455L199.634 182.526C199.634 182.526 200.519 195.196 200.361 200.367C185.145 210.016 220.103 216.909 227.729 206.626C230.084 203.45 225.426 200.101 225.426 200.101Z" fill="#FFC999"/>
<path fill-rule="evenodd" clip-rule="evenodd" d="M200.997 173.339C201.745 178.016 205.633 181.283 209.683 180.636C213.733 179.988 216.411 175.673 215.663 170.996C214.916 166.319 211.028 163.052 206.978 163.7C202.928 164.347 200.251 168.663 200.997 173.339Z" fill="white"/>
<path d="M206.897 163.195C202.551 163.889 199.704 168.479 200.492 173.42C201.282 178.361 205.418 181.835 209.764 181.14C214.11 180.446 216.958 175.856 216.168 170.915C215.379 165.974 211.243 162.5 206.897 163.195ZM215.159 171.077C215.864 175.489 213.356 179.531 209.602 180.131C205.849 180.731 202.207 177.672 201.502 173.259C200.798 168.846 203.305 164.804 207.058 164.204C210.812 163.605 214.453 166.664 215.159 171.077Z" fill="#253368"/>
<path fill-rule="evenodd" clip-rule="evenodd" d="M184.482 173.736C185.23 178.413 188.909 181.714 192.701 181.107C196.493 180.502 198.96 176.219 198.214 171.542C197.466 166.865 193.788 163.566 189.995 164.171C186.204 164.778 183.736 169.06 184.482 173.736Z" fill="white"/>
<path d="M189.915 163.666C185.818 164.321 183.19 168.882 183.977 173.817C184.766 178.752 188.685 182.267 192.781 181.612C196.878 180.958 199.506 176.397 198.719 171.462C197.93 166.526 194.012 163.012 189.915 163.666ZM197.709 171.623C198.414 176.042 196.107 180.046 192.62 180.602C189.134 181.16 185.693 178.074 184.987 173.656C184.282 169.237 186.589 165.234 190.076 164.676C193.563 164.119 197.003 167.204 197.709 171.623Z" fill="#253368"/>
<path d="M199.236 174.594C199.372 174.429 199.616 174.405 199.782 174.541C199.929 174.662 199.964 174.868 199.874 175.029L199.835 175.086L197.586 177.818L200.347 179.948C200.497 180.065 200.539 180.27 200.455 180.433L200.417 180.492C200.301 180.642 200.096 180.684 199.932 180.6L199.873 180.562L196.797 178.188C196.643 178.069 196.603 177.858 196.694 177.694L196.734 177.635L199.236 174.594Z" fill="#DD936F"/>
<path d="M205.475 181.241C205.742 181.148 206.033 181.29 206.125 181.557C206.218 181.823 206.076 182.115 205.81 182.207L205.463 182.321C205.401 182.341 205.334 182.362 205.261 182.385C204.836 182.517 204.378 182.649 203.902 182.772C203.28 182.934 202.674 183.068 202.101 183.166C201.067 183.343 200.191 183.394 199.508 183.287C199.229 183.243 199.038 182.982 199.082 182.703C199.126 182.424 199.388 182.233 199.667 182.277C200.218 182.364 200.995 182.318 201.929 182.158C202.471 182.065 203.05 181.937 203.646 181.783C203.99 181.693 204.325 181.599 204.644 181.504L205.15 181.348C205.297 181.301 205.407 181.264 205.475 181.241Z" fill="#F5222D"/>
<path fill-rule="evenodd" clip-rule="evenodd" d="M200.746 171.111C200.746 171.111 199.399 170.33 198.303 171.263L200.746 171.111Z" fill="white"/>
<path d="M200.746 171.111C200.746 171.111 199.399 170.33 198.303 171.263" stroke="#253368" stroke-width="1.5" stroke-linecap="round" stroke-linejoin="round"/>
<path d="M212.878 192.859C213.082 192.797 213.299 192.912 213.362 193.116C213.425 193.321 213.31 193.537 213.105 193.6C212.021 193.933 210.774 194.219 209.397 194.461C207.642 194.769 205.764 194.993 203.887 195.147L203.122 195.205C202.999 195.214 202.877 195.222 202.758 195.23L201.843 195.283C201.632 195.294 201.475 195.301 201.38 195.304C201.166 195.312 200.987 195.144 200.98 194.93C200.972 194.716 201.14 194.537 201.353 194.53L201.706 194.514L202.03 194.497C202.571 194.468 203.174 194.427 203.824 194.374C205.679 194.223 207.534 194.001 209.263 193.697C210.611 193.46 211.827 193.182 212.878 192.859Z" fill="#DD936F"/>
<path fill-rule="evenodd" clip-rule="evenodd" d="M205.119 171.862C205.192 173.026 205.765 173.937 206.4 173.898C207.034 173.858 207.49 172.883 207.418 171.719C207.345 170.555 206.771 169.644 206.137 169.683C205.502 169.723 205.047 170.699 205.119 171.862Z" fill="#253368"/>
<path fill-rule="evenodd" clip-rule="evenodd" d="M190.19 172.987C190.262 174.151 190.837 175.062 191.471 175.023C192.106 174.983 192.561 174.007 192.488 172.843C192.416 171.68 191.842 170.768 191.208 170.808C190.573 170.848 190.118 171.823 190.19 172.987Z" fill="#253368"/>
<path d="M215.663 170.996L222.354 170.722" stroke="#253368" stroke-width="1.5" stroke-linecap="round" stroke-linejoin="round"/>
<path fill-rule="evenodd" clip-rule="evenodd" d="M143.216 278.817C136.606 274.545 134.71 265.724 138.981 259.113L163.449 221.253C167.721 214.643 176.542 212.747 183.153 217.019C189.762 221.29 191.658 230.112 187.387 236.722L162.92 274.583C158.648 281.193 149.826 283.088 143.216 278.817Z" fill="#E4EBF7"/>
<path d="M198.817 213.601C198.91 213.405 199.143 213.321 199.339 213.413C199.876 213.666 200.419 213.898 200.97 214.11C206.94 216.405 213.329 216.257 219.371 214.624C220.219 214.394 220.995 214.151 221.687 213.906L221.979 213.801C222.179 213.728 222.36 213.658 222.522 213.594L222.8 213.481C222.852 213.459 222.89 213.443 222.913 213.432C223.111 213.344 223.343 213.433 223.431 213.631C223.519 213.829 223.431 214.06 223.233 214.149L222.974 214.258C222.767 214.342 222.524 214.436 222.249 214.537C221.464 214.825 220.568 215.112 219.576 215.381C213.387 217.053 206.837 217.206 200.689 214.842C200.12 214.623 199.559 214.384 199.005 214.123C198.809 214.03 198.725 213.797 198.817 213.601Z" fill="#597EF7"/>
<path fill-rule="evenodd" clip-rule="evenodd" d="M200.325 201.358C200.325 201.358 190.907 217.674 190.893 277.744C190.88 337.901 162.858 338.669 162.858 338.669L147.122 342.507C147.122 342.507 163.796 329.551 164.564 298.964C165.965 243.26 166.934 228.05 171.637 215.654C176.876 212.738 182.426 210.757 190.522 206.509C192.489 205.478 195.923 202.672 197.172 202.007C200.57 200.201 200.325 201.358 200.325 201.358Z" fill="#E4EBF7"/>
<path d="M169.833 229.521C170.112 229.563 170.305 229.823 170.263 230.102L170.076 231.413L169.84 233.152C169.774 233.65 169.705 234.175 169.635 234.726L169.582 235.144C169.07 239.174 168.558 243.693 168.08 248.594C166.734 262.415 165.918 276.499 165.898 290.024C165.897 290.307 165.668 290.535 165.386 290.535C165.103 290.535 164.875 290.305 164.875 290.023C164.896 276.462 165.713 262.346 167.063 248.495C167.485 244.161 167.934 240.126 168.386 236.461L168.673 234.187C168.76 233.512 168.844 232.879 168.924 232.289L169.252 229.951C169.29 229.695 169.512 229.512 169.764 229.515L169.833 229.521Z" fill="#A3B5D6"/>
<path d="M199.749 199.969C199.99 199.822 200.305 199.899 200.451 200.14C200.586 200.362 200.532 200.644 200.337 200.803L200.28 200.843L190.407 206.84L190.302 207.465C190.271 207.66 190.238 207.871 190.204 208.099L190.134 208.576C189.895 210.242 189.657 212.288 189.434 214.729L189.34 215.784C187.845 233.18 187.961 258.251 190.741 291.969C190.764 292.251 190.555 292.498 190.273 292.521C189.992 292.544 189.745 292.335 189.722 292.053L189.555 289.996C186.879 256.575 186.849 231.779 188.415 214.636L188.5 213.732C188.686 211.816 188.881 210.158 189.076 208.751L189.193 207.946C189.227 207.715 189.261 207.499 189.293 207.301L189.417 206.576C189.429 206.51 189.439 206.459 189.446 206.422C189.469 206.305 189.533 206.201 189.624 206.126L189.682 206.085L199.749 199.969Z" fill="#A3B5D6"/>
<path fill-rule="evenodd" clip-rule="evenodd" d="M90.2011 223.16C90.2011 223.16 101.333 227.445 106.055 222.235C110.331 217.515 106.138 212.68 106.138 212.68C106.138 212.68 102.731 207.215 96.9043 203.054C93.0639 200.312 85.235 195.84 83.5223 197.663C81.2893 200.038 90.4454 204.584 89.4199 206.723C88.3678 208.918 86.4057 208.119 81.3486 207.769C78.1871 207.55 75.1576 206.092 72.443 206.418C67.1343 207.055 72.9685 218.124 90.2011 223.16Z" fill="#FFC999"/>
<path d="M72.1626 207.857C72.2705 207.672 72.5078 207.61 72.6927 207.718C77.3564 210.44 81.7644 211.175 85.2372 210.825L85.5119 210.793C85.614 210.78 85.6892 210.768 85.7363 210.76C85.9467 210.72 86.1492 210.859 86.1886 211.069C86.228 211.279 86.0895 211.482 85.8791 211.521L85.6988 211.55C85.5978 211.564 85.4695 211.58 85.315 211.596C81.69 211.961 77.1202 211.2 72.302 208.387C72.1171 208.279 72.0548 208.042 72.1626 207.857Z" fill="#DD936F"/>
<path d="M74.6325 212.031C74.7459 211.849 74.985 211.794 75.1665 211.908L75.3885 212.039L75.6935 212.21C75.8031 212.269 75.9206 212.332 76.0456 212.397C76.7627 212.769 77.5781 213.141 78.4759 213.489C80.9348 214.442 83.5306 215.03 86.1483 215.075C86.3623 215.078 86.5328 215.255 86.5292 215.469C86.5254 215.683 86.349 215.853 86.135 215.85C83.4172 215.803 80.7342 215.195 78.196 214.212C77.2707 213.854 76.4298 213.469 75.6887 213.085C75.4935 212.983 75.3157 212.888 75.1559 212.798L74.7869 212.584C74.7749 212.577 74.7645 212.57 74.7557 212.565C74.5742 212.451 74.519 212.212 74.6325 212.031Z" fill="#DD936F"/>
<path d="M78.4084 216.625C78.4919 216.428 78.7193 216.336 78.9164 216.42C81.3987 217.471 83.6276 218.13 85.5837 218.475C86.7752 218.684 87.6949 218.751 88.3269 218.737L88.4695 218.732L88.5895 218.676C88.7408 218.607 88.9159 218.53 89.1126 218.447C89.6732 218.211 90.2969 217.975 90.9682 217.755C92.8598 217.135 94.7521 216.758 96.529 216.746C99.2277 216.728 101.425 217.559 102.9 219.437C103.033 219.605 103.004 219.849 102.835 219.981C102.667 220.113 102.423 220.084 102.291 219.916C100.981 218.249 99.0129 217.504 96.5342 217.521C94.8484 217.532 93.0311 217.894 91.2096 218.492C90.5595 218.705 89.9553 218.933 89.4134 219.162L89.1885 219.258C89.0852 219.303 88.9956 219.343 88.9206 219.377L88.7404 219.462L88.6032 219.5L88.492 219.507C87.8031 219.537 86.7821 219.473 85.4493 219.238C83.4355 218.883 81.1504 218.207 78.6142 217.133C78.4171 217.05 78.325 216.823 78.4084 216.625Z" fill="#DD936F"/>
<path fill-rule="evenodd" clip-rule="evenodd" d="M113.08 211.462L95.0465 227.916L138.35 278.408C143.653 284.222 152.667 284.635 158.481 279.33C164.296 274.026 164.708 265.013 159.403 259.198L113.08 211.462Z" fill="#E4EBF7"/>
<path d="M112.493 210.819C112.701 210.628 113.025 210.643 113.215 210.852C113.388 211.041 113.391 211.326 113.234 211.519L113.182 211.574L95.1488 228.027C94.9402 228.218 94.6168 228.203 94.4265 227.994C94.2535 227.805 94.2501 227.52 94.4076 227.327L94.4596 227.272L112.493 210.819Z" fill="#A3B5D6"/>
<path d="M118.272 219.94C118.481 219.749 118.804 219.764 118.994 219.973C119.167 220.162 119.171 220.447 119.013 220.64L118.961 220.695L103.649 234.666C103.44 234.856 103.117 234.841 102.927 234.633C102.754 234.443 102.75 234.159 102.908 233.966L102.96 233.911L118.272 219.94Z" fill="#A3B5D6"/>
<path fill-rule="evenodd" clip-rule="evenodd" d="M192.415 286.862L177.62 240.583C177.377 239.821 176.673 239.299 175.872 239.289L134.388 238.726C133.098 238.709 132.182 239.975 132.6 241.193L148.045 286.242C148.292 286.967 148.959 287.465 149.723 287.499L190.559 289.29C191.854 289.347 192.81 288.096 192.415 286.862Z" fill="#4E5C93"/>
<path fill-rule="evenodd" clip-rule="evenodd" d="M190.229 286.297L175.691 240.825C175.396 239.902 174.543 239.27 173.574 239.258L131.577 238.688C130.676 238.677 130.035 239.562 130.328 240.414L145.985 286.086C146.26 286.888 146.998 287.44 147.845 287.477L187.981 289.238C189.549 289.306 190.706 287.792 190.229 286.297Z" fill="#253368"/>
<path fill-rule="evenodd" clip-rule="evenodd" d="M170.005 243.639C169.536 244.162 169.704 245.079 170.382 245.689C171.06 246.299 171.991 246.369 172.46 245.848C172.93 245.325 172.762 244.407 172.084 243.798C171.405 243.188 170.475 243.117 170.005 243.639Z" fill="#253368"/>
<path fill-rule="evenodd" clip-rule="evenodd" d="M170.562 244.185C170.319 244.456 170.407 244.933 170.758 245.25C171.11 245.567 171.594 245.602 171.837 245.331C172.081 245.06 171.994 244.584 171.642 244.268C171.289 243.951 170.807 243.914 170.562 244.185Z" fill="#E4EBF7"/>
<path fill-rule="evenodd" clip-rule="evenodd" d="M256.342 213.626C248.19 209.783 239.272 208.255 234.11 205.377C230.803 203.533 228.141 201.041 225.542 200.199C208.813 275.196 213.489 361.573 216.788 404.69C236.426 407.115 257.093 392.599 257.093 392.599C261.171 396.313 256.471 331.356 253.534 291.44C251.139 258.885 258.426 214.608 256.342 213.626Z" fill="#E4EBF7"/>
<path d="M225.339 199.652C225.484 199.44 225.76 199.37 225.984 199.479L226.05 199.517L234.143 205.023C234.273 205.111 234.355 205.254 234.366 205.411L234.388 205.865L234.408 206.534C234.467 209.192 234.329 212.813 233.855 217.296C233.098 224.458 231.617 232.365 229.242 240.893L228.443 243.746L224.699 256.896C223.386 261.549 222.498 264.867 221.703 268.154C219.933 275.477 218.732 282.366 217.752 291.184C217.721 291.465 217.468 291.667 217.187 291.636C216.907 291.605 216.705 291.352 216.736 291.071L216.923 289.432C217.842 281.612 218.963 275.255 220.544 268.603L220.876 267.23C221.548 264.489 222.3 261.668 223.32 258.025L227.046 244.932C227.421 243.608 227.772 242.359 228.125 241.094L228.257 240.619C230.616 232.146 232.087 224.295 232.838 217.189C233.324 212.592 233.453 208.92 233.378 206.283L233.358 205.725L225.475 200.362C225.262 200.218 225.193 199.942 225.301 199.717L225.339 199.652Z" fill="#A3B5D6"/>
<path d="M254.027 316.969C254.306 316.924 254.568 317.113 254.613 317.392C254.654 317.648 254.499 317.889 254.258 317.962L254.19 317.978L237.031 320.747L237.868 356.938C237.933 359.731 240.398 361.842 243.148 361.501L243.304 361.479L255.59 359.55C255.869 359.506 256.131 359.697 256.175 359.976C256.215 360.231 256.058 360.472 255.817 360.545L255.749 360.56L243.462 362.489C240.097 363.018 237.032 360.513 236.852 357.137L236.845 356.961L235.999 320.325C235.993 320.093 236.145 319.889 236.362 319.824L236.428 319.808L254.027 316.969Z" fill="#A3B5D6"/>
<path fill-rule="evenodd" clip-rule="evenodd" d="M267.189 292.784C274.803 290.792 279.361 283.006 277.369 275.391L263.302 221.608C261.312 213.994 253.524 209.436 245.909 211.427C238.296 213.418 233.738 221.205 235.729 228.82L249.796 282.603C251.787 290.217 259.574 294.775 267.189 292.784Z" fill="#E4EBF7"/>
<path fill-rule="evenodd" clip-rule="evenodd" d="M173.485 285.147C171.127 284.502 170.038 283.281 170.609 281.323C167.882 279.917 168.625 277.53 168.625 277.53C168.625 277.53 163.087 276.488 162.561 273.954C162.357 272.971 163.232 272.106 164.23 272.209C176.266 273.453 185.834 268.611 185.834 268.611C185.834 268.611 182.341 260.937 183.382 257.853C183.69 256.941 184.967 256.849 185.41 257.704C189.199 265.022 198.159 271.792 198.159 271.792C198.159 271.792 208.058 284.886 194.388 287.696C194.388 287.696 183.956 289.902 177.244 288.239C174.067 287.452 173.485 285.147 173.485 285.147Z" fill="#F4B784"/>
<path d="M177.256 276.687C177.458 276.616 177.679 276.722 177.75 276.924C177.821 277.126 177.716 277.347 177.514 277.418C176.668 277.717 175.732 277.927 174.719 278.058C172.808 278.305 170.772 278.26 168.828 278.038L168.421 277.988C168.291 277.971 168.166 277.954 168.047 277.937L167.694 277.882C167.616 277.87 167.558 277.859 167.519 277.852C167.308 277.813 167.169 277.61 167.209 277.4C167.248 277.19 167.45 277.051 167.661 277.09L167.992 277.145C168.264 277.187 168.574 277.229 168.916 277.268C170.803 277.484 172.78 277.527 174.62 277.289C175.581 277.165 176.465 276.966 177.256 276.687Z" fill="#DD936F"/>
<path d="M177.761 280.508C177.967 280.449 178.181 280.568 178.24 280.774C178.299 280.98 178.181 281.194 177.975 281.253C175.673 281.914 173.301 282.012 171.18 281.784C171.018 281.767 170.87 281.748 170.736 281.73L170.394 281.677C170.184 281.638 170.045 281.435 170.084 281.225C170.124 281.014 170.326 280.876 170.536 280.915C170.665 280.939 170.913 280.976 171.262 281.013C173.293 281.231 175.569 281.137 177.761 280.508Z" fill="#DD936F"/>
<path d="M173.531 284.762L173.953 284.81L174.471 284.863C174.65 284.881 174.834 284.898 175.022 284.915C175.556 284.962 176.077 285.001 176.565 285.028L176.995 285.048C178.035 285.09 178.807 285.063 179.174 284.958C179.38 284.898 179.594 285.017 179.653 285.223C179.713 285.429 179.594 285.643 179.388 285.702C178.857 285.855 177.872 285.875 176.523 285.801C176.149 285.781 175.759 285.754 175.357 285.721L174.953 285.687C174.668 285.661 174.391 285.635 174.128 285.608L173.438 285.532C173.226 285.506 173.074 285.313 173.1 285.101C173.123 284.909 173.282 284.768 173.468 284.76L173.531 284.762Z" fill="#DD936F"/>
<path fill-rule="evenodd" clip-rule="evenodd" d="M196.929 269.576L197.412 293.983L263.924 294.716C271.794 294.561 278.046 288.056 277.892 280.187C277.736 272.319 271.232 266.065 263.363 266.221L196.929 269.576Z" fill="#E4EBF7"/>
<path d="M263.337 265.71C263.619 265.696 263.859 265.913 263.874 266.195C263.886 266.453 263.705 266.677 263.457 266.723L263.388 266.731L197.09 270.069L197.553 293.48L254.216 293.632C254.475 293.632 254.688 293.825 254.721 294.075L254.726 294.144C254.725 294.403 254.532 294.617 254.282 294.65L254.213 294.654L197.05 294.501C196.796 294.5 196.584 294.313 196.546 294.068L196.541 294L196.059 269.594C196.054 269.34 196.234 269.126 196.477 269.081L196.544 269.073L263.337 265.71Z" fill="#A3B5D6"/>
<path d="M207.228 270.741C207.487 270.736 207.705 270.924 207.743 271.173L207.749 271.242L208.158 291.965C208.164 292.247 207.94 292.481 207.657 292.487C207.399 292.492 207.181 292.303 207.142 292.055L207.136 291.985L206.727 271.262C206.722 270.98 206.946 270.746 207.228 270.741Z" fill="#A3B5D6"/>
</g>
<defs>
<filter id="filter0_d" x="-20" y="-73" width="389" height="738" filterUnits="userSpaceOnUse" color-interpolation-filters="sRGB">
<feFlood flood-opacity="0" result="BackgroundImageFix"/>
<feColorMatrix in="SourceAlpha" type="matrix" values="0 0 0 0 0 0 0 0 0 0 0 0 0 0 0 0 0 0 127 0"/>
<feOffset dy="12"/>
<feGaussianBlur stdDeviation="10"/>
<feColorMatrix type="matrix" values="0 0 0 0 0.898039 0 0 0 0 0.898039 0 0 0 0 0.898039 0 0 0 1 0"/>
<feBlend mode="normal" in2="BackgroundImageFix" result="effect1_dropShadow"/>
<feBlend mode="normal" in="SourceGraphic" in2="effect1_dropShadow" result="shape"/>
</filter>
</defs>
</svg>
