<svg width="270" height="625" viewBox="0 0 270 625" fill="none" xmlns="http://www.w3.org/2000/svg">
<g filter="url(#filter0_d)">
<path fill-rule="evenodd" clip-rule="evenodd" d="M107.791 214.561C107.791 214.561 96.5331 187.883 84.9621 181.63C81.6802 181.995 85.0854 186.106 87.6364 189.488C88.9418 191.217 89.8821 193.454 89.8821 193.454C89.8821 193.454 85.3369 193.315 86.4847 197.086C82.8573 197.178 84.4641 201.134 84.4641 201.134C84.4641 201.134 81.6861 201.344 82.8574 205.043C83.6627 207.585 87.566 210.315 88.3674 213.044C90.434 220.08 96.9216 221.748 98.9745 221.919C104.171 222.353 106.925 220.199 107.791 214.561Z" fill="#F4B784"/>
<path d="M96.5033 195.126C95.3839 191.896 93.8481 190.627 92.7031 191.897C91.7451 192.959 91.7486 195.478 92.8354 197.686L93.0755 198.179C94.9673 202.107 95.1738 203.643 94.6101 205.443L94.5378 205.666C94.3352 206.285 94.2433 206.68 94.2269 207.177L94.2215 207.745C94.208 209.161 94.2541 209.989 94.4776 210.967C95.0213 213.345 96.4805 214.947 99.1796 215.474C99.3785 215.513 99.5712 215.383 99.6101 215.184C99.6489 214.985 99.5191 214.792 99.3202 214.753C96.9249 214.285 95.6754 212.913 95.193 210.803C94.999 209.954 94.9484 209.212 94.9536 208.001L94.9581 207.346C94.9581 206.908 95.0182 206.586 95.1781 206.073L95.2719 205.783C95.9692 203.658 95.7275 201.902 93.4936 197.361C92.5266 195.396 92.5235 193.192 93.2477 192.389C93.8319 191.742 94.8491 192.585 95.8063 195.355L95.8714 195.547L95.8984 195.609L100.511 203.953C100.609 204.131 100.833 204.195 101.01 204.097C101.167 204.009 101.236 203.823 101.18 203.658L101.153 203.597L96.5567 195.281L96.5033 195.126Z" fill="#DD936F"/>
<path d="M86.299 196.769C86.1241 196.872 86.0652 197.097 86.1675 197.272L86.3124 197.514C86.4281 197.705 86.5597 197.917 86.7051 198.146C87.1205 198.799 87.5631 199.453 88.0149 200.064C88.4243 200.618 88.8222 201.111 89.2024 201.526C90.2292 202.648 91.0813 203.184 91.8062 202.901C93.2047 202.357 93.6285 201.286 93.2466 199.958C93.0822 199.386 92.7772 198.788 92.3724 198.182C92.1581 197.862 91.9292 197.559 91.7001 197.283L91.5723 197.131C91.4945 197.041 91.4321 196.972 91.3893 196.926C91.2502 196.779 91.018 196.772 90.8706 196.911C90.7232 197.05 90.7165 197.283 90.8556 197.431L90.9679 197.555C91.0151 197.609 91.0716 197.675 91.1354 197.752C91.3493 198.01 91.5633 198.293 91.7625 198.591C92.1286 199.139 92.401 199.673 92.5414 200.161C92.8247 201.147 92.5583 201.82 91.5402 202.216C91.2214 202.34 90.5663 201.928 89.7434 201.029C89.3823 200.635 89 200.162 88.6047 199.627C88.2523 199.15 87.9046 198.645 87.5713 198.135L87.3241 197.751C87.1817 197.527 87.0528 197.319 86.9398 197.133L86.801 196.901C86.6987 196.726 86.4739 196.667 86.299 196.769Z" fill="#DD936F"/>
<path d="M84.9856 201.174C84.9066 200.987 84.6913 200.9 84.5047 200.979C84.318 201.058 84.2308 201.274 84.3098 201.461L84.3992 201.661L84.558 201.995C84.587 202.054 84.6173 202.115 84.6489 202.177C84.9194 202.709 85.2264 203.242 85.565 203.741C86.6664 205.364 87.8472 206.29 89.1118 206.095C90.3053 205.911 90.8324 205.095 90.8071 203.948C90.7977 203.523 90.7145 203.078 90.582 202.632C90.5495 202.523 90.5154 202.419 90.4807 202.32L90.3857 202.069C90.3734 202.039 90.3631 202.014 90.3552 201.997C90.2731 201.811 90.0564 201.727 89.8711 201.809C89.6858 201.892 89.6022 202.109 89.6843 202.294L89.7303 202.406C89.7731 202.515 89.8258 202.664 89.8787 202.842C89.9939 203.23 90.0656 203.614 90.0733 203.964C90.0912 204.775 89.7858 205.248 89.0002 205.369C88.1097 205.506 87.1271 204.736 86.172 203.328C85.8524 202.857 85.5604 202.35 85.303 201.844C85.243 201.725 85.1877 201.613 85.1375 201.507L84.9981 201.203C84.9931 201.192 84.9889 201.182 84.9856 201.174Z" fill="#DD936F"/>
<path d="M83.0683 204.377C83.0058 204.184 82.7988 204.078 82.606 204.141C82.4133 204.203 82.3077 204.411 82.3703 204.604L82.4346 204.789C82.4861 204.932 82.5469 205.09 82.6168 205.261C82.8167 205.749 83.05 206.238 83.3156 206.696C84.346 208.472 85.587 209.356 87.0088 208.686C87.9153 208.259 88.2911 207.577 88.172 206.765C88.1002 206.277 87.8571 205.778 87.499 205.281C87.3534 205.079 87.1981 204.891 87.0427 204.721L86.8966 204.566C86.8698 204.539 86.847 204.517 86.829 204.5C86.6819 204.36 86.4496 204.367 86.3102 204.514C86.1709 204.661 86.1772 204.894 86.3243 205.033L86.4131 205.123C86.4389 205.15 86.4685 205.181 86.5011 205.217C86.6385 205.367 86.7761 205.534 86.9039 205.712C87.1993 206.121 87.3944 206.521 87.4459 206.872C87.5174 207.36 87.3133 207.73 86.6963 208.021C85.7388 208.472 84.8118 207.812 83.9502 206.326C83.703 205.9 83.4838 205.441 83.2959 204.982L83.2082 204.763C83.1426 204.594 83.0957 204.461 83.0683 204.377Z" fill="#DD936F"/>
<path fill-rule="evenodd" clip-rule="evenodd" d="M201.394 439.405C201.394 439.405 203.132 464.006 204.509 483.167C205.259 493.628 205.432 501.799 206.603 502.449C209.916 504.286 213.739 502.713 217.768 506.478C221.799 510.246 224.706 513.141 235.277 510.566C247.64 507.555 236.56 504.476 230.656 499.337C220.231 490.262 220.966 484.653 220.728 477.755C220.017 457.166 220.674 433.584 220.674 433.584L201.394 439.405Z" fill="#FFC999"/>
<path fill-rule="evenodd" clip-rule="evenodd" d="M205.132 492.839C205.132 492.839 207.031 494.259 213.214 498.993C218.091 502.726 221.257 504.982 223.832 503.784C228.535 501.597 232.171 500.459 232.171 500.459C232.171 500.459 236.657 502.604 240.05 505.064C243.442 507.522 243.153 511.721 235.85 513.078C228.545 514.435 224.316 514.12 217.212 508.984C210.108 503.847 207.145 506.136 205.982 503.114C204.165 498.391 205.132 492.839 205.132 492.839Z" fill="#253368"/>
<path fill-rule="evenodd" clip-rule="evenodd" d="M170.24 437.875C170.24 437.875 169.485 463.194 168.77 482.391C168.381 492.871 168.356 500.373 167.209 501.062C163.962 503.013 160.086 501.573 156.19 505.476C152.291 509.38 149.485 512.374 138.832 510.168C126.373 507.585 137.339 504.125 143.062 498.785C153.169 489.354 152.239 483.774 152.239 476.872C152.239 456.271 150.771 432.725 150.771 432.725L170.24 437.875Z" fill="#FFC999"/>
<path fill-rule="evenodd" clip-rule="evenodd" d="M213.924 297.434L147.02 294.181L146.692 477.61L171.037 476.96L182.362 352.063L200.604 477.763L226.914 478.59L213.924 297.434Z" fill="#253368"/>
<path fill-rule="evenodd" clip-rule="evenodd" d="M162.158 311.439C155.178 218.729 173.822 195.064 173.822 195.064H206.332L204.954 310.95C204.954 310.95 182.913 319.78 162.158 311.439Z" fill="#597EF7"/>
<path d="M177.02 202.729C176.834 202.636 176.609 202.711 176.516 202.897C176.423 203.082 176.499 203.308 176.684 203.401C177.402 203.76 178.134 204.082 178.88 204.366C184.642 206.56 190.778 206.471 196.561 205.007C197.458 204.78 198.267 204.536 198.976 204.293L199.485 204.111L199.865 203.963C200.056 203.883 200.146 203.663 200.066 203.471C199.986 203.28 199.766 203.19 199.575 203.27L199.363 203.354C199.184 203.422 198.973 203.499 198.732 203.582C198.043 203.819 197.253 204.057 196.377 204.278C190.731 205.708 184.743 205.794 179.147 203.663C178.424 203.388 177.715 203.077 177.02 202.729Z" fill="#597EF7"/>
<path fill-rule="evenodd" clip-rule="evenodd" d="M203.542 162.264C203.542 162.264 205.847 141.99 180.459 143.485C166.319 145.276 167.125 168.854 167.125 168.854C167.125 168.854 166.236 173.825 168.196 178.883C170.392 184.549 175.838 186.35 182.973 186.848C196.198 186.113 201.384 178.717 201.384 178.717C201.384 178.717 210.511 179.216 209.515 167.748C208.52 157.113 203.542 162.264 203.542 162.264Z" fill="#F4B784"/>
<path fill-rule="evenodd" clip-rule="evenodd" d="M201.149 148.357C201.149 153.566 205.367 157.789 210.568 157.789C215.769 157.789 219.987 153.566 219.987 148.357C219.987 143.147 215.769 138.924 210.568 138.924C205.367 138.924 201.149 143.147 201.149 148.357Z" fill="#253368"/>
<path fill-rule="evenodd" clip-rule="evenodd" d="M167.248 169.586C167.248 169.586 164.155 164.215 162.298 157.811C160.442 151.407 172.611 138.599 174.261 137.567C175.912 136.533 176.737 135.501 188.082 139.633C221.76 140.982 213.771 171.885 213.771 171.885C213.771 171.885 217.693 174.727 215.423 182.37C212.742 190.014 202.2 190.28 202.2 190.28L201.832 178.324C201.832 178.324 205.395 178.592 208.077 174.461C210.758 170.329 208.442 165.308 206.791 164.895C205.321 163.791 201.648 164.343 201.648 168.758C201.648 170.981 197.424 165.999 195.77 157.537C184.014 155.266 181.069 147.069 181.069 147.069C181.069 147.069 180.656 154.919 182.513 158.224C176.324 156.365 173.023 153.06 174.056 149.548C167.042 152.647 167.248 169.586 167.248 169.586Z" fill="#253368"/>
<path fill-rule="evenodd" clip-rule="evenodd" d="M202.2 191.752L201.901 173.924L178.693 174.46C178.693 174.46 178.781 186.633 178.322 191.571C166.382 200.98 199.168 204.445 203.851 195.615C205.627 192.268 202.2 191.752 202.2 191.752Z" fill="#F4B784"/>
<path fill-rule="evenodd" clip-rule="evenodd" d="M180.542 165.755C180.976 170.273 184.496 173.631 188.403 173.253C192.31 172.876 195.124 168.907 194.69 164.39C194.255 159.871 190.735 156.513 186.829 156.891C182.922 157.268 180.108 161.237 180.542 165.755Z" fill="white"/>
<path d="M195.177 164.343C195.636 169.116 192.642 173.336 188.45 173.741C184.257 174.146 180.513 170.575 180.055 165.802C179.596 161.029 182.59 156.808 186.782 156.403C190.974 155.998 194.718 159.569 195.177 164.343ZM186.876 157.378C183.255 157.728 180.619 161.445 181.029 165.708C181.438 169.971 184.735 173.115 188.356 172.766C191.977 172.416 194.613 168.7 194.203 164.437C193.799 160.241 190.601 157.129 187.048 157.364L186.876 157.378Z" fill="#253368"/>
<path fill-rule="evenodd" clip-rule="evenodd" d="M164.744 165.147C165.178 169.666 168.496 173.043 172.154 172.689C175.813 172.337 178.424 168.388 177.99 163.87C177.555 159.351 174.237 155.974 170.579 156.328C166.922 156.68 164.309 160.63 164.744 165.147Z" fill="white"/>
<path d="M178.477 163.823C178.935 168.591 176.153 172.796 172.201 173.177C168.249 173.559 164.715 169.963 164.257 165.194C163.798 160.427 166.581 156.221 170.532 155.84C174.484 155.458 178.018 159.054 178.477 163.823ZM170.627 156.815C167.263 157.14 164.82 160.832 165.231 165.101C165.641 169.37 168.743 172.527 172.107 172.202C175.471 171.877 177.913 168.186 177.503 163.917C177.092 159.647 173.99 156.49 170.627 156.815Z" fill="#253368"/>
<path d="M179.39 166.744C179.21 166.577 178.938 166.57 178.752 166.719L178.699 166.768L176.127 169.528C175.956 169.712 175.953 169.992 176.11 170.178L176.162 170.231L178.959 172.686C179.162 172.864 179.471 172.844 179.649 172.64C179.811 172.455 179.809 172.182 179.655 172L179.604 171.949L177.187 169.827L179.414 167.437C179.582 167.257 179.588 166.985 179.439 166.798L179.39 166.744Z" fill="#DD936F"/>
<path d="M184.95 173.921C184.877 173.661 184.608 173.508 184.347 173.58L184.006 173.67L183.906 173.694C183.556 173.781 183.174 173.868 182.774 173.949C182.145 174.076 181.532 174.176 180.959 174.24C180.034 174.343 179.27 174.343 178.738 174.225C178.474 174.166 178.212 174.333 178.154 174.597C178.095 174.861 178.262 175.123 178.526 175.182C179.184 175.328 180.044 175.328 181.067 175.214C181.672 175.147 182.312 175.042 182.968 174.909C183.278 174.846 183.578 174.78 183.862 174.713L184.34 174.596C184.459 174.565 184.55 174.541 184.609 174.525C184.869 174.452 185.022 174.182 184.95 173.921Z" fill="#F5222D"/>
<path fill-rule="evenodd" clip-rule="evenodd" d="M154.811 202.789C154.811 202.789 146.944 202.782 126.158 239.211C115.872 223.023 108.048 213.083 108.048 213.083L92.4583 225.226C92.4583 225.226 109.186 272.321 126.433 272.321C134.52 272.321 140.133 265.185 145.627 258.342C153.613 248.396 159.77 237.555 159.77 237.555C159.77 237.555 165.637 208.861 154.811 202.789Z" fill="#E4EBF7"/>
<path fill-rule="evenodd" clip-rule="evenodd" d="M178.23 191.2C178.23 191.2 174.096 206.652 168.036 263.906C163.693 304.933 162.892 400.717 162.892 400.717C162.892 400.717 144.402 398.754 143.424 394.464C140.722 382.617 142.746 316.328 144.159 287.037C146.73 233.692 146.73 216.217 151.504 204.445C156.582 201.766 160.597 199.478 169.413 195.891C171.383 195.09 173.989 192.362 175.199 191.752C178.49 190.096 178.23 191.2 178.23 191.2Z" fill="#E4EBF7"/>
<path d="M148.232 220.511C147.962 220.492 147.729 220.696 147.711 220.966L147.529 223.811C147.459 224.964 147.382 226.248 147.302 227.658L147.142 230.523C146.903 234.915 146.666 239.725 146.441 244.896L146.404 245.761C146.037 254.314 145.73 263.204 145.506 272.309C145.499 272.58 145.713 272.804 145.983 272.812C146.253 272.818 146.477 272.604 146.484 272.333C146.692 263.885 146.971 255.621 147.304 247.639L147.456 244.08C147.695 238.669 147.946 233.662 148.199 229.13L148.434 225.066L148.687 221.033C148.705 220.763 148.502 220.529 148.232 220.511Z" fill="#A3B5D6"/>
<path d="M180.257 162.97C179.599 162.701 178.896 162.647 178.221 162.961C178.075 163.029 177.933 163.114 177.798 163.216C177.582 163.378 177.538 163.685 177.7 163.902C177.863 164.118 178.169 164.162 178.385 164C178.466 163.939 178.549 163.889 178.634 163.85C179.023 163.668 179.458 163.702 179.887 163.877C180.022 163.933 180.119 163.986 180.163 164.015C180.388 164.165 180.692 164.105 180.841 163.879C180.991 163.654 180.93 163.35 180.706 163.2C180.611 163.137 180.458 163.053 180.257 162.97Z" fill="#253368"/>
<path d="M190.725 185.141C189.729 185.38 188.586 185.57 187.323 185.715C184.944 185.988 182.465 186.077 180.352 186.061L179.618 186.05C179.415 186.045 179.246 186.204 179.241 186.407C179.235 186.61 179.395 186.779 179.598 186.785L179.894 186.791C182.129 186.824 184.821 186.742 187.407 186.445C188.697 186.297 189.869 186.102 190.896 185.856C191.093 185.808 191.215 185.61 191.168 185.413C191.125 185.235 190.96 185.119 190.784 185.132L190.725 185.141Z" fill="#DD936F"/>
<path fill-rule="evenodd" clip-rule="evenodd" d="M226.995 203.341C223.041 201.395 215.34 198.671 210.464 195.799C207.342 193.96 204.849 191.513 202.383 190.648C188.056 250.432 195.339 369.57 198.095 402.681C216.829 405.44 229.015 397.406 229.015 397.406C229.015 397.406 229.334 314.332 228.156 276.737C227.178 245.464 228.973 204.315 226.995 203.341Z" fill="#E4EBF7"/>
<path d="M202.882 190.006C202.662 189.848 202.356 189.899 202.199 190.119C202.057 190.32 202.086 190.591 202.257 190.756L202.313 190.803L209.729 196.108L209.72 196.331C209.708 196.65 209.687 197.022 209.654 197.451L209.637 197.67C209.518 199.148 209.303 200.943 208.965 203.063L208.823 203.934C207.863 209.66 206.227 216.604 203.759 224.821L202.982 227.397C197.647 245.195 195.828 254.22 193.082 274.648C193.046 274.916 193.234 275.162 193.502 275.199C193.769 275.235 194.016 275.046 194.052 274.778L194.437 271.942C196.971 253.524 198.853 244.577 203.92 227.676L204.504 225.741C207.221 216.779 208.965 209.295 209.932 203.217C210.25 201.215 210.462 199.496 210.587 198.054L210.613 197.749C210.666 197.088 210.693 196.579 210.704 196.219L210.71 195.86C210.709 195.722 210.653 195.594 210.557 195.503L210.506 195.46L202.882 190.006Z" fill="#A3B5D6"/>
<path fill-rule="evenodd" clip-rule="evenodd" d="M184.566 164.588C184.566 165.706 185.06 166.611 185.669 166.611C186.277 166.611 186.771 165.706 186.771 164.588C186.771 163.47 186.277 162.565 185.669 162.565C185.06 162.565 184.566 163.47 184.566 164.588Z" fill="#253368"/>
<path fill-rule="evenodd" clip-rule="evenodd" d="M170.24 164.772C170.24 165.889 170.733 166.794 171.342 166.794C171.95 166.794 172.444 165.889 172.444 164.772C172.444 163.654 171.95 162.748 171.342 162.748C170.733 162.748 170.24 163.654 170.24 164.772Z" fill="#253368"/>
<path d="M178.362 190.009C178.226 189.804 177.962 189.735 177.747 189.837L177.683 189.873L169.969 195.023C169.875 195.085 169.806 195.179 169.772 195.287L169.718 195.475C169.674 195.628 169.624 195.812 169.568 196.027L169.459 196.454C169.328 196.976 169.187 197.577 169.039 198.258L168.883 198.988C168.416 201.222 167.951 203.879 167.513 206.974L167.44 207.494C165.073 224.57 164.302 247.809 166.078 277.869C166.094 278.139 166.326 278.345 166.596 278.329C166.865 278.313 167.071 278.081 167.055 277.811L166.952 276.019C165.314 246.889 166.098 224.299 168.409 207.629L168.554 206.604C168.992 203.579 169.454 200.991 169.917 198.825L169.994 198.468C170.141 197.796 170.279 197.205 170.407 196.694L170.579 196.031L170.66 195.739L178.226 190.688C178.431 190.552 178.499 190.288 178.398 190.072L178.362 190.009Z" fill="#A3B5D6"/>
<path fill-rule="evenodd" clip-rule="evenodd" d="M188.974 280.574L174.217 236.414C173.975 235.687 173.295 235.196 172.527 235.196H132.822C131.588 235.196 130.729 236.42 131.144 237.582L146.507 280.555C146.753 281.247 147.398 281.715 148.13 281.738L187.23 282.925C188.469 282.962 189.368 281.752 188.974 280.574Z" fill="#4E5C93"/>
<path fill-rule="evenodd" clip-rule="evenodd" d="M186.874 280.061L172.375 236.672C172.081 235.79 171.256 235.196 170.328 235.196H130.133C129.271 235.196 128.669 236.051 128.959 236.865L144.533 280.432C144.808 281.198 145.52 281.717 146.331 281.742L184.762 282.908C186.263 282.954 187.35 281.488 186.874 280.061Z" fill="black"/>
<path fill-rule="evenodd" clip-rule="evenodd" d="M166.97 239.441C166.527 239.948 166.701 240.826 167.358 241.401C168.014 241.976 168.906 242.032 169.349 241.525C169.791 241.019 169.617 240.142 168.96 239.565C168.304 238.99 167.412 238.934 166.97 239.441Z" fill="#253368"/>
<path fill-rule="evenodd" clip-rule="evenodd" d="M167.51 239.957C167.281 240.221 167.37 240.675 167.712 240.974C168.053 241.273 168.515 241.303 168.745 241.039C168.975 240.776 168.885 240.321 168.544 240.022C168.203 239.723 167.74 239.695 167.51 239.957Z" fill="#E4EBF7"/>
<path d="M194.756 163.904C194.488 163.867 194.242 164.055 194.205 164.323C194.171 164.569 194.326 164.797 194.558 164.861L194.623 164.875L202.316 165.933C202.584 165.97 202.831 165.783 202.867 165.515C202.901 165.269 202.747 165.041 202.514 164.976L202.449 164.962L194.756 163.904Z" fill="#253368"/>
<path fill-rule="evenodd" clip-rule="evenodd" d="M171.19 272.474C168.906 272.283 167.694 271.345 167.883 269.439C165.129 268.61 165.404 266.28 165.404 266.28C165.404 266.28 160.122 266.27 159.203 264.022C158.846 263.149 159.503 262.201 160.443 262.124C171.745 261.204 179.731 255.091 179.731 255.091C179.731 255.091 175.195 248.609 175.625 245.585C175.752 244.689 176.913 244.385 177.467 245.098C182.216 251.2 191.634 255.907 191.634 255.907C191.634 255.907 203.003 266.289 190.889 271.232C190.889 271.232 181.655 275.063 175.185 274.68C172.121 274.5 171.19 272.474 171.19 272.474Z" fill="#F4B784"/>
<path d="M173.712 264.151C173.611 263.975 173.386 263.915 173.211 264.016C172.399 264.485 171.447 264.87 170.383 265.177C169.085 265.552 167.69 265.794 166.294 265.928C165.903 265.966 165.534 265.993 165.194 266.011L164.754 266.029C164.61 266.034 164.504 266.036 164.44 266.036C164.237 266.036 164.073 266.2 164.073 266.403C164.073 266.606 164.237 266.771 164.44 266.771L164.689 266.767C164.77 266.764 164.866 266.761 164.974 266.757C165.394 266.739 165.861 266.708 166.364 266.66C167.802 266.521 169.24 266.272 170.587 265.883C171.704 265.56 172.71 265.154 173.577 264.653C173.753 264.551 173.813 264.327 173.712 264.151Z" fill="#DD936F"/>
<path d="M174.824 267.619C174.733 267.437 174.513 267.364 174.332 267.454C174.208 267.516 174.083 267.576 173.957 267.635C172.599 268.262 171.139 268.667 169.679 268.891C169.27 268.954 168.885 268.999 168.53 269.029L168.269 269.049C168.016 269.065 167.838 269.071 167.746 269.071C167.543 269.071 167.379 269.235 167.379 269.438C167.379 269.641 167.543 269.806 167.746 269.806L167.859 269.804C167.97 269.801 168.125 269.795 168.317 269.782C168.762 269.753 169.258 269.7 169.791 269.618C171.314 269.383 172.838 268.961 174.265 268.302C174.398 268.241 174.529 268.177 174.66 268.112C174.841 268.021 174.915 267.8 174.824 267.619Z" fill="#DD936F"/>
<path d="M176.89 271.481C176.799 271.299 176.579 271.226 176.398 271.317C176.029 271.502 175.152 271.682 173.957 271.836C173.5 271.896 173.017 271.948 172.528 271.995L171.814 272.058L171.166 272.107C170.964 272.12 170.811 272.295 170.824 272.497C170.837 272.7 171.011 272.853 171.213 272.84L171.874 272.791C171.948 272.785 172.023 272.778 172.101 272.772C172.765 272.714 173.43 272.646 174.051 272.565L174.489 272.506C175.544 272.354 176.311 272.182 176.726 271.974C176.907 271.883 176.981 271.662 176.89 271.481Z" fill="#DD936F"/>
<path fill-rule="evenodd" clip-rule="evenodd" d="M229.383 204.629C221.048 198.421 211.963 206.304 214.689 224.862C220.199 246.2 223.996 256.746 223.996 256.746L190.475 255.129C190.475 255.129 190.475 263.644 189.373 276.888C214.721 280.437 235.536 283.511 243.525 280.751C246.248 279.812 250.688 279.096 250.822 268.619C251.045 251.151 241.386 213.568 229.383 204.629Z" fill="#E4EBF7"/>
<path d="M217.495 226.809C217.436 226.545 217.175 226.378 216.911 226.436C216.648 226.494 216.481 226.756 216.539 227.02L217.255 230.249C218.991 238.036 220.515 244.501 221.822 249.734L222.412 252.064C222.658 253.027 222.884 253.893 223.089 254.665L223.324 255.54L223.435 255.946L190.501 254.24C190.243 254.227 190.023 254.416 189.99 254.666L189.986 254.729L189.976 256.323L189.963 257.432C189.949 258.458 189.929 259.59 189.902 260.821L189.864 262.453C189.753 266.856 189.575 271.665 189.313 276.778C189.3 277.026 189.474 277.244 189.718 277.286L190.853 277.48C202.337 279.417 217.893 281.392 226.806 282.067C227.076 282.088 227.311 281.886 227.331 281.616C227.351 281.346 227.149 281.111 226.88 281.09L225.97 281.019C217.123 280.298 202.601 278.447 191.592 276.61L190.312 276.393L190.338 275.872C190.574 271.106 190.738 266.613 190.842 262.477L190.88 260.842C190.907 259.608 190.927 258.474 190.941 257.445L190.961 255.498L190.963 255.245L224.063 256.96C224.376 256.976 224.618 256.7 224.573 256.4L224.559 256.335L224.165 254.901L223.712 253.188C223.515 252.432 223.303 251.603 223.074 250.699L222.558 248.638C221.121 242.845 219.432 235.607 217.495 226.809Z" fill="#A3B5D6"/>
<path d="M224.026 255.857C223.756 255.841 223.524 256.047 223.508 256.317C223.493 256.564 223.664 256.78 223.901 256.827L223.967 256.835L235.079 257.511C235.348 257.527 235.58 257.321 235.597 257.051C235.612 256.804 235.44 256.588 235.204 256.541L235.138 256.533L224.026 255.857Z" fill="#A3B5D6"/>
<path d="M198.148 254.908C197.9 254.914 197.699 255.102 197.672 255.342L197.669 255.409L198.036 272.332C198.042 272.603 198.266 272.817 198.536 272.811C198.784 272.806 198.984 272.617 199.011 272.377L199.014 272.311L198.647 255.387C198.642 255.117 198.418 254.902 198.148 254.908Z" fill="#A3B5D6"/>
<path d="M227.118 303.163L227.051 303.168L210.152 305.499C209.931 305.529 209.762 305.703 209.733 305.919L209.729 305.984V341.108C209.729 344.373 212.551 346.903 215.77 346.571L215.937 346.551L227.734 344.975C228.002 344.94 228.19 344.693 228.154 344.425C228.121 344.179 227.912 344 227.671 344L227.604 344.004L215.807 345.58C213.157 345.934 210.797 343.914 210.71 341.259L210.708 341.108L210.708 306.412L227.185 304.138C227.43 304.105 227.608 303.894 227.608 303.653L227.603 303.586C227.569 303.34 227.359 303.162 227.118 303.163Z" fill="#A3B5D6"/>
<path d="M169.873 326.627C169.692 326.525 169.463 326.589 169.362 326.77C169.27 326.933 169.313 327.135 169.454 327.247L169.505 327.282L178.169 332.162L182.693 355.779C182.728 355.962 182.891 356.089 183.071 356.084L183.132 356.077C183.315 356.042 183.441 355.879 183.436 355.698L183.43 355.637L178.874 331.85C178.857 331.763 178.811 331.685 178.743 331.63L178.689 331.593L169.873 326.627Z" fill="black"/>
<path fill-rule="evenodd" clip-rule="evenodd" d="M201.135 479.934H227.282C227.836 479.934 228.274 479.433 228.24 478.84L227.547 466.804C227.517 466.26 227.097 465.837 226.59 465.837H198.803C198.195 465.837 197.74 466.437 197.863 467.076L200.195 479.113C200.288 479.591 200.68 479.934 201.135 479.934Z" fill="#4E5C93"/>
<path fill-rule="evenodd" clip-rule="evenodd" d="M146.062 479.749H170.464C170.963 479.749 171.383 479.373 171.438 478.876L172.689 467.428C172.752 466.848 172.298 466.341 171.717 466.341H145.356C144.792 466.341 144.345 466.818 144.38 467.381L145.886 479.136C145.917 479.679 145.545 479.749 146.062 479.749Z" fill="#4E5C93"/>
<path fill-rule="evenodd" clip-rule="evenodd" d="M168.625 489.872C168.625 489.872 166.803 493.09 160.483 497.837C155.086 501.89 152.652 504.102 150.036 502.993C145.26 500.97 141.587 499.958 141.587 499.958C141.587 499.958 137.179 502.257 133.872 504.833C130.566 507.408 132.403 510.718 139.75 511.823C147.097 512.926 149.909 513.339 156.831 507.96C163.753 502.581 166.794 504.766 167.852 501.705C169.505 496.922 168.625 489.872 168.625 489.872Z" fill="#253368"/>
<path d="M227.118 206.718C226.735 206.766 226.094 206.921 225.28 207.246C223.938 207.783 222.597 208.614 221.349 209.798C218.662 212.349 216.778 216.171 216.041 221.484C216.004 221.752 216.19 222 216.458 222.037C216.726 222.074 216.973 221.887 217.01 221.619C217.717 216.521 219.5 212.903 222.022 210.51C223.177 209.414 224.411 208.649 225.643 208.157C226.072 207.985 226.468 207.86 226.822 207.774L227.007 207.732C227.115 207.709 227.194 207.696 227.239 207.69C227.507 207.656 227.697 207.412 227.664 207.143C227.633 206.897 227.425 206.716 227.184 206.714L227.118 206.718Z" fill="#A3B5D6"/>
<path d="M144.44 301.29C144.185 301.202 143.906 301.338 143.819 301.594C143.739 301.829 143.846 302.083 144.062 302.191L144.123 302.217L152.369 305.045L152.368 340.226C152.368 341.786 150.871 342.892 149.398 342.462L149.284 342.426L143.463 340.408C143.208 340.32 142.929 340.455 142.841 340.711C142.76 340.945 142.867 341.199 143.082 341.308L143.143 341.334L148.964 343.352C151.067 344.081 153.259 342.561 153.344 340.359L153.347 340.226V304.696C153.347 304.51 153.242 304.342 153.079 304.26L153.016 304.233L144.44 301.29Z" fill="#A3B5D6"/>
<path d="M108.559 213.177C108.414 212.969 108.138 212.91 107.922 213.029L107.865 213.066L92.1657 224.834C91.9494 224.997 91.9053 225.304 92.0672 225.52C92.2144 225.717 92.4812 225.772 92.691 225.658L92.7521 225.619L108.047 214.153L130.9 246.85C131.041 247.051 131.306 247.114 131.519 247.007L131.582 246.97C131.783 246.829 131.846 246.564 131.739 246.35L131.702 246.288L108.559 213.177Z" fill="#A3B5D6"/>
<path d="M110.742 221.242C110.587 221.051 110.318 221.008 110.113 221.13L110.054 221.171L98.298 230.737C98.0883 230.907 98.0564 231.216 98.2268 231.426C98.3817 231.617 98.6504 231.661 98.8556 231.539L98.915 231.497L110.671 221.932C110.881 221.761 110.913 221.452 110.742 221.242Z" fill="#A3B5D6"/>
</g>
<defs>
<filter id="filter0_d" x="-20" y="-52" width="374" height="709" filterUnits="userSpaceOnUse" color-interpolation-filters="sRGB">
<feFlood flood-opacity="0" result="BackgroundImageFix"/>
<feColorMatrix in="SourceAlpha" type="matrix" values="0 0 0 0 0 0 0 0 0 0 0 0 0 0 0 0 0 0 127 0"/>
<feOffset dy="12"/>
<feGaussianBlur stdDeviation="10"/>
<feColorMatrix type="matrix" values="0 0 0 0 0.898039 0 0 0 0 0.898039 0 0 0 0 0.898039 0 0 0 1 0"/>
<feBlend mode="normal" in2="BackgroundImageFix" result="effect1_dropShadow"/>
<feBlend mode="normal" in="SourceGraphic" in2="effect1_dropShadow" result="shape"/>
</filter>
</defs>
</svg>
