<svg width="141" height="40" viewBox="0 0 141 40" fill="none" xmlns="http://www.w3.org/2000/svg">
<path d="M0.5 8C0.5 3.58172 4.08172 0 8.5 0H32.5C36.9183 0 40.5 3.58172 40.5 8V32C40.5 36.4183 36.9183 40 32.5 40H8.5C4.08172 40 0.5 36.4183 0.5 32V8Z" fill="#4FA6FF"/>
<path d="M27.074 21.711C27.3112 21.7079 27.5378 21.6123 27.7055 21.4445C27.8733 21.2768 27.9689 21.0502 27.972 20.813C27.972 20.315 27.573 19.915 27.074 19.915C26.575 19.915 26.176 20.315 26.176 20.813C26.176 21.313 26.576 21.711 27.074 21.711ZM22.649 21.711C22.8862 21.7079 23.1128 21.6123 23.2805 21.4445C23.4483 21.2768 23.5439 21.0502 23.547 20.813C23.547 20.315 23.147 19.915 22.649 19.915C22.149 19.915 21.751 20.315 21.751 20.813C21.751 21.313 22.15 21.711 22.649 21.711ZM29.216 26.751C29.1519 26.7866 29.1008 26.8416 29.0699 26.908C29.039 26.9745 29.0299 27.0491 29.044 27.121C29.044 27.169 29.044 27.218 29.069 27.268C29.167 27.685 29.363 28.349 29.363 28.374C29.363 28.447 29.388 28.496 29.388 28.546C29.388 28.575 29.3823 28.6037 29.3712 28.6304C29.36 28.6572 29.3437 28.6815 29.3232 28.7019C29.3027 28.7224 29.2783 28.7385 29.2515 28.7495C29.2247 28.7605 29.196 28.7661 29.167 28.766C29.117 28.766 29.093 28.742 29.044 28.718L27.595 27.882C27.4892 27.8238 27.3716 27.7903 27.251 27.784C27.178 27.784 27.104 27.784 27.055 27.808C26.367 28.005 25.655 28.103 24.894 28.103C21.234 28.103 18.287 25.646 18.287 22.598C18.287 19.551 21.234 17.093 24.894 17.093C28.553 17.093 31.5 19.551 31.5 22.598C31.5 24.245 30.616 25.744 29.216 26.752V26.751ZM25.173 16.099C25.0797 16.0959 24.9864 16.0942 24.893 16.094C20.719 16.094 17.287 18.954 17.287 22.599C17.287 23.153 17.367 23.689 17.515 24.199H17.426C16.5523 24.1902 15.6835 24.0664 14.842 23.831C14.768 23.806 14.694 23.806 14.62 23.806C14.4722 23.8091 14.3279 23.8516 14.202 23.929L12.454 24.934C12.404 24.959 12.355 24.984 12.306 24.984C12.2346 24.9832 12.1664 24.9545 12.1159 24.9041C12.0655 24.8536 12.0368 24.7854 12.036 24.714C12.036 24.64 12.06 24.591 12.085 24.517C12.109 24.493 12.331 23.683 12.454 23.193C12.454 23.143 12.478 23.07 12.478 23.021C12.4777 22.9353 12.4576 22.8508 12.4193 22.7741C12.381 22.6974 12.3254 22.6307 12.257 22.579C10.558 21.376 9.5 19.586 9.5 17.598C9.5 13.945 13.07 11 17.45 11C21.215 11 24.38 13.169 25.173 16.098V16.099ZM20.019 16.517C20.592 16.517 21.045 16.04 21.045 15.491C21.045 14.918 20.592 14.465 20.019 14.465C19.446 14.465 18.993 14.918 18.993 15.491C18.993 16.064 19.446 16.517 20.019 16.517ZM14.759 16.517C15.332 16.517 15.786 16.04 15.786 15.491C15.786 14.918 15.332 14.465 14.759 14.465C14.187 14.465 13.733 14.918 13.733 15.491C13.733 16.064 14.187 16.517 14.759 16.517Z" fill="#FCFCFC"/>
<path d="M50.5 8C50.5 3.58172 54.0817 0 58.5 0H82.5C86.9183 0 90.5 3.58172 90.5 8V32C90.5 36.4183 86.9183 40 82.5 40H58.5C54.0817 40 50.5 36.4183 50.5 32V8Z" fill="#4FA6FF"/>
<path d="M78.413 22.529C78.2077 21.8934 77.9826 21.2645 77.738 20.643L76.828 18.397C76.828 18.371 76.84 17.929 76.84 17.701C76.84 13.86 75.007 10 70.5 10C65.993 10 64.16 13.86 64.16 17.7C64.16 17.929 64.171 18.371 64.172 18.397L63.262 20.643C63.014 21.286 62.767 21.955 62.587 22.529C61.727 25.266 62.006 26.399 62.218 26.424C62.673 26.478 63.989 24.364 63.989 24.364C63.989 25.588 64.626 27.186 66.005 28.34C65.49 28.497 64.858 28.739 64.451 29.035C64.086 29.302 64.132 29.575 64.198 29.685C64.487 30.166 69.153 29.992 70.501 29.842C71.848 29.992 76.515 30.166 76.803 29.684C76.869 29.574 76.915 29.302 76.55 29.035C76.143 28.739 75.511 28.497 74.995 28.339C76.374 27.186 77.011 25.588 77.011 24.363C77.011 24.363 78.327 26.478 78.782 26.423C78.994 26.398 79.272 25.266 78.412 22.529" fill="#FCFCFC"/>
<path d="M100.5 8C100.5 3.58172 104.082 0 108.5 0H132.5C136.918 0 140.5 3.58172 140.5 8V32C140.5 36.4183 136.918 40 132.5 40H108.5C104.082 40 100.5 36.4183 100.5 32V8Z" fill="#4FA6FF"/>
<path d="M111.5 11H129.5C129.765 11 130.02 11.1054 130.207 11.2929C130.395 11.4804 130.5 11.7348 130.5 12V28C130.5 28.2652 130.395 28.5196 130.207 28.7071C130.02 28.8946 129.765 29 129.5 29H111.5C111.235 29 110.98 28.8946 110.793 28.7071C110.605 28.5196 110.5 28.2652 110.5 28V12C110.5 11.7348 110.605 11.4804 110.793 11.2929C110.98 11.1054 111.235 11 111.5 11ZM120.56 19.683L114.148 14.238L112.853 15.762L120.573 22.317L128.154 15.757L126.846 14.244L120.561 19.683H120.56Z" fill="#FCFCFC"/>
</svg>
