<svg width="70" height="36" viewBox="0 0 70 36" fill="none" xmlns="http://www.w3.org/2000/svg">
<g clip-path="url(#clip0)">
<path d="M10.1952 6.704C12.4138 6.704 14.2378 7.344 15.6672 8.624C17.0752 9.904 17.7792 11.5573 17.7792 13.584C17.7792 15.5253 17.0325 17.328 15.5392 18.992C14.7072 19.888 13.1285 21.1147 10.8032 22.672C8.47783 24.208 7.05916 25.552 6.54716 26.704H17.8112V30H1.87516C1.87516 27.6533 2.6325 25.6267 4.14716 23.92C4.97916 22.96 6.7285 21.5627 9.39516 19.728C10.7818 18.768 11.8272 17.9147 12.5312 17.168C13.5338 16.0373 14.0352 14.832 14.0352 13.552C14.0352 12.3147 13.7045 11.3867 13.0432 10.768C12.3818 10.1707 11.3898 9.872 10.0672 9.872C8.65916 9.872 7.60316 10.352 6.89916 11.312C6.19516 12.208 5.81116 13.5627 5.74716 15.376H2.00316C2.04583 12.816 2.7925 10.7573 4.24316 9.2C5.75783 7.536 7.74183 6.704 10.1952 6.704ZM30.0307 6.704C32.6973 6.704 34.7773 7.81333 36.2707 10.032C37.6787 12.144 38.3827 14.992 38.3827 18.576C38.3827 22.16 37.6787 25.008 36.2707 27.12C34.756 29.3387 32.676 30.448 30.0307 30.448C27.3427 30.448 25.2627 29.3387 23.7907 27.12C22.3827 25.008 21.6787 22.16 21.6787 18.576C21.6787 14.992 22.3827 12.144 23.7907 10.032C25.2413 7.81333 27.3213 6.704 30.0307 6.704ZM30.0307 9.872C28.196 9.872 26.916 10.8853 26.1907 12.912C25.6787 14.2773 25.4227 16.1653 25.4227 18.576C25.4227 20.944 25.6787 22.832 26.1907 24.24C26.9373 26.2667 28.2173 27.28 30.0307 27.28C31.8227 27.28 33.1027 26.2667 33.8707 24.24C34.3827 22.832 34.6387 20.944 34.6387 18.576C34.6387 16.1653 34.3827 14.2773 33.8707 12.912C33.1027 10.8853 31.8227 9.872 30.0307 9.872Z" fill="white"/>
<path fill-rule="evenodd" clip-rule="evenodd" d="M57.5544 10.168C57.3555 9.94405 57.0057 9.94405 56.8068 10.168L50.3723 17.4122C50.0858 17.7347 50.3148 18.2442 50.7461 18.2442H53.1807C53.4569 18.2442 53.6807 18.4681 53.6807 18.7442V24.9943C53.6807 25.2704 53.9046 25.4943 54.1807 25.4943H60.1807C60.4569 25.4943 60.6807 25.2704 60.6807 24.9943V18.7442C60.6807 18.4681 60.9046 18.2442 61.1807 18.2442H63.6151C64.0464 18.2442 64.2754 17.7347 63.9889 17.4122L57.5544 10.168L57.9283 9.83594L57.5544 10.168ZM56.0591 9.5039C56.6559 8.83207 57.7053 8.83208 58.3021 9.5039L64.7366 16.7481C65.5959 17.7155 64.9091 19.2442 63.6151 19.2442H61.6807V24.9943C61.6807 25.8227 61.0092 26.4943 60.1807 26.4943H54.1807C53.3523 26.4943 52.6807 25.8227 52.6807 24.9943V19.2442H50.7461C49.4521 19.2442 48.7653 17.7155 49.6246 16.7481L56.0591 9.5039Z" fill="white"/>
</g>
<defs>
<clipPath id="clip0">
<rect width="69" height="36" fill="white" transform="translate(0.243164)"/>
</clipPath>
</defs>
</svg>
