<svg width="313" height="122" viewBox="0 0 313 122" fill="none" xmlns="http://www.w3.org/2000/svg">
<rect x="22.8228" y="10.7586" width="4.89062" height="30.4828" rx="2.44531" fill="#4FA6FF"/>
<rect x="34.2344" width="4.89062" height="52" rx="2.44531" fill="#4FA6FF"/>
<rect x="45.646" y="7.17242" width="4.89062" height="37.6552" rx="2.44531" fill="#4FA6FF"/>
<rect x="57.0576" y="19.7241" width="4.89062" height="12.5517" rx="2.44531" fill="#4FA6FF"/>
<rect x="68.4688" y="16.1379" width="4.89062" height="19.7241" rx="2.44531" fill="#4FA6FF"/>
<rect x="79.8804" y="10.7586" width="4.89062" height="30.4828" rx="2.44531" fill="#4FA6FF"/>
<rect x="91.2915" y="1.79309" width="4.89062" height="48.4138" rx="2.44531" fill="#4FA6FF"/>
<rect x="102.703" y="17.931" width="4.89062" height="16.1379" rx="2.44531" fill="#4FA6FF"/>
<rect x="114.114" y="12.5517" width="4.89062" height="26.8965" rx="2.44531" fill="#4FA6FF"/>
<rect x="125.526" y="11.7182" width="4.89062" height="28.9116" rx="2.44531" fill="#4FA6FF"/>
<rect x="136.938" y="16.8173" width="4.89062" height="18.7075" rx="2.44531" fill="#4FA6FF"/>
<rect x="148.349" y="3.57922" width="4.89062" height="44.8276" rx="2.44531" fill="#4FA6FF"/>
<rect x="159.76" y="10.7516" width="4.89062" height="30.4828" rx="2.44531" fill="#4FA6FF"/>
<rect x="171.172" y="17.924" width="4.89062" height="16.1379" rx="2.44531" fill="#DDE1F0"/>
<rect x="182.583" y="7.16541" width="4.89062" height="37.6552" rx="2.44531" fill="#DDE1F0"/>
<rect x="193.995" y="10.7516" width="4.89062" height="30.4828" rx="2.44531" fill="#DDE1F0"/>
<rect x="205.406" y="16.1309" width="4.89062" height="19.7241" rx="2.44531" fill="#DDE1F0"/>
<rect x="216.818" y="19.7172" width="4.89062" height="12.5517" rx="2.44531" fill="#DDE1F0"/>
<rect x="228.229" y="7.16541" width="4.89062" height="37.6552" rx="2.44531" fill="#DDE1F0"/>
<rect x="239.641" y="12.5447" width="4.89062" height="26.8965" rx="2.44531" fill="#DDE1F0"/>
<rect x="251.052" y="3.57922" width="4.89062" height="44.8276" rx="2.44531" fill="#DDE1F0"/>
<rect x="262.463" y="14.3378" width="4.89062" height="23.3103" rx="2.44531" fill="#DDE1F0"/>
<rect x="273.875" y="5.37231" width="4.89062" height="41.2414" rx="2.44531" fill="#DDE1F0"/>
<rect x="285.286" y="14.3378" width="4.89062" height="23.3103" rx="2.44531" fill="#DDE1F0"/>
<rect x="296.698" y="7.16541" width="4.89062" height="37.6552" rx="2.44531" fill="#DDE1F0"/>
<rect x="308.109" y="16.1309" width="4.89062" height="19.7241" rx="2.44531" fill="#DDE1F0"/>
<rect x="11.4116" y="11.7182" width="4.89062" height="27.2109" rx="2.44531" fill="#4FA6FF"/>
<rect y="20.2214" width="4.89062" height="11.9048" rx="2.44531" fill="#4FA6FF"/>
<path d="M86.284 67.432C85.996 67.732 85.636 68.008 85.204 68.272C84.772 68.512 84.364 68.68 83.98 68.776V70.168C84.772 69.94 85.42 69.592 85.936 69.124V76H87.34V67.432H86.284ZM90.8159 74.188C90.5519 74.188 90.3239 74.272 90.1559 74.464C89.9639 74.644 89.8799 74.872 89.8799 75.136C89.8799 75.4 89.9639 75.616 90.1559 75.808C90.3239 75.976 90.5519 76.072 90.8159 76.072C91.0799 76.072 91.2959 75.976 91.4879 75.808C91.6679 75.616 91.7639 75.4 91.7639 75.136C91.7639 74.872 91.6679 74.644 91.4879 74.464C91.2959 74.272 91.0799 74.188 90.8159 74.188ZM94.8946 66.244L94.0426 67.048C94.8826 67.744 95.5306 68.404 95.9866 69.004L96.8626 68.14C96.3226 67.516 95.6626 66.88 94.8946 66.244ZM101.735 77.056H104.483L104.795 75.82C104.459 75.844 103.991 75.868 103.379 75.892C102.755 75.892 102.155 75.904 101.555 75.904C100.619 75.904 99.8146 75.892 99.1186 75.88C98.4106 75.856 97.8826 75.76 97.5226 75.58C97.2466 75.424 96.9706 75.184 96.6946 74.872L96.5626 74.74V70.18H93.8146V71.332H95.3986V74.62C94.9186 74.884 94.3906 75.496 93.7906 76.456L94.7146 77.32C95.3146 76.24 95.7226 75.7 95.9626 75.7C96.0946 75.7 96.2386 75.796 96.4066 76C96.7666 76.408 97.1866 76.684 97.6666 76.828C98.1706 76.948 98.8066 77.02 99.5866 77.032C100.355 77.044 101.075 77.056 101.735 77.056ZM100.523 66.112V67.504H99.3946C99.4906 67.204 99.5986 66.892 99.6946 66.556L98.4946 66.304C98.2306 67.312 97.7746 68.26 97.1266 69.148L98.2066 69.832C98.4466 69.484 98.6626 69.112 98.8786 68.704H100.523V70.108H97.4506V71.308H99.2266C99.1786 71.932 99.0706 72.46 98.9026 72.892C98.6146 73.552 98.0146 74.116 97.0786 74.572L97.8826 75.556C99.0226 74.956 99.7426 74.2 100.043 73.3C100.235 72.736 100.367 72.076 100.415 71.308H101.339V74.392C101.339 74.704 101.435 74.968 101.627 75.184C101.819 75.376 102.095 75.472 102.467 75.472H103.319C103.751 75.472 104.039 75.376 104.207 75.208C104.375 75.016 104.507 74.404 104.603 73.36L103.511 72.988C103.487 73.78 103.427 74.212 103.331 74.284C103.259 74.356 103.163 74.404 103.055 74.404H102.851C102.623 74.404 102.515 74.308 102.515 74.128V71.308H104.423V70.108H101.747V68.704H104.015V67.504H101.747V66.112H100.523ZM110.837 66.52V67.648H111.533C111.821 68.452 112.265 69.136 112.865 69.7C112.169 69.988 111.353 70.24 110.405 70.444L111.005 71.5C112.157 71.236 113.141 70.888 113.957 70.48C114.821 70.96 115.877 71.272 117.149 71.416L117.605 70.3C116.645 70.204 115.829 70.012 115.133 69.736C115.889 69.136 116.405 68.416 116.669 67.576V66.52H110.837ZM112.745 67.648H115.373C115.073 68.188 114.605 68.68 113.957 69.112C113.417 68.704 113.009 68.224 112.745 67.648ZM107.945 77.14C108.761 77.14 109.181 76.732 109.181 75.916V72.724C109.589 72.556 109.997 72.388 110.405 72.196V70.924C109.997 71.128 109.589 71.308 109.181 71.476V69.52H110.393V68.308H109.181V66.184H107.909V68.308H106.577V69.52H107.909V71.932C107.393 72.1 106.865 72.232 106.337 72.34L106.649 73.6C107.069 73.48 107.489 73.348 107.909 73.204V75.592C107.909 75.856 107.777 76 107.513 76C107.225 76 106.925 75.976 106.613 75.928L106.889 77.14H107.945ZM111.077 72.1V73.228H113.357V74.248H110.453V75.412H113.357V77.092H114.557V75.412H117.389V74.248H114.557V73.228H116.777V72.1H114.557V71.236H113.357V72.1H111.077ZM119.267 70.972V72.22H130.175V70.972H119.267ZM136.841 69.736V77.248H138.113V69.736H136.841ZM136.925 66.136C135.737 67.864 134.045 69.28 131.837 70.36L132.593 71.5C134.561 70.516 136.193 69.124 137.477 67.312C138.545 68.98 140.177 70.372 142.361 71.5L143.117 70.36C140.717 69.148 139.013 67.744 138.029 66.136H136.925ZM146.003 67.216V68.368H149.087V69.304H145.115V70.492H149.447C148.031 71.308 146.423 71.98 144.623 72.508L145.139 73.636C146.015 73.372 146.855 73.06 147.659 72.724L147.155 74.5H153.107C153.047 75.148 152.951 75.556 152.831 75.736C152.687 75.904 152.315 75.988 151.739 75.988C151.259 75.988 150.707 75.952 150.107 75.892L150.503 76.984C150.947 77.044 151.451 77.08 152.015 77.08C152.879 77.08 153.467 76.912 153.767 76.588C154.067 76.252 154.259 75.196 154.355 73.408H148.643L148.943 72.52H154.907V71.404H150.263C150.743 71.116 151.199 70.804 151.643 70.492H155.555V69.304H153.095C153.839 68.62 154.511 67.864 155.111 67.048L154.187 66.364C153.827 66.844 153.419 67.324 152.963 67.792V67.216H150.335V66.124H149.087V67.216H146.003ZM151.235 69.304H150.335V68.368H152.363C152.015 68.68 151.643 68.992 151.235 69.304ZM160.301 71.596C160.565 72.028 160.865 72.568 161.225 73.204L161.933 72.124C161.381 71.404 160.829 70.744 160.301 70.168V69.556H161.585V68.368H160.301V66.16H159.089V68.368H157.565V69.556H159.041C158.681 70.948 158.117 72.196 157.349 73.276L157.877 74.572C158.357 73.756 158.753 72.88 159.089 71.932V77.248H160.301V71.596ZM161.777 67.336V68.476H163.805C163.157 69.58 162.617 70.276 162.197 70.54C162.149 70.576 162.077 70.612 161.969 70.648L162.221 71.656L164.549 71.548C163.649 72.46 162.557 73.132 161.273 73.576L161.957 74.608C164.273 73.744 166.025 72.124 167.225 69.736L166.217 69.196C165.977 69.652 165.725 70.084 165.437 70.492C164.837 70.54 164.225 70.588 163.613 70.624C164.045 70.144 164.537 69.436 165.089 68.476H168.377V67.336H165.785C165.641 66.892 165.497 66.484 165.341 66.124L164.057 66.34C164.237 66.64 164.405 66.976 164.561 67.336H161.777ZM165.677 74.992C166.493 75.784 167.129 76.528 167.609 77.248L168.521 76.336C167.945 75.64 167.249 74.932 166.457 74.236C167.177 73.456 167.813 72.544 168.365 71.512L167.321 70.972C165.953 73.54 163.877 75.28 161.105 76.18L161.801 77.248C163.265 76.732 164.561 75.976 165.677 74.992ZM170.387 67.792V69.004H173.651C173.639 69.376 173.615 69.856 173.591 70.456C173.531 71.584 173.303 72.604 172.907 73.504C172.499 74.404 171.659 75.388 170.387 76.444L171.299 77.332C172.367 76.468 173.195 75.508 173.783 74.464C174.203 73.708 174.491 72.88 174.659 71.968H178.475C178.451 73.624 178.415 74.632 178.343 75.004C178.199 75.676 177.899 76.024 177.431 76.048C176.987 76.048 176.447 76.024 175.811 75.988L176.183 77.128C176.711 77.164 177.167 77.188 177.563 77.188C178.499 77.164 179.111 76.696 179.387 75.76C179.579 75.112 179.699 73.444 179.747 70.78H174.803C174.851 70.048 174.875 69.46 174.899 69.004H181.115V67.792H176.687C176.423 67.132 176.123 66.556 175.811 66.076L174.623 66.52C174.923 66.928 175.175 67.348 175.391 67.792H170.387ZM186.161 70.336V74.8H190.829V70.336H186.161ZM189.617 73.624H187.373V71.5H189.617V73.624ZM187.541 66.088C187.409 66.664 187.217 67.216 186.965 67.756H183.641V77.236H184.901V68.968H192.149V75.472C192.149 75.796 191.993 75.964 191.705 75.964L190.025 75.916L190.361 77.188H192.125C192.977 77.188 193.409 76.708 193.409 75.748V67.756H188.309C188.537 67.3 188.717 66.796 188.849 66.268L187.541 66.088ZM87.232 87.264C86.308 87.264 85.564 87.576 85 88.2C84.448 88.788 84.172 89.556 84.16 90.516H85.564C85.588 89.844 85.732 89.328 85.996 88.992C86.26 88.632 86.656 88.452 87.184 88.452C87.676 88.452 88.048 88.56 88.3 88.788C88.54 89.016 88.672 89.364 88.672 89.832C88.672 90.312 88.48 90.768 88.108 91.188C87.868 91.44 87.484 91.764 86.932 92.148C85.936 92.832 85.276 93.36 84.964 93.72C84.388 94.368 84.112 95.124 84.112 96H90.088V94.764H85.864C86.056 94.332 86.584 93.828 87.46 93.252C88.3 92.688 88.9 92.232 89.236 91.872C89.788 91.26 90.076 90.588 90.076 89.844C90.076 89.076 89.812 88.464 89.284 87.984C88.744 87.504 88.06 87.264 87.232 87.264ZM93.0893 94.188C92.8253 94.188 92.5973 94.272 92.4293 94.464C92.2373 94.644 92.1533 94.872 92.1533 95.136C92.1533 95.4 92.2373 95.616 92.4293 95.808C92.5973 95.976 92.8253 96.072 93.0893 96.072C93.3533 96.072 93.5693 95.976 93.7613 95.808C93.9413 95.616 94.0373 95.4 94.0373 95.136C94.0373 94.872 93.9413 94.644 93.7613 94.464C93.5693 94.272 93.3533 94.188 93.0893 94.188ZM102.016 92.196H103.156V93.42H102.016V92.196ZM101.932 94.488H103.156V97.032H104.296V94.488H105.508V95.784C105.508 95.952 105.424 96.048 105.256 96.048C105.016 96.048 104.764 96.024 104.5 95.988L104.8 97.116H105.604C106.312 97.116 106.672 96.804 106.672 96.192V88.884H104.872C105.172 88.572 105.472 88.212 105.772 87.804V86.928H103C103.096 86.76 103.18 86.592 103.276 86.4L102.064 86.124C101.416 87.396 100.66 88.38 99.796 89.076L100.564 90C100.66 89.916 100.768 89.832 100.864 89.736V93.384C100.84 94.608 100.564 95.616 100.024 96.408L100.936 97.224C101.452 96.48 101.788 95.568 101.932 94.488ZM103.528 88.884H101.692C101.92 88.596 102.148 88.296 102.376 87.972H104.308C104.044 88.308 103.792 88.62 103.528 88.884ZM105.508 93.42H104.296V92.196H105.508V93.42ZM105.508 91.116H104.296V89.976H105.508V91.116ZM103.156 89.976V91.116H102.016V89.976H103.156ZM96.244 86.688V87.888H97.432C97.156 89.46 96.628 90.888 95.848 92.16L96.568 93.324C96.712 93.108 96.844 92.892 96.988 92.664V96.852H98.164V96.072H100.132V90.252H98.08C98.32 89.508 98.512 88.728 98.656 87.888H100.36V86.688H96.244ZM98.164 94.932V91.404H99.004V94.932H98.164ZM111.154 86.028C110.602 87.876 109.738 89.484 108.586 90.84L108.994 92.184C109.354 91.8 109.702 91.392 110.026 90.984V97.272H111.298V89.04C111.73 88.26 112.078 87.444 112.342 86.592L111.154 86.028ZM112.774 86.628V90.684H115.066V91.632H111.874V92.856H113.974C113.338 93.96 112.534 94.848 111.55 95.544L112.258 96.672C113.338 95.76 114.25 94.488 114.97 92.856H115.066V97.26H116.314V92.856H116.398C117.094 94.368 117.982 95.64 119.05 96.66L119.866 95.568C118.81 94.788 117.994 93.888 117.406 92.856H119.626V91.632H116.314V90.684H118.63V86.628H112.774ZM117.406 89.484H113.998V87.828H117.406V89.484ZM126.532 87.924V88.692H124.504V89.724H126.532V90.612H124.18V91.692H130.072V90.612H127.744V89.724H129.712V88.692H127.744V87.924H126.532ZM131.812 86.52H122.452V91.368C122.428 93.408 122.092 95.088 121.444 96.408L122.404 97.272C123.244 95.736 123.676 93.732 123.7 91.272V87.672H130.564V95.664C130.564 95.928 130.42 96.072 130.132 96.072C129.676 96.072 129.196 96.048 128.68 96.012L129.004 97.212H130.504C131.368 97.212 131.812 96.84 131.812 96.108V86.52ZM124.504 92.328V95.508H129.628V92.328H124.504ZM128.428 94.428H125.704V93.372H128.428V94.428ZM136.498 88.644V89.7H139.078V90.324H137.002V91.356H139.078V91.98H136.318V93.036H139.078V95.436H140.302V93.036H141.97C141.946 93.492 141.91 93.768 141.85 93.864C141.778 93.96 141.598 94.02 141.334 94.02C141.13 94.02 140.89 93.996 140.614 93.96L140.962 94.98C141.154 95.016 141.322 95.04 141.466 95.04C142.15 95.028 142.594 94.86 142.798 94.524C142.99 94.188 143.098 93.336 143.122 91.98H140.302V91.356H142.474V90.324H140.302V89.7H142.978V88.644H140.302V87.936H139.078V88.644H136.498ZM144.826 86.532H134.674V97.26H135.874V96.84H143.626V97.26H144.826V86.532ZM135.874 95.736V87.636H143.626V95.736H135.874ZM155.968 89.976L155.104 90.516V89.124C155.272 88.692 155.428 88.26 155.572 87.804H157.672V86.604H151.456V87.804H154.372C153.7 89.82 152.536 91.548 150.892 92.988L151.66 93.984C152.512 93.216 153.256 92.352 153.88 91.416V97.236H155.104V90.732C155.944 91.872 156.616 92.916 157.12 93.852L158.176 93.12C157.648 92.232 156.916 91.176 155.968 89.976ZM147.268 90.384V91.572H148.468V94.272C147.952 94.392 147.436 94.5 146.908 94.584L147.22 95.784C148.6 95.472 149.908 95.088 151.132 94.632V93.432C150.652 93.612 150.172 93.78 149.692 93.936V91.572H150.928V90.384H149.692V88.152H151.096V86.952H147.088V88.152H148.468V90.384H147.268ZM163.69 86.952V87.984H164.674C164.794 88.284 164.914 88.608 165.022 88.944H163.33V89.988H170.626V88.944H168.742C168.874 88.632 168.994 88.32 169.09 87.984H170.278V86.952H167.506C167.422 86.616 167.338 86.304 167.242 86.028L165.91 86.244C166.006 86.46 166.114 86.7 166.21 86.952H163.69ZM167.542 88.944H166.21C166.114 88.608 166.006 88.284 165.91 87.984H167.938C167.842 88.308 167.71 88.632 167.542 88.944ZM163.978 90.456V94.488H165.106C164.974 94.872 164.758 95.184 164.458 95.424C164.038 95.748 163.354 96 162.406 96.168L162.874 97.296C164.062 97.008 164.902 96.636 165.406 96.156C165.838 95.724 166.126 95.16 166.282 94.488H167.242V95.952C167.242 96.72 167.614 97.104 168.358 97.104H169.642C170.026 97.104 170.314 97.02 170.506 96.852C170.698 96.684 170.83 96.132 170.914 95.208L169.786 94.86C169.762 95.436 169.726 95.772 169.666 95.88C169.606 95.976 169.534 96.036 169.438 96.036H168.682C168.538 96.036 168.466 95.916 168.466 95.7V94.488H169.906V90.456H163.978ZM168.754 93.48H165.118V92.892H168.754V93.48ZM165.118 92.04V91.44H168.754V92.04H165.118ZM163.402 93.216C162.97 93.42 162.526 93.6 162.094 93.768V90.156H162.994V88.944H162.094V86.196H160.834V88.944H159.718V90.156H160.834V94.176C160.45 94.284 160.066 94.38 159.682 94.452L160.018 95.832C161.218 95.46 162.346 95.016 163.402 94.488V93.216ZM174.628 89.496V91.128H173.812C174.076 90.444 174.316 89.664 174.544 88.788H176.812V87.588H174.832C174.916 87.18 175 86.76 175.084 86.328L173.896 86.148C173.8 86.652 173.716 87.132 173.62 87.588H172.468V88.788H173.344C173.092 89.736 172.828 90.528 172.552 91.152L172.816 92.256H174.628V93.72C173.944 93.84 173.224 93.936 172.456 94.032L172.624 95.256C173.32 95.16 173.98 95.052 174.628 94.932V97.236H175.84V94.68C176.272 94.584 176.704 94.476 177.112 94.356V93.18C176.704 93.276 176.284 93.384 175.84 93.48V92.256H176.824V91.872L177.808 92.568C177.976 92.352 178.132 92.124 178.3 91.872C178.492 92.868 178.888 93.768 179.464 94.56C178.744 95.328 177.784 95.88 176.596 96.204L177.292 97.308C178.516 96.948 179.524 96.36 180.316 95.52C181.024 96.204 181.924 96.78 183.016 97.248L183.664 96.12C182.62 95.688 181.756 95.148 181.084 94.512C181.576 93.72 181.936 92.76 182.152 91.644C182.32 91.92 182.476 92.196 182.62 92.472L183.616 91.776C183.16 90.96 182.524 90.012 181.696 88.92L180.736 89.52C181.216 90.192 181.648 90.84 182.032 91.452L181.012 91.248C180.856 92.112 180.592 92.868 180.22 93.528C179.752 92.844 179.464 92.076 179.344 91.236L178.552 91.476C178.912 90.876 179.248 90.204 179.56 89.484L178.516 88.98C178.036 90.084 177.472 91.044 176.824 91.848V91.128H175.84V89.496H174.628ZM177.208 87.552V88.776H183.376V87.552H180.796C180.628 87.024 180.448 86.556 180.256 86.148L178.996 86.364C179.2 86.724 179.38 87.12 179.548 87.552H177.208ZM187.126 86.412L186.178 87.096C186.826 87.768 187.354 88.392 187.75 88.944L188.734 88.272C188.35 87.732 187.822 87.108 187.126 86.412ZM191.47 91.452L190.462 92.088C191.206 93 191.806 93.828 192.25 94.572L193.354 93.804C192.91 93.132 192.286 92.352 191.47 91.452ZM189.49 86.136V87.948C189.478 88.296 189.454 88.644 189.43 88.992H185.71V90.216H189.298C189.142 91.296 188.89 92.232 188.554 93.036C187.99 94.26 186.91 95.28 185.302 96.096L186.01 97.212C187.63 96.456 188.794 95.376 189.502 93.984C190.006 92.976 190.354 91.716 190.558 90.216H194.278C194.278 91.632 194.242 92.952 194.17 94.152C194.098 95.352 193.81 95.976 193.318 96.024C192.754 96.024 192.13 95.976 191.458 95.904L191.794 97.116C192.226 97.164 192.754 97.188 193.378 97.188C194.194 97.188 194.77 96.696 195.094 95.736C195.406 94.776 195.562 92.52 195.562 88.992H190.678C190.702 88.656 190.714 88.308 190.726 87.948V86.136H189.49ZM208.672 87.204H204.172C204.004 86.772 203.848 86.388 203.68 86.04L202.264 86.28C202.444 86.568 202.612 86.868 202.756 87.204H198.316V89.964H199.588V88.416H207.4V89.976H208.672V87.204ZM198.172 90.528V91.728H200.812C200.452 92.376 200.068 93.012 199.66 93.66C200.728 93.996 201.796 94.392 202.852 94.836C201.652 95.676 200.08 96.096 198.136 96.096L198.868 97.26C201.04 97.2 202.804 96.588 204.16 95.412C205.384 95.964 206.596 96.6 207.808 97.32L208.66 96.216C207.424 95.544 206.224 94.968 205.06 94.476C205.6 93.78 206.104 92.868 206.572 91.728H208.852V90.528H202.96L203.716 89.088L202.42 88.692C202.12 89.292 201.808 89.904 201.472 90.528H198.172ZM202.288 91.728H205.192C204.832 92.592 204.376 93.348 203.824 93.972C203.008 93.66 202.204 93.384 201.424 93.168C201.688 92.748 201.976 92.268 202.288 91.728ZM212.818 86.136V86.808H210.994V87.816H212.818V88.32H211.282V89.304H212.818V89.82H210.814V90.864H215.95V89.82H214.03V89.304H215.506V88.32H214.03V87.816H215.734V86.808H214.03V86.136H212.818ZM212.47 93.876H214.402V94.44H212.47V93.876ZM214.402 92.94H212.47V92.34H214.402V92.94ZM212.47 95.376H214.402V95.94C214.402 96.072 214.33 96.144 214.21 96.144L213.514 96.096L213.802 97.164H214.546C215.218 97.164 215.566 96.828 215.566 96.18V91.332H211.27V97.224H212.47V95.376ZM217.69 86.04C217.102 87.048 216.418 87.816 215.626 88.356L216.346 89.208V90H217.906V91.02H215.962V92.172H217.906V93.204H216.274V94.38H217.906V95.652C217.906 95.928 217.774 96.072 217.51 96.072C217.186 96.072 216.85 96.036 216.514 95.988L216.766 97.164H217.942C218.722 97.164 219.118 96.756 219.118 95.952V94.38H221.278V92.172H221.77V91.02H221.278V88.836H220.03C220.306 88.476 220.582 88.068 220.858 87.6V86.748H218.602C218.686 86.604 218.77 86.46 218.866 86.304L217.69 86.04ZM219.118 90H220.078V91.02H219.118V90ZM219.118 92.172H220.078V93.204H219.118V92.172ZM216.886 88.836C217.246 88.512 217.582 88.152 217.906 87.756H219.454C219.166 88.164 218.878 88.524 218.602 88.836H216.886ZM87.184 107.264C86.344 107.264 85.648 107.492 85.108 107.972C84.532 108.452 84.22 109.124 84.148 109.988H85.528C85.576 109.472 85.744 109.088 86.032 108.836C86.308 108.584 86.692 108.464 87.196 108.464C87.688 108.464 88.06 108.572 88.312 108.788C88.54 109.004 88.66 109.316 88.66 109.736C88.66 110.156 88.528 110.48 88.276 110.696C88.012 110.912 87.628 111.02 87.124 111.02H86.524V112.076H87.124C87.676 112.076 88.096 112.184 88.384 112.424C88.672 112.652 88.828 113.012 88.828 113.504C88.828 113.912 88.684 114.248 88.408 114.524C88.096 114.824 87.664 114.98 87.124 114.98C86.632 114.98 86.236 114.836 85.936 114.56C85.6 114.26 85.432 113.828 85.408 113.276H83.98C84.052 114.236 84.388 114.98 84.988 115.484C85.528 115.94 86.248 116.168 87.136 116.168C88.072 116.168 88.828 115.904 89.404 115.388C89.956 114.884 90.232 114.236 90.232 113.444C90.232 112.94 90.088 112.52 89.8 112.196C89.536 111.884 89.14 111.656 88.636 111.5C89.584 111.188 90.064 110.564 90.064 109.628C90.064 108.884 89.8 108.308 89.284 107.888C88.756 107.468 88.048 107.264 87.184 107.264ZM94.4453 114.176C93.9773 114.176 93.5813 114.32 93.2573 114.632C92.9213 114.944 92.7653 115.328 92.7653 115.796C92.7653 116.252 92.9213 116.648 93.2573 116.96C93.5813 117.26 93.9773 117.416 94.4453 117.416C94.9013 117.416 95.2973 117.26 95.6333 116.948C95.9573 116.636 96.1253 116.252 96.1253 115.796C96.1253 115.34 95.9573 114.956 95.6333 114.644C95.2973 114.332 94.9013 114.176 94.4453 114.176ZM94.4453 115.016C94.6613 115.016 94.8413 115.088 95.0093 115.244C95.1653 115.388 95.2493 115.58 95.2493 115.796C95.2493 116.012 95.1653 116.192 95.0093 116.348C94.8413 116.492 94.6613 116.576 94.4453 116.576C94.2293 116.576 94.0373 116.492 93.8813 116.348C93.7133 116.192 93.6413 116.012 93.6413 115.796C93.6413 115.58 93.7133 115.388 93.8813 115.244C94.0373 115.088 94.2293 115.016 94.4453 115.016ZM115.379 107.288H110.831C110.711 106.868 110.579 106.484 110.447 106.136L109.019 106.376C109.163 106.652 109.295 106.952 109.415 107.288H104.987V110.18H106.247V108.5H114.119V110.18H115.379V107.288ZM106.751 109.556V110.756H113.591V109.556H106.751ZM104.927 111.776V112.988H108.035C107.987 113.816 107.747 114.488 107.303 115.016C106.859 115.496 105.995 115.892 104.711 116.216L105.431 117.344C106.751 116.984 107.699 116.468 108.287 115.82C108.887 115.112 109.223 114.164 109.283 112.988H110.999V115.616C110.999 116.6 111.431 117.092 112.295 117.092H114.395C114.791 117.092 115.091 116.972 115.283 116.756C115.499 116.528 115.643 115.796 115.727 114.572L114.539 114.2C114.515 115.016 114.467 115.508 114.419 115.664C114.359 115.82 114.275 115.904 114.155 115.904H112.679C112.391 115.904 112.247 115.724 112.247 115.364V112.988H115.475V111.776H104.927ZM126.053 106.04L125.261 106.796C125.729 107.156 126.113 107.516 126.413 107.852H124.721C124.697 107.3 124.685 106.724 124.685 106.112H123.413C123.413 106.712 123.413 107.3 123.437 107.852H118.493V111.848C118.457 113.792 118.073 115.316 117.329 116.408L118.277 117.26C119.201 115.904 119.693 114.116 119.753 111.884H121.445C121.421 113.108 121.385 113.864 121.313 114.14C121.253 114.38 121.121 114.5 120.929 114.512C120.593 114.512 120.197 114.488 119.717 114.452L120.101 115.592C120.461 115.628 120.785 115.652 121.073 115.652C121.721 115.64 122.141 115.388 122.333 114.884C122.537 114.332 122.657 112.94 122.693 110.708H119.753V109.04H123.497C123.593 110.48 123.761 111.692 124.025 112.652C124.157 113.144 124.301 113.6 124.469 114.02C123.677 114.98 122.717 115.712 121.589 116.216L122.309 117.272C123.341 116.816 124.253 116.156 125.045 115.292C125.189 115.556 125.357 115.796 125.525 116.012C126.113 116.72 126.665 117.08 127.193 117.08C127.793 117.08 128.237 116.228 128.549 114.536L127.421 113.924C127.265 115.076 127.121 115.652 127.001 115.652C126.821 115.652 126.557 115.388 126.221 114.872C126.101 114.692 125.981 114.476 125.873 114.236C126.605 113.168 127.205 111.872 127.673 110.348L126.533 109.856C126.221 110.936 125.825 111.908 125.345 112.748C125.297 112.58 125.249 112.424 125.213 112.256C125.021 111.512 124.877 110.432 124.781 109.04H128.309V107.852H126.881L127.433 107.288C127.049 106.868 126.593 106.448 126.053 106.04ZM131.135 106.316L130.295 107.12C131.027 107.708 131.591 108.26 131.975 108.764L132.791 107.948C132.335 107.408 131.783 106.868 131.135 106.316ZM130.943 109.256L130.103 110.06C130.811 110.684 131.363 111.272 131.747 111.824L132.551 111.008C132.119 110.432 131.579 109.844 130.943 109.256ZM131.663 112.556C131.231 113.936 130.739 115.292 130.163 116.624L131.291 117.116C131.819 115.82 132.287 114.44 132.719 112.976L131.663 112.556ZM137.351 106.7H132.995V114.224H134.099V107.768H136.247V114.152H137.351V106.7ZM136.067 114.608L135.323 115.34C136.031 116.024 136.571 116.66 136.955 117.26L137.795 116.432C137.315 115.832 136.739 115.22 136.067 114.608ZM134.663 108.404V112.16C134.627 113.216 134.459 114.068 134.171 114.716C133.871 115.316 133.295 115.832 132.443 116.24L133.091 117.284C133.979 116.864 134.627 116.264 135.023 115.496C135.431 114.656 135.647 113.552 135.695 112.16V108.404H134.663ZM139.763 117.152C140.507 117.152 140.879 116.744 140.879 115.94V106.22H139.703V115.64C139.703 115.928 139.583 116.084 139.355 116.084C138.983 116.084 138.587 116.048 138.179 116L138.443 117.152H139.763ZM137.963 107.204V114.596H139.055V107.204H137.963ZM147.893 112.064V115.124L146.849 115.268L147.161 116.468C148.337 116.264 149.453 116.012 150.497 115.724V114.56C150.041 114.68 149.585 114.8 149.117 114.896V112.064H150.113V110.9H146.909V112.064H147.893ZM152.633 117.176C153.209 117.176 153.725 116.288 154.157 114.536L153.173 113.744C152.981 115.088 152.801 115.772 152.633 115.808C152.333 115.736 152.069 115.016 151.829 113.648C151.673 112.556 151.565 111.14 151.517 109.388H153.737V108.164H151.493C151.469 107.516 151.469 106.832 151.469 106.1H150.245C150.245 106.808 150.245 107.492 150.269 108.164H146.633V109.388H150.305C150.353 110.9 150.449 112.184 150.593 113.228C150.761 114.452 151.049 115.448 151.445 116.216C151.781 116.852 152.177 117.176 152.633 117.176ZM152.465 106.088L151.613 106.628C152.093 107.18 152.465 107.672 152.753 108.128L153.617 107.528C153.341 107.12 152.957 106.64 152.465 106.088ZM144.581 106.22L143.693 107.084C144.497 107.708 145.121 108.296 145.565 108.848L146.417 107.972C145.913 107.396 145.301 106.808 144.581 106.22ZM142.877 109.688V110.888H144.449V115.172C144.449 115.412 144.341 115.628 144.125 115.796L144.605 116.924C145.361 116.36 146.081 115.724 146.753 115.004L146.429 113.684C146.153 113.972 145.889 114.248 145.649 114.512V109.688H142.877ZM155.831 111.764V112.82H160.319L160.043 113.408H156.815V117.284H158.003V114.464H159.407V117.116H160.595V114.464H161.951V117.116H163.151V114.464H164.663V115.82C164.663 116.084 164.543 116.216 164.303 116.216L163.523 116.168L163.811 117.236H164.651C165.455 117.236 165.863 116.84 165.863 116.072V113.408H161.315L161.591 112.82H166.559V111.764H155.831ZM156.563 106.472V107.48H160.583V107.96H156.023V110.588H157.223V108.908H160.583V111.404H161.807V108.908H165.167V110.588H166.367V107.96H161.807V107.48H165.839V106.472H156.563ZM157.631 109.352V110.132H160.151V109.352H157.631ZM157.631 110.528V111.308H160.151V110.528H157.631ZM162.227 109.352V110.132H164.735V109.352H162.227ZM162.239 110.528V111.308H164.771V110.528H162.239ZM168.593 106.52V107.648H172.001V108.44H169.301V111.68H172.289C172.145 111.92 171.989 112.172 171.845 112.436H168.437V113.588H171.125C170.885 113.96 170.633 114.332 170.369 114.716C171.257 114.92 172.145 115.148 173.045 115.412C171.989 115.736 170.561 116 168.737 116.192L169.205 117.32C171.773 116.972 173.609 116.516 174.737 115.94C175.997 116.348 177.257 116.828 178.517 117.356L179.297 116.324C178.121 115.88 176.981 115.496 175.853 115.16C176.357 114.704 176.729 114.188 176.957 113.588H179.441V112.436H173.273L173.705 111.68H178.589V108.44H175.889V107.648H179.297V106.52H168.593ZM174.509 114.776C173.705 114.56 172.913 114.368 172.145 114.212C172.265 114.02 172.409 113.816 172.565 113.588H175.661C175.421 114.044 175.037 114.44 174.509 114.776ZM174.701 108.44H173.189V107.648H174.701V108.44ZM177.389 110.624H175.889V109.496H177.389V110.624ZM174.701 110.624H173.189V109.496H174.701V110.624ZM172.001 110.624H170.501V109.496H172.001V110.624ZM181.799 107.432L181.331 112.256H182.639C182.807 111.956 183.035 111.74 183.335 111.596C183.599 111.464 183.923 111.404 184.295 111.404C184.847 111.404 185.279 111.56 185.567 111.896C185.855 112.22 186.011 112.676 186.011 113.252C186.011 113.78 185.831 114.2 185.495 114.512C185.147 114.824 184.715 114.98 184.211 114.98C183.743 114.98 183.371 114.872 183.107 114.68C182.795 114.452 182.615 114.104 182.555 113.636H181.175C181.235 114.428 181.571 115.064 182.195 115.532C182.747 115.952 183.419 116.168 184.199 116.168C185.051 116.168 185.783 115.916 186.407 115.412C187.079 114.848 187.415 114.128 187.415 113.24C187.415 112.316 187.151 111.584 186.647 111.056C186.143 110.528 185.483 110.264 184.679 110.264C184.295 110.264 183.947 110.324 183.635 110.444C183.287 110.564 182.987 110.756 182.723 111.02H182.687L182.927 108.668H187.019V107.432H181.799ZM189.241 112.328V113.456H195.301V112.328H189.241ZM200.256 107.264C199.332 107.264 198.6 107.504 198.06 107.996C197.568 108.428 197.328 108.968 197.328 109.616C197.328 110.048 197.424 110.42 197.616 110.72C197.82 111.032 198.132 111.284 198.564 111.452V111.476C198.156 111.584 197.82 111.824 197.532 112.196C197.196 112.604 197.04 113.072 197.04 113.6C197.04 114.368 197.316 114.98 197.88 115.46C198.432 115.928 199.224 116.168 200.256 116.168C201.276 116.168 202.068 115.928 202.632 115.46C203.184 114.98 203.472 114.368 203.472 113.6C203.472 113.072 203.304 112.604 202.98 112.196C202.692 111.824 202.344 111.584 201.948 111.476V111.452C202.368 111.284 202.68 111.032 202.896 110.72C203.088 110.42 203.184 110.048 203.184 109.616C203.184 108.968 202.932 108.428 202.452 107.996C201.9 107.504 201.168 107.264 200.256 107.264ZM200.256 108.38C200.76 108.38 201.156 108.512 201.468 108.788C201.732 109.028 201.864 109.316 201.864 109.664C201.864 110.06 201.756 110.372 201.54 110.6C201.276 110.876 200.844 111.02 200.256 111.02C199.656 111.02 199.236 110.876 198.972 110.6C198.756 110.372 198.648 110.06 198.648 109.664C198.648 109.316 198.78 109.028 199.044 108.788C199.344 108.512 199.752 108.38 200.256 108.38ZM200.256 112.064C200.856 112.064 201.312 112.208 201.636 112.508C201.924 112.772 202.08 113.144 202.08 113.6C202.08 114.032 201.924 114.368 201.624 114.632C201.288 114.896 200.832 115.04 200.256 115.04C199.668 115.04 199.224 114.908 198.912 114.644C198.588 114.38 198.432 114.032 198.432 113.6C198.432 113.144 198.576 112.772 198.888 112.496C199.2 112.208 199.656 112.064 200.256 112.064ZM208.742 106.352C208.25 107.264 207.734 108.02 207.194 108.644C206.522 109.4 205.802 109.976 205.058 110.384L205.742 111.5C206.798 110.744 207.59 110.06 208.142 109.436C208.706 108.812 209.27 107.996 209.822 107.012L208.742 106.352ZM209.066 111.992C208.826 112.952 208.49 113.732 208.07 114.332C207.518 115.028 206.702 115.664 205.622 116.24L206.438 117.284C207.662 116.588 208.586 115.796 209.21 114.92C209.69 114.188 210.062 113.216 210.338 111.992H212.93C212.882 113.648 212.75 114.728 212.558 115.232C212.366 115.712 211.982 115.964 211.394 115.964C210.77 115.964 210.098 115.94 209.39 115.916L209.726 117.152H212.03C212.642 117.116 213.086 116.912 213.362 116.552C213.65 116.168 213.842 115.508 213.962 114.548C214.082 113.588 214.154 112.34 214.202 110.78H206.906V111.992H209.066ZM212.498 106.208L211.406 106.82C212.138 108.716 213.434 110.252 215.282 111.44L216.134 110.444C214.358 109.412 213.146 107.996 212.498 106.208ZM219.308 106.172C218.996 107.54 218.456 108.836 217.688 110.06L218.684 110.696C218.816 110.48 218.948 110.252 219.092 110.012V110.924H219.668V112.052H218.144V113.204H219.668V115.46C219.668 115.676 219.512 115.832 219.2 115.94L219.692 116.984C220.808 116.696 221.792 116.348 222.644 115.916L222.44 114.824C221.924 115.112 221.408 115.34 220.892 115.52V113.204H222.272V112.052H220.892V110.924H222.044V109.796H219.212C219.416 109.4 219.608 108.98 219.8 108.536H222.188V107.396H220.208C220.304 107.096 220.388 106.772 220.484 106.424L219.308 106.172ZM224.984 106.184V108.188H222.716V113.84H223.868V113.276H224.984V117.284H226.22V113.276H227.384V113.84H228.56V108.188H226.22V106.184H224.984ZM223.868 112.148V109.34H224.984V112.148H223.868ZM226.22 112.148V109.34H227.384V112.148H226.22Z" fill="#4FA6FF"/>
</svg>
