<svg width="237" height="30" viewBox="0 0 237 30" fill="none" xmlns="http://www.w3.org/2000/svg">
<path fill-rule="evenodd" clip-rule="evenodd" d="M98.638 1.82213C98.638 0.973518 99.326 0.285583 100.175 0.285583C101.023 0.285583 101.711 0.973518 101.711 1.82213V28.4632C101.711 29.3118 101.023 29.9998 100.175 29.9998C99.326 29.9998 98.638 29.3118 98.638 28.4632V1.82213ZM92.4917 3.30107C92.4917 2.45246 93.1796 1.76452 94.0283 1.76452C94.8769 1.76452 95.5648 2.45246 95.5648 3.30107V28.4632C95.5648 29.3118 94.8769 29.9997 94.0283 29.9997C93.1796 29.9997 92.4917 29.3118 92.4917 28.4632V3.30107ZM86.3452 27.7712C86.3452 26.9226 87.0331 26.2347 87.8818 26.2347C88.7304 26.2347 89.4183 26.9226 89.4183 27.7712V28.4628C89.4183 29.3114 88.7304 29.9994 87.8818 29.9994C87.0331 29.9994 86.3452 29.3114 86.3452 28.4628V27.7712ZM173.929 26.2347C173.08 26.2347 172.392 26.9226 172.392 27.7712V28.4628C172.392 29.3114 173.08 29.9994 173.929 29.9994C174.777 29.9994 175.465 29.3114 175.465 28.4628V27.7712C175.465 26.9226 174.777 26.2347 173.929 26.2347ZM178.538 27.7712C178.538 26.9226 179.226 26.2347 180.075 26.2347C180.923 26.2347 181.611 26.9226 181.611 27.7712V28.4628C181.611 29.3114 180.923 29.9994 180.075 29.9994C179.226 29.9994 178.538 29.3114 178.538 28.4628V27.7712ZM186.221 26.2347C185.372 26.2347 184.685 26.9226 184.685 27.7712V28.4628C184.685 29.3114 185.372 29.9994 186.221 29.9994C187.07 29.9994 187.758 29.3114 187.758 28.4628V27.7712C187.758 26.9226 187.07 26.2347 186.221 26.2347ZM190.831 27.7712C190.831 26.9226 191.519 26.2347 192.368 26.2347C193.216 26.2347 193.904 26.9226 193.904 27.7712V28.4628C193.904 29.3114 193.216 29.9994 192.368 29.9994C191.519 29.9994 190.831 29.3114 190.831 28.4628V27.7712ZM198.514 26.2347C197.665 26.2347 196.977 26.9226 196.977 27.7712V28.4628C196.977 29.3114 197.665 29.9994 198.514 29.9994C199.362 29.9994 200.05 29.3114 200.05 28.4628V27.7712C200.05 26.9226 199.362 26.2347 198.514 26.2347ZM203.123 27.7712C203.123 26.9226 203.811 26.2347 204.66 26.2347C205.508 26.2347 206.196 26.9226 206.196 27.7712V28.4628C206.196 29.3114 205.508 29.9994 204.66 29.9994C203.811 29.9994 203.123 29.3114 203.123 28.4628V27.7712ZM210.806 26.2347C209.957 26.2347 209.269 26.9226 209.269 27.7712V28.4628C209.269 29.3114 209.957 29.9994 210.806 29.9994C211.654 29.9994 212.342 29.3114 212.342 28.4628V27.7712C212.342 26.9226 211.654 26.2347 210.806 26.2347ZM215.416 27.7712C215.416 26.9226 216.103 26.2347 216.952 26.2347C217.801 26.2347 218.489 26.9226 218.489 27.7712V28.4628C218.489 29.3114 217.801 29.9994 216.952 29.9994C216.103 29.9994 215.416 29.3114 215.416 28.4628V27.7712ZM223.099 26.2347C222.25 26.2347 221.562 26.9226 221.562 27.7712V28.4628C221.562 29.3114 222.25 29.9994 223.099 29.9994C223.947 29.9994 224.635 29.3114 224.635 28.4628V27.7712C224.635 26.9226 223.947 26.2347 223.099 26.2347ZM227.708 27.7712C227.708 26.9226 228.396 26.2347 229.245 26.2347C230.093 26.2347 230.781 26.9226 230.781 27.7712V28.4628C230.781 29.3114 230.093 29.9994 229.245 29.9994C228.396 29.9994 227.708 29.3114 227.708 28.4628V27.7712ZM235.391 26.2347C234.542 26.2347 233.854 26.9226 233.854 27.7712V28.4628C233.854 29.3114 234.542 29.9994 235.391 29.9994C236.239 29.9994 236.927 29.3114 236.927 28.4628V27.7712C236.927 26.9226 236.239 26.2347 235.391 26.2347ZM80.1992 27.7712C80.1992 26.9226 80.8872 26.2347 81.7358 26.2347C82.5844 26.2347 83.2723 26.9226 83.2723 27.7712V28.4628C83.2723 29.3114 82.5844 29.9994 81.7358 29.9994C80.8872 29.9994 80.1992 29.3114 80.1992 28.4628V27.7712ZM75.5888 26.2347C74.7402 26.2347 74.0522 26.9226 74.0522 27.7712V28.4628C74.0522 29.3114 74.7402 29.9994 75.5888 29.9994C76.4374 29.9994 77.1253 29.3114 77.1253 28.4628V27.7712C77.1253 26.9226 76.4374 26.2347 75.5888 26.2347ZM67.9072 27.7712C67.9072 26.9226 68.5952 26.2347 69.4438 26.2347C70.2924 26.2347 70.9803 26.9226 70.9803 27.7712V28.4628C70.9803 29.3114 70.2924 29.9994 69.4438 29.9994C68.5952 29.9994 67.9072 29.3114 67.9072 28.4628V27.7712ZM63.2973 26.2347C62.4487 26.2347 61.7607 26.9226 61.7607 27.7712V28.4628C61.7607 29.3114 62.4487 29.9994 63.2973 29.9994C64.1459 29.9994 64.8338 29.3114 64.8338 28.4628V27.7712C64.8338 26.9226 64.1459 26.2347 63.2973 26.2347ZM55.6143 27.7712C55.6143 26.9226 56.3022 26.2347 57.1508 26.2347C57.9994 26.2347 58.6873 26.9226 58.6873 27.7712V28.4628C58.6873 29.3114 57.9994 29.9994 57.1508 29.9994C56.3022 29.9994 55.6143 29.3114 55.6143 28.4628V27.7712ZM51.0048 26.2347C50.1562 26.2347 49.4683 26.9226 49.4683 27.7712V28.4628C49.4683 29.3114 50.1562 29.9994 51.0048 29.9994C51.8534 29.9994 52.5414 29.3114 52.5414 28.4628V27.7712C52.5414 26.9226 51.8534 26.2347 51.0048 26.2347ZM43.3213 27.7712C43.3213 26.9226 44.0092 26.2347 44.8578 26.2347C45.7064 26.2347 46.3944 26.9226 46.3944 27.7712V28.4628C46.3944 29.3114 45.7064 29.9994 44.8578 29.9994C44.0092 29.9994 43.3213 29.3114 43.3213 28.4628V27.7712ZM38.7128 26.2347C37.8642 26.2347 37.1763 26.9226 37.1763 27.7712V28.4628C37.1763 29.3114 37.8642 29.9994 38.7128 29.9994C39.5614 29.9994 40.2494 29.3114 40.2494 28.4628V27.7712C40.2494 26.9226 39.5614 26.2347 38.7128 26.2347ZM31.0298 27.7712C31.0298 26.9226 31.7177 26.2347 32.5663 26.2347C33.4149 26.2347 34.1029 26.9226 34.1029 27.7712V28.4628C34.1029 29.3114 33.4149 29.9994 32.5663 29.9994C31.7177 29.9994 31.0298 29.3114 31.0298 28.4628V27.7712ZM26.4198 26.2347C25.5712 26.2347 24.8833 26.9226 24.8833 27.7712V28.4628C24.8833 29.3114 25.5712 29.9994 26.4198 29.9994C27.2685 29.9994 27.9564 29.3114 27.9564 28.4628V27.7712C27.9564 26.9226 27.2685 26.2347 26.4198 26.2347ZM18.7368 27.7712C18.7368 26.9226 19.4248 26.2347 20.2734 26.2347C21.122 26.2347 21.8099 26.9226 21.8099 27.7712V28.4628C21.8099 29.3114 21.122 29.9994 20.2734 29.9994C19.4248 29.9994 18.7368 29.3114 18.7368 28.4628V27.7712ZM14.1269 26.2347C13.2783 26.2347 12.5903 26.9226 12.5903 27.7712V28.4628C12.5903 29.3114 13.2783 29.9994 14.1269 29.9994C14.9755 29.9994 15.6634 29.3114 15.6634 28.4628V27.7712C15.6634 26.9226 14.9755 26.2347 14.1269 26.2347ZM6.44531 27.7712C6.44531 26.9226 7.13325 26.2347 7.98187 26.2347C8.83048 26.2347 9.51842 26.9226 9.51842 27.7712V28.4628C9.51842 29.3114 8.83048 29.9994 7.98187 29.9994C7.13325 29.9994 6.44531 29.3114 6.44531 28.4628V27.7712ZM1.83538 26.2347C0.986765 26.2347 0.298828 26.9226 0.298828 27.7712V28.4628C0.298828 29.3114 0.986765 29.9994 1.83538 29.9994C2.68399 29.9994 3.37193 29.3114 3.37193 28.4628V27.7712C3.37193 26.9226 2.68399 26.2347 1.83538 26.2347ZM106.32 3.64684C105.472 3.64684 104.784 4.33477 104.784 5.18338V28.4631C104.784 29.3117 105.472 29.9997 106.32 29.9997C107.169 29.9997 107.857 29.3118 107.857 28.4631V5.18338C107.857 4.33477 107.169 3.64684 106.32 3.64684ZM110.93 10.8304C110.93 9.98174 111.618 9.2938 112.467 9.2938C113.315 9.2938 114.003 9.98174 114.003 10.8304V28.4631C114.003 29.3117 113.315 29.9996 112.467 29.9996C111.618 29.9996 110.93 29.3117 110.93 28.4631V10.8304ZM118.613 22.4705C117.764 22.4705 117.076 23.1585 117.076 24.0071V28.4634C117.076 29.312 117.764 29.9999 118.613 29.9999C119.461 29.9999 120.149 29.312 120.149 28.4634V24.0071C120.149 23.1585 119.461 22.4705 118.613 22.4705ZM123.223 25.8894C123.223 25.0408 123.911 24.3529 124.759 24.3529C125.608 24.3529 126.296 25.0408 126.296 25.8894V28.4633C126.296 29.312 125.608 29.9999 124.759 29.9999C123.911 29.9999 123.223 29.312 123.223 28.4633V25.8894ZM130.906 3.64684C130.057 3.64684 129.369 4.33478 129.369 5.18339V28.4631C129.369 29.3117 130.057 29.9997 130.906 29.9997C131.754 29.9997 132.442 29.3117 132.442 28.4631V5.18339C132.442 4.33478 131.754 3.64684 130.906 3.64684ZM135.515 8.94803C135.515 8.09942 136.203 7.41148 137.051 7.41148C137.9 7.41148 138.588 8.09942 138.588 8.94803V28.4631C138.588 29.3117 137.9 29.9996 137.051 29.9996C136.203 29.9996 135.515 29.3117 135.515 28.4631V8.94803ZM143.198 1.76452C142.349 1.76452 141.661 2.45246 141.661 3.30107V28.4632C141.661 29.3118 142.349 29.9997 143.198 29.9997C144.046 29.9997 144.734 29.3118 144.734 28.4632V3.30107C144.734 2.45246 144.046 1.76452 143.198 1.76452ZM147.807 14.595C147.807 13.7464 148.495 13.0584 149.344 13.0584C150.192 13.0584 150.88 13.7464 150.88 14.595V28.463C150.88 29.3116 150.192 29.9996 149.344 29.9996C148.495 29.9996 147.807 29.3116 147.807 28.463V14.595ZM155.49 20.5882C154.642 20.5882 153.954 21.2761 153.954 22.1248V28.4634C153.954 29.312 154.642 29.9999 155.49 29.9999C156.339 29.9999 157.027 29.312 157.027 28.4634V22.1248C157.027 21.2761 156.339 20.5882 155.49 20.5882ZM160.1 22.1248C160.1 21.2761 160.788 20.5882 161.637 20.5882C162.485 20.5882 163.173 21.2762 163.173 22.1248V28.4634C163.173 29.312 162.485 29.9999 161.637 29.9999C160.788 29.9999 160.1 29.312 160.1 28.4634V22.1248ZM167.783 24.3529C166.934 24.3529 166.246 25.0408 166.246 25.8894V28.4633C166.246 29.312 166.934 29.9999 167.783 29.9999C168.631 29.9999 169.319 29.312 169.319 28.4633V25.8894C169.319 25.0408 168.631 24.3529 167.783 24.3529Z" fill="#D0F4FB"/>
</svg>
