<svg width="32" height="32" viewBox="0 0 32 32" fill="none" xmlns="http://www.w3.org/2000/svg">
<path d="M27.6484 7.25127H23.969V7.94434C23.969 8.75291 23.3651 9.412 22.6173 9.412H21.3502C20.6055 9.412 19.9986 8.7563 19.9986 7.94434V7.25127H11.9983V7.94434C11.9983 8.75291 11.3945 9.412 10.6467 9.412H9.37641C8.63177 9.412 8.02479 8.7563 8.02479 7.94434V7.25127H4.35162C3.60698 7.25127 3 7.91036 3 8.72233V28.5289C3 29.3409 3.60385 30 4.35162 30H27.6484C28.393 30 29 29.3409 29 28.5289V8.72233C28.9969 7.91036 28.393 7.25127 27.6484 7.25127ZM26.9726 27.0681C26.9726 27.4724 26.6691 27.8019 26.2968 27.8019H5.70012C5.3278 27.8019 5.02431 27.4724 5.02431 27.0681V12.2998C5.02431 11.8955 5.3278 11.5659 5.70012 11.5659H26.2968C26.6691 11.5659 26.9726 11.8955 26.9726 12.2998V27.0681ZM11.3475 15.9179H8.70373C8.33141 15.9179 8.02792 16.2475 8.02792 16.6518V17.3448C8.02792 17.7491 8.33141 18.0787 8.70373 18.0787H11.3475C11.7199 18.0787 12.0233 17.7491 12.0233 17.3448V16.6518C12.0233 16.2475 11.7199 15.9179 11.3475 15.9179ZM17.336 15.9179H14.6922C14.3199 15.9179 14.0164 16.2475 14.0164 16.6518V17.3448C14.0164 17.7491 14.3199 18.0787 14.6922 18.0787H17.336C17.7083 18.0787 18.0118 17.7491 18.0118 17.3448V16.6518C18.0087 16.2475 17.7083 15.9179 17.336 15.9179ZM17.336 21.3197H14.6922C14.3199 21.3197 14.0164 21.6493 14.0164 22.0536V22.7466C14.0164 23.1509 14.3199 23.4805 14.6922 23.4805H17.336C17.7083 23.4805 18.0118 23.1509 18.0118 22.7466V22.0536C18.0087 21.6459 17.7083 21.3197 17.336 21.3197ZM11.3475 21.3197H8.70373C8.33141 21.3197 8.02792 21.6493 8.02792 22.0536V22.7466C8.02792 23.1509 8.33141 23.4805 8.70373 23.4805H11.3475C11.7199 23.4805 12.0233 23.1509 12.0233 22.7466V22.0536C12.0233 21.6459 11.7199 21.3197 11.3475 21.3197ZM24.8387 14.8036C24.5384 14.4775 24.0816 14.4469 23.8188 14.7323L21.7381 16.9915L21.0749 16.2713C20.812 15.9859 20.3834 15.9859 20.1206 16.2713L19.9391 16.4683C19.6763 16.7537 19.6763 17.2191 19.9391 17.5045L21.2907 18.9722C21.5536 19.2575 21.9822 19.2575 22.245 18.9722L22.4265 18.7751L24.9858 15.9961C25.2486 15.7107 25.2205 15.2147 24.9201 14.8885L24.8387 14.8036ZM9.70493 8.32484H10.3432C10.7155 8.32484 11.019 7.9953 11.019 7.59101V4.73383C11.019 4.32954 10.7155 4 10.3432 4H9.70493C9.33261 4 9.02912 4.32954 9.02912 4.73383V7.59101C9.02912 7.9953 9.33261 8.32484 9.70493 8.32484ZM21.6756 8.32484H22.3138C22.6862 8.32484 22.9897 7.9953 22.9897 7.59101V4.73383C22.9897 4.32954 22.6862 4 22.3138 4H21.6756C21.3033 4 20.9998 4.32954 20.9998 4.73383V7.59101C21.0029 7.9953 21.3033 8.32484 21.6756 8.32484Z" fill="#A1A4B2"/>
</svg>
