<svg width="173" height="155" viewBox="0 0 173 155" fill="none" xmlns="http://www.w3.org/2000/svg">
<g clip-path="url(#clip0)">
<path d="M158.639 43.2501H155.067V61.1831H158.639V43.2501Z" fill="#0B6BCC"/>
<path d="M164.238 49.278H160.666V61.1829H164.238V49.278Z" fill="#0B6BCC"/>
<path d="M169.843 54.9594H166.271V61.1832H169.843V54.9594Z" fill="#0B6BCC"/>
</g>
<g clip-path="url(#clip1)">
<path d="M90.1917 154.013C110.291 154.013 126.585 151.179 126.585 147.683C126.585 144.188 110.291 141.354 90.1917 141.354C70.0922 141.354 53.7983 144.188 53.7983 147.683C53.7983 151.179 70.0922 154.013 90.1917 154.013Z" fill="#0B6BCC"/>
</g>
<path d="M84.055 65.5671C84.055 65.5671 82.6293 81.3276 88.5348 81.0901C94.8698 80.832 93.1658 65.5671 93.1658 65.5671C92.3379 63.1067 92.0081 61.6476 92.3791 59.0667H84.6871C85.0581 61.6476 84.8795 63.1067 84.055 65.5671Z" fill="#FDBCA0"/>
<path d="M84.8411 62.1155C85.7137 62.3771 86.5932 62.6179 87.5036 62.6937C88.3659 62.7659 89.2522 62.7109 90.1111 62.6179C90.8257 62.5388 91.5883 62.4115 92.3029 62.174C92.1895 61.238 92.2067 60.2745 92.3819 59.0632H84.6899C84.8583 60.2504 84.9098 61.2002 84.8411 62.1155Z" fill="#F0A38B"/>
<path d="M88.5345 61.2175C90.7297 61.2175 92.8426 60.3503 94.3885 58.788C96.2299 56.9298 97.6728 54.8582 98.0954 52.4253C98.6382 49.3008 97.5835 46.1796 95.2817 43.6676H81.7838C79.4821 46.1762 78.4274 49.3008 78.9702 52.4253C79.3927 54.8582 80.8391 56.9298 82.677 58.788C84.2264 60.3469 86.3392 61.2175 88.5345 61.2175Z" fill="#FDBCA0"/>
<path d="M89.2056 67.4048C88.9273 67.7111 88.6662 68.0448 88.4189 68.3786C88.12 68.1722 87.883 67.921 87.6219 67.6629C87.5978 67.6388 87.5497 67.6629 87.56 67.6973C87.7077 68.1033 88.0169 68.4337 88.333 68.7159C88.4017 68.7744 88.4979 68.7813 88.5666 68.7159C88.8998 68.389 89.2262 68.007 89.4839 67.6147C89.5938 67.453 89.3396 67.2568 89.2056 67.4048Z" fill="#DF8370"/>
<path d="M96.6325 66.8025C94.5816 66.978 92.5581 67.3118 90.5621 67.8211C90.4418 67.852 90.4934 68.0344 90.6136 68.0069C92.5993 67.5664 94.6056 67.267 96.6325 67.1294C96.8455 67.1156 96.8421 66.7853 96.6325 66.8025Z" fill="#DF8370"/>
<path d="M80.4345 66.8026C82.4855 66.9781 84.509 67.3119 86.505 67.8212C86.6252 67.8521 86.5737 68.0345 86.4534 68.007C84.4677 67.5665 82.4614 67.2671 80.4345 67.1295C80.225 67.1157 80.225 66.7854 80.4345 66.8026Z" fill="#DF8370"/>
<path d="M80.7875 38.4713C77.9188 40.1162 75.8988 42.7074 75.8644 46.1899C75.8301 50.1162 80.6054 56.3688 80.5401 56.2139C78.9529 52.3942 78.5372 47.1362 82.4983 44.5037C82.8934 44.2422 83.3881 44.0907 83.742 43.7845C83.7316 41.7095 82.5876 39.6998 80.7875 38.4713Z" fill="#3F4553"/>
<path d="M95.9989 38.4713C98.8675 40.1162 100.888 42.7074 100.922 46.1899C100.956 50.1162 98.6099 53.609 96.2738 56.5753C96.8681 55.2814 98.2457 47.1327 94.2846 44.5037C93.8896 44.2422 93.3949 44.0907 93.041 43.7845C93.0548 41.7095 94.2022 39.6998 95.9989 38.4713Z" fill="#424495"/>
<path d="M137.188 36.3929C134.996 35.3021 132.437 35.0681 130.052 35.5533C128.898 35.7873 127.806 36.1968 126.765 36.7508C126.074 37.1156 125.373 37.6386 124.569 37.7006C123.594 37.7728 122.738 37.1362 122.013 36.5719C119.76 34.8169 117.468 33.2787 114.569 32.8554C113.167 32.6489 111.601 32.8004 110.515 33.6606C109.402 32.1878 107.742 31.1383 105.915 30.7529C103.496 30.2436 101.198 30.9697 99.2981 32.4287C98.2263 31.9022 96.3505 31.1452 96.1135 31.0798C88.9677 29.1114 79.211 34.1046 80.4753 42.5251C81.5609 49.7618 90.7095 53.1066 97.0479 51.62C98.4152 54.2112 101.693 54.8134 104.218 53.4645C104.41 53.6124 104.602 53.7604 104.798 53.9049C108.828 56.8643 113.517 58.7879 118.581 57.9139C120.505 57.5801 122.305 56.885 123.961 55.887C125.535 57.0708 127.606 57.4459 129.513 56.5305C130.932 55.8526 131.883 54.6001 132.224 53.1823C132.248 53.1823 132.272 53.1823 132.296 53.1823C136.508 53.1307 140.974 51.035 142.049 46.6131C143.028 42.5939 140.85 38.2133 137.188 36.3929Z" fill="#4E5567"/>
<path d="M118.038 35.0818C119.422 36.214 120.243 37.7659 119.381 39.4762C118.68 40.8699 117.42 41.885 116.502 43.1204C115.427 44.5657 115.241 46.4204 117.004 47.4769C118.739 48.5161 120.913 47.2222 122.36 46.2415C124.146 45.0268 126.063 41.5134 127.602 40.0061C134.439 33.3131 141.227 40.4672 141.255 40.4913C140.368 38.7501 138.953 37.2739 137.187 36.3929C134.995 35.3021 132.436 35.0681 130.052 35.5533C128.897 35.7873 127.805 36.1968 126.764 36.7508C126.073 37.1156 125.373 37.6386 124.569 37.7006C123.593 37.7728 122.738 37.1362 122.013 36.5719C119.759 34.8169 117.468 33.2787 114.568 32.8554C113.197 32.6558 111.669 32.8004 110.586 33.6125C112.947 32.6937 116.145 33.5299 118.038 35.0818Z" fill="#3F4553"/>
<path d="M136.246 52.0468C134.573 52.2429 133.007 52.15 131.468 51.4652C130.805 53.1892 129.448 54.9305 127.531 55.2023C126.242 55.3847 124.72 54.9821 124.456 53.6159C115.4 61.0007 105.248 52.7625 104.269 51.2175C101.445 53.0619 97.886 50.8114 96.8313 47.9312C94.6807 48.7674 92.2003 48.5093 90.1115 47.6111C86.2192 45.9422 84.0617 41.3413 85.4222 37.2808C86.5559 33.905 89.5756 31.596 92.9217 30.6566C86.3978 30.6187 79.3929 35.3124 80.4751 42.5251C81.5607 49.7618 90.7059 53.1066 97.0477 51.6201C98.415 54.2113 101.692 54.8135 104.218 53.4645C104.41 53.6125 104.602 53.7605 104.798 53.905C108.828 56.8644 113.517 58.788 118.581 57.9139C120.505 57.5801 122.305 56.885 123.961 55.8871C125.535 57.0709 127.606 57.4459 129.513 56.5306C130.932 55.8527 131.883 54.6001 132.223 53.1824C132.247 53.1824 132.271 53.1824 132.296 53.1824C134.305 53.1583 136.37 52.6662 138.101 51.682C137.493 51.8644 136.861 51.9745 136.246 52.0468Z" fill="#3F4553"/>
<path d="M86.1227 54.2699C84.9202 54.4695 82.9655 54.5349 81.8558 53.3442C81.636 53.1068 81.3371 53.3752 81.6119 53.6127C81.6566 53.6505 81.7012 53.6849 81.7459 53.7193C81.6153 53.7572 81.4779 53.7744 81.3336 53.7641C81.3302 53.7641 81.3302 53.7675 81.3336 53.7709C81.5088 53.8294 81.6875 53.8466 81.8627 53.8122C81.8661 53.8157 81.8696 53.8191 81.873 53.8191C81.7218 53.9189 81.5398 53.9602 81.3611 54.0187C81.3577 54.0187 81.3577 54.0221 81.3611 54.0256C81.581 54.0462 81.8112 54.0187 81.9932 53.9017C82.0139 53.9155 82.0345 53.9224 82.0551 53.9361C81.9177 54.0428 81.7631 54.1219 81.5879 54.1632C81.5707 54.1667 81.5741 54.1942 81.5913 54.1942C81.8146 54.2045 82.0276 54.1495 82.2062 54.0256C82.244 54.0462 82.2853 54.0634 82.323 54.0841C82.1959 54.177 82.0654 54.2596 81.9177 54.3284C81.9039 54.3353 81.9108 54.3594 81.9245 54.3594C82.1204 54.3663 82.2921 54.2665 82.4467 54.1495C82.4948 54.1736 82.5429 54.1908 82.5944 54.2114C82.5292 54.2768 82.4536 54.3387 82.3814 54.4007C82.3711 54.411 82.3814 54.4248 82.3952 54.4248C82.5189 54.3938 82.6322 54.3422 82.7284 54.2699C83.8312 54.7241 85.1229 54.7379 86.2292 54.3387C86.346 54.2906 86.2566 54.2493 86.1227 54.2699Z" fill="#3F4553"/>
<path d="M91.059 54.2698C92.2614 54.4694 94.2162 54.5348 95.3258 53.3442C95.5457 53.1067 95.8446 53.3751 95.5697 53.6126C95.5251 53.6504 95.4804 53.6849 95.4358 53.7193C95.5697 53.7571 95.7037 53.7743 95.848 53.764C95.8514 53.764 95.8514 53.7674 95.848 53.7709C95.6728 53.8294 95.4942 53.8466 95.319 53.8122C95.3155 53.8156 95.3121 53.8191 95.3087 53.8191C95.4598 53.9189 95.6419 53.9601 95.8205 54.0186C95.824 54.0186 95.824 54.0221 95.8205 54.0255C95.6007 54.0462 95.3705 54.0186 95.1884 53.9016C95.1678 53.9154 95.1472 53.9223 95.1266 53.9361C95.264 54.0427 95.4186 54.1219 95.5938 54.1632C95.611 54.1666 95.6075 54.1941 95.5904 54.1941C95.3671 54.2045 95.1541 54.1494 94.9754 54.0255C94.9376 54.0462 94.8964 54.0634 94.8586 54.084C94.9857 54.1769 95.1163 54.2595 95.264 54.3283C95.2777 54.3352 95.2709 54.3593 95.2571 54.3593C95.0613 54.3662 94.8895 54.2664 94.7349 54.1494C94.6868 54.1735 94.6387 54.1907 94.5906 54.2113C94.6559 54.2767 94.7315 54.3387 94.8036 54.4006C94.8139 54.4109 94.8036 54.4247 94.7899 54.4247C94.6662 54.3937 94.5528 54.3421 94.4567 54.2698C93.3539 54.7241 92.0621 54.7378 90.9525 54.3387C90.8391 54.2905 90.925 54.2492 91.059 54.2698Z" fill="#3F4553"/>
<path d="M89.3483 56.7786C88.7849 57.0711 88.2249 57.1881 87.6443 56.8371C87.6031 56.813 87.555 56.8715 87.5928 56.906C88.0909 57.3499 88.9773 57.4634 89.4754 56.9438C89.5579 56.8543 89.4548 56.7236 89.3483 56.7786Z" fill="#3F4553"/>
<path d="M90.6366 58.8087C89.9323 59.0186 89.2384 59.0978 88.5513 59.0668C87.8642 59.0978 87.1702 59.0186 86.466 58.8087C86.4488 58.8018 86.4351 58.8328 86.4522 58.8397C87.129 59.1287 87.8402 59.2836 88.5513 59.3008C89.2624 59.2836 89.9736 59.1287 90.6504 58.8397C90.6675 58.8328 90.6538 58.8053 90.6366 58.8087Z" fill="#3F4553"/>
<path d="M85.3224 55.9563C85.264 55.9288 85.2021 55.9047 85.1403 55.8875C84.3536 55.6845 83.4226 55.2991 82.6015 55.4402C82.0209 55.54 81.8869 56.2454 82.2167 56.6618C82.5706 57.1091 83.2645 57.2364 83.8005 57.2777C84.3398 57.319 85.1849 57.3775 85.5869 56.9543C85.9511 56.5723 85.7037 56.1422 85.3224 55.9563Z" fill="#FBAD8B"/>
<path d="M91.7534 55.956C91.8118 55.9284 91.8737 55.9044 91.9355 55.8872C92.7222 55.6841 93.6532 55.2987 94.4743 55.4398C95.0549 55.5396 95.1889 56.245 94.8591 56.6614C94.5052 57.1088 93.8113 57.2361 93.2753 57.2774C92.736 57.3187 91.8908 57.3772 91.4889 56.9539C91.1247 56.5719 91.3755 56.1418 91.7534 55.956Z" fill="#FBAD8B"/>
<path d="M78.1591 50.8042C77.3449 50.6837 76.4723 51.021 76.62 51.9879C76.7368 52.7588 77.5647 53.5261 78.829 53.2956C78.4854 52.4972 78.2484 51.6576 78.1591 50.8042Z" fill="#F9CDB9"/>
<path d="M77.3723 51.5613C77.5956 51.3755 77.9426 51.2929 78.2415 51.3411C78.2243 51.2482 78.214 51.1518 78.2003 51.0589C77.7915 51.021 77.3105 51.1897 77.0769 51.4856C76.7127 51.9501 76.9876 52.4663 77.3895 52.7829C77.4479 52.8311 77.5304 52.7554 77.4754 52.6969C77.1834 52.3872 76.9807 51.8882 77.3723 51.5613Z" fill="#F8C4AB"/>
<path d="M78.4029 52.0774C78.1899 51.8847 77.9117 51.778 77.5922 51.7918C77.52 51.7952 77.4925 51.9157 77.575 51.926C77.867 51.9673 78.1178 52.1187 78.2724 52.3527C78.0937 52.449 77.9632 52.6589 78.1453 52.831C78.2896 52.9687 78.5026 52.9996 78.7053 52.979C78.5919 52.683 78.4854 52.3837 78.4029 52.0774Z" fill="#F8C4AB"/>
<path d="M78.0871 53.072C78.0836 53.0685 78.0768 53.0719 78.0802 53.0754C78.2108 53.3989 78.3963 54.1559 77.9497 54.3108C77.6508 54.414 77.6233 54.0286 77.668 53.8256C77.7092 53.6397 77.8122 53.447 77.8981 53.2819C77.8981 53.2819 77.692 53.2371 77.5031 53.1408C77.2454 53.361 77.1526 53.6879 77.1973 54.032C77.2385 54.3452 77.4378 54.6893 77.7916 54.6996C78.1077 54.7099 78.3344 54.4381 78.3825 54.149C78.4375 53.7739 78.2863 53.3782 78.0871 53.072Z" fill="#FDCA27"/>
<path d="M143.828 112.336C141.897 110.034 137.72 109.848 134.978 109.562C126.737 108.702 118.285 108.915 110.04 109.583C105.935 109.917 101.85 110.416 97.7825 111.073C94.8383 111.551 91.5506 111.885 88.6099 112.828C85.6691 111.885 82.3814 111.548 79.4372 111.073C75.373 110.412 71.2849 109.913 67.1795 109.583C58.9344 108.915 50.4797 108.702 42.2415 109.562C39.5034 109.848 35.3225 110.034 33.3918 112.336C31.5263 114.559 33.8281 117.253 35.6008 118.668C38.0502 120.622 41.1593 121.586 44.1276 122.429C47.855 123.482 51.6684 124.198 55.5024 124.741C72.6625 127.164 81.9794 125.378 90.9494 125.268C91.293 125.705 91.6159 126.159 91.9113 126.63C101.005 126.689 112.686 125.963 121.714 124.741C125.551 124.222 129.361 123.485 133.089 122.429C136.06 121.589 139.166 120.626 141.616 118.668C143.388 117.253 145.69 114.559 143.828 112.336Z" fill="#93BFA8"/>
<path d="M131.653 113.929C131.938 113.564 133.666 113.113 134.346 112.811C131.141 113.069 127.922 113.454 124.723 113.785C118.639 114.411 112.548 116.025 106.783 118.045C104.025 119.012 101.273 120.027 98.5314 121.045C96.3602 121.851 94.213 122.732 92.1758 123.829C92.4884 123.733 92.801 123.637 93.1137 123.544C96.3636 122.587 109.607 115.412 134.13 114.528C133.563 114.404 131.543 114.07 131.653 113.929Z" fill="#66A986"/>
<path d="M45.9283 113.423C45.6431 113.058 43.9151 112.608 43.2349 112.305C46.4401 112.563 49.6592 112.948 52.8576 113.279C58.9418 113.905 65.0328 115.519 70.7975 117.539C73.5562 118.506 76.308 119.521 79.0495 120.54C81.2207 121.345 83.3679 122.226 85.4051 123.323C85.0925 123.227 84.7798 123.131 84.4672 123.038C81.2173 122.081 67.9736 114.906 43.4513 114.022C44.0147 113.898 46.0348 113.564 45.9283 113.423Z" fill="#66A986"/>
<path d="M96.9002 121.032C95.5191 120.478 94.0591 120.464 92.7158 121.039C90.4209 122.026 87.6073 120.512 85.2231 120.784C83.0278 121.035 81.6914 123.537 83.3714 125.134C83.7767 125.519 87.8512 126.999 94.3064 123.984C95.0141 123.654 95.7046 123.465 96.5051 123.475C96.6906 123.478 96.8658 123.654 97.0616 123.633C97.4808 123.582 97.8243 123.506 98.0579 123.1C98.6076 122.143 97.6903 121.348 96.9002 121.032Z" fill="#FDB597"/>
<path d="M80.7877 126.107C81.9523 125.182 83.3505 124.748 84.7968 124.917C87.2772 125.206 89.5412 122.948 91.9048 122.525C94.0794 122.136 96.0754 124.149 94.9211 126.166C94.6429 126.651 91.1593 129.235 84.1132 128.196C83.3402 128.083 82.6256 128.1 81.863 128.337C81.6878 128.392 81.5675 128.613 81.3717 128.647C80.956 128.719 80.6056 128.743 80.2655 128.423C79.4684 127.663 80.1212 126.637 80.7877 126.107Z" fill="#FDBCA0"/>
<path d="M127.604 69.5757C126.811 69.9852 125.976 70.4463 125.196 70.8765C125.608 70.5392 127.896 68.2061 128.786 67.6315C128.882 67.5695 128.656 66.6232 126.316 68.4952C125.619 69.0526 124.794 69.617 124.138 70.2261C124.973 68.6397 125.67 67.0327 126.763 65.5805C126.807 65.522 126.794 65.4566 126.756 65.4119C126.533 65.2364 125.973 65.436 125.722 65.7044C125.275 66.1793 123.578 68.0169 122.754 69.9542C122.767 69.2901 122.709 68.213 122.238 67.9928C121.943 67.8517 121.452 68.0375 121.136 68.0616C120.514 68.1063 119.699 68.1958 119.119 67.948C119.033 67.9136 118.817 67.8861 118.896 68.1717C119.16 69.1077 120.466 69.2247 121.276 69.4312C121.551 70.0988 120.778 71.193 120.29 71.5234C119.497 72.0637 118.339 71.5337 118.538 70.4738C118.714 69.5413 119.27 69.118 118.779 68.2027C118.617 67.8999 117.923 67.6246 118.078 68.1132C118.476 69.3624 117.332 70.4119 117.185 71.6197C117.068 72.5764 117.573 73.4263 118.081 74.1937C118.05 74.2729 118.026 74.352 117.999 74.4277C117.308 75.6252 116.772 76.8881 116.384 78.2095C117.271 78.502 119.875 78.3162 119.864 78.2956C119.875 78.3162 120.177 76.4649 120.871 75.6837C121.63 74.8269 122.585 74.1662 123.499 73.4917C125.42 72.0705 127.371 70.6906 129.35 69.3486C129.463 69.2763 129.37 68.6638 127.604 69.5757Z" fill="#FDBCA0"/>
<path d="M49.8229 69.577C50.6165 69.9865 51.4513 70.4476 52.2311 70.8777C51.8189 70.5405 49.5309 68.2074 48.6411 67.6327C48.5449 67.5708 48.7716 66.6245 51.1112 68.4965C51.8086 69.0539 52.6331 69.6183 53.2893 70.2274C52.4544 68.641 51.757 67.034 50.6646 65.5818C50.6199 65.5233 50.6336 65.4579 50.6714 65.4132C50.8947 65.2377 51.4547 65.4373 51.7055 65.7057C52.1521 66.1806 53.8492 68.0181 54.6737 69.9555C54.66 69.2914 54.7184 68.2143 55.1891 67.9941C55.4845 67.853 55.9758 68.0388 56.2918 68.0629C56.9137 68.1076 57.7279 68.1971 58.3085 67.9493C58.3943 67.9149 58.6108 67.8874 58.5318 68.173C58.2672 69.109 56.9618 69.226 56.151 69.4325C55.8762 70.1 56.6491 71.1943 57.137 71.5247C57.9306 72.0649 59.0883 71.535 58.889 70.4751C58.7138 69.5426 58.1573 69.1193 58.6486 68.204C58.81 67.9011 59.504 67.6259 59.3494 68.1145C58.9509 69.3636 60.0949 70.4132 60.2426 71.621C60.3594 72.5777 59.8544 73.4276 59.346 74.195C59.3769 74.2742 59.4009 74.3533 59.4284 74.429C60.1189 75.6265 60.6549 76.8894 61.0431 78.2108C60.1567 78.5033 57.5527 78.3175 57.563 78.2969C57.5527 78.3175 57.2503 76.4662 56.5564 75.685C55.7971 74.8282 54.8421 74.1675 53.9282 73.493C52.0078 72.0718 50.0565 70.6919 48.0777 69.3499C47.9643 69.2776 48.0571 68.6651 49.8229 69.577Z" fill="#FDBCA0"/>
<path d="M115.458 76.9916C114.169 80.3192 109.799 92.6042 107.975 97.8141C106.889 95.0267 103.956 82.9242 101.486 68.874C100.716 64.5071 95.7998 65.13 93.1683 65.567C92.9793 68.4989 90.1382 76.6269 88.6129 76.6441C87.0875 76.6269 84.0643 69.0736 84.0575 65.567C81.4293 65.13 76.5098 64.5071 75.7402 68.874C73.2667 82.9242 70.3362 95.0302 69.2506 97.8141C67.423 92.6042 63.0565 80.3192 61.7682 76.9916C60.1158 77.7728 58.2881 78.2029 56.4639 78.3096C57.8758 82.0708 62.5378 108.705 69.4087 108.705C72.3872 108.705 74.2733 105.536 77.3102 93.7948C77.4614 95.7563 77.5129 99.5243 77.4373 103.485C77.3824 106.338 75.4138 109.634 72.7788 108.998C72.2464 108.87 71.5524 109.273 72.212 109.989C72.3906 110.185 72.6208 110.33 72.8579 110.44C77.0663 112.436 77.2312 115.419 79.715 117.157C81.2163 118.206 83.0646 118.537 84.827 118.895C86.7371 119.28 88.7056 119.569 90.6501 119.277C93.8829 118.791 96.3942 116.627 99.0704 114.934C100.565 113.987 102.083 113.23 103.839 112.972C108.356 112.308 108.058 109.115 107.113 109.18C103.949 109.397 99.7815 105.357 99.7575 100.911C99.7403 97.9517 99.7987 95.3261 99.9155 93.7948C102.952 105.536 104.839 108.705 107.817 108.705C114.688 108.705 119.35 82.0708 120.762 78.3096C118.938 78.2029 117.11 77.7694 115.458 76.9916Z" fill="#F2EDE4"/>
<path d="M97.2807 88.6224C97.2464 88.6465 97.2189 88.6706 97.1914 88.6947C96.6314 89.2419 96.1951 89.8991 95.6455 90.4566C95.0958 91.0106 94.3846 91.4752 93.6048 91.4717C91.7325 91.4614 90.7946 89.2109 89.6678 88.065C87.9363 86.31 86.2563 90.3086 84.9681 91.0932C83.6454 91.8984 82.7487 91.4132 81.7731 90.46C81.1753 89.875 80.6669 89.2178 80.1137 88.5915C79.9695 88.4263 79.6397 88.6018 79.729 88.8151C80.3748 90.3705 81.8349 92.9514 83.7622 92.9927C84.944 93.0168 85.9128 92.3389 86.6892 91.5061C87.0706 91.0966 88.1218 88.8977 88.8055 89.1868C88.9326 89.2418 89.0219 89.3554 89.1078 89.4655C89.4479 89.9129 89.764 90.3843 90.1281 90.811C90.3171 91.0312 90.8633 91.396 90.8633 91.6988C91.6363 92.4869 92.6978 93.1063 93.7937 92.9721C94.9137 92.8344 95.8001 91.9569 96.4494 91.0312C96.9097 90.374 97.2979 89.6651 97.6037 88.9218C97.6483 88.8151 97.6861 88.6809 97.6071 88.5949C97.5212 88.5054 97.3907 88.5467 97.2807 88.6224Z" fill="#D9C9AC"/>
<g clip-path="url(#clip2)">
<path d="M160.33 106.496L172.087 102.555L166.194 85.2552L154.437 89.1959C153.976 89.3496 153.726 89.8448 153.886 90.3017L159.215 105.945C159.37 106.402 159.87 106.649 160.33 106.496Z" fill="#3F4553"/>
<path d="M160.339 106.154L172.388 102.115L166.71 85.4516L154.66 89.4905C154.363 89.5887 154.204 89.9089 154.303 90.2078L159.615 105.8C159.719 106.094 160.041 106.252 160.339 106.154Z" fill="#DDDDE3"/>
<path d="M160.593 106.069L172.643 102.03L166.964 85.3662L154.915 89.4051C154.617 89.5033 154.458 89.8235 154.557 90.1224L159.87 105.714C159.973 106.009 160.296 106.171 160.593 106.069Z" fill="#E2E5FF"/>
<path d="M161.243 106.188L173 102.248L167.106 84.9521L155.349 88.8928C154.889 89.0465 154.639 89.5417 154.798 89.9986L160.128 105.642C160.283 106.099 160.782 106.342 161.243 106.188Z" fill="#4E5567"/>
<path d="M166.447 85.173L166.194 85.2577L172.088 102.558L172.341 102.473L166.447 85.173Z" fill="#3F4553"/>
<path d="M168.127 98.6868L168.39 98.1317L168.941 98.4135L164.636 85.7803C164.558 85.5583 164.364 85.5753 164.141 85.6522C163.917 85.729 163.749 85.8315 163.826 86.0535L168.127 98.6868Z" fill="#93BFA8"/>
<path d="M141.71 89.76L149.623 80.4556L148.024 79.1178L140.111 88.4223L141.71 89.76Z" fill="#3F4553"/>
<path d="M140.109 88.419L141.706 89.7554L139.399 91.0149C139.321 91.0575 139.218 90.9679 139.244 90.8868L140.109 88.419Z" fill="#F2EDE4"/>
<path d="M139.403 91.0189L140.027 90.6773L139.485 90.2205L139.252 90.8866C139.222 90.9677 139.326 91.0573 139.403 91.0189Z" fill="#3F4553"/>
<path d="M141.18 89.3167L149.093 80.0123L148.55 79.5582L140.637 88.8626L141.18 89.3167Z" fill="#4E5567"/>
</g>
<g clip-path="url(#clip3)">
<path d="M54.329 0C44.1291 0 35.8657 8.26342 35.8657 18.4633C35.8657 28.6574 44.1291 36.9266 54.329 36.9266C64.5231 36.9266 72.7923 28.6632 72.7923 18.4633C72.7865 8.26342 64.5231 0 54.329 0ZM54.329 33.8038C45.8563 33.8038 38.9885 26.9361 38.9885 18.4633C38.9885 9.99054 45.8563 3.12277 54.329 3.12277C62.8018 3.12277 69.6696 9.99054 69.6696 18.4633C69.6696 26.9361 62.8018 33.8038 54.329 33.8038Z" fill="#0B6BCC"/>
<path d="M68.4835 24.3779C71.7522 16.5613 68.0653 7.57493 60.2487 4.3063C52.4321 1.03768 43.4458 4.72452 40.1772 12.5411C36.9085 20.3577 40.5954 29.344 48.412 32.6127C56.2285 35.8813 65.2149 32.1944 68.4835 24.3779Z" fill="#4FA6FF"/>
<path d="M54.3588 4.49536C53.283 4.49536 53.2772 6.17014 54.3588 6.17014C55.4405 6.17014 55.4405 4.49536 54.3588 4.49536Z" fill="#0B6BCC"/>
<path d="M68.291 18.4916C68.291 17.4158 66.6162 17.41 66.6162 18.4916C66.6162 19.5732 68.291 19.5732 68.291 18.4916Z" fill="#0B6BCC"/>
<path d="M54.2934 32.4252C55.3692 32.4252 55.375 30.7504 54.2934 30.7504C53.2176 30.7504 53.2118 32.4252 54.2934 32.4252Z" fill="#0B6BCC"/>
<path d="M40.3613 18.4285C40.3613 19.5043 42.0361 19.5102 42.0361 18.4285C42.0361 17.3527 40.3613 17.3469 40.3613 18.4285Z" fill="#0B6BCC"/>
<path d="M60.9237 22.9467C60.8248 22.9467 60.726 22.9235 60.6387 22.8653L54.0385 18.9401C53.8698 18.8412 53.7651 18.6551 53.7651 18.4574V7.9086C53.7651 7.6004 54.0152 7.35034 54.3234 7.35034C54.6316 7.35034 54.8817 7.6004 54.8817 7.9086V18.1434L61.2086 21.9058C61.4761 22.0628 61.5633 22.4059 61.4005 22.6734C61.3017 22.8479 61.1156 22.9467 60.9237 22.9467Z" fill="#0B6BCC"/>
</g>
<path d="M17.5328 56.3373L17.1645 54.2476L15.0281 54.6117C14.6892 53.636 14.1367 52.7768 13.4222 52.0778L14.6745 50.323L12.9212 49.107L11.6762 50.8545C10.7775 50.4176 9.77564 50.1773 8.72956 50.1846L8.35386 48.0658L6.23961 48.4298L6.60795 50.5414C5.62081 50.8764 4.75153 51.4225 4.04433 52.1287L2.26895 50.8909L1.03871 52.6239L2.80672 53.8544C2.36472 54.7427 2.12161 55.733 2.12898 56.7669L0 57.131L0.368336 59.2207L2.50468 58.8567C2.84355 59.8324 3.39606 60.6916 4.11063 61.3906L2.85829 63.1454L4.61157 64.3614L5.85654 62.6138C6.75528 63.0507 7.75715 63.291 8.80323 63.2837L9.17893 65.4026L11.2932 65.0385L10.9248 62.9269C11.912 62.592 12.7813 62.0459 13.4885 61.3396L15.2638 62.5774L16.4941 60.8445L14.7261 59.6139C15.1681 58.7256 15.4112 57.7354 15.4038 56.7014L17.5328 56.3373ZM9.10526 58.6746C8.02236 58.864 6.99102 58.1431 6.79948 57.0728C6.60795 56.0024 7.33725 54.983 8.42016 54.7937C9.50307 54.6044 10.5344 55.3252 10.7259 56.3956C10.9175 57.4659 10.1955 58.4853 9.10526 58.6746Z" fill="#9BA3FF"/>
<path d="M37.6887 52.1214V49.4928H34.9998C34.8009 48.2259 34.3073 47.0609 33.5854 46.056L35.4934 44.1702L33.6149 42.3134L31.7142 44.192C30.705 43.4712 29.5337 42.9688 28.2519 42.7576V40.0854H25.5925V42.743C24.3107 42.9396 23.1247 43.4275 22.1154 44.1411L20.2074 42.2552L18.3289 44.1119L20.2295 45.9905C19.5002 46.988 18.9919 48.1458 18.7783 49.4127H16.0747V52.0413H18.7636C18.9625 53.3082 19.456 54.4732 20.178 55.4781L18.27 57.3639L20.1485 59.2207L22.0491 57.3421C23.0584 58.0629 24.2297 58.5653 25.5115 58.7765V61.4487H28.1709V58.7911C29.4527 58.5945 30.6313 58.1066 31.6479 57.3931L33.5559 59.2789L35.4344 57.4222L33.5338 55.5436C34.2631 54.5461 34.7714 53.3883 34.9851 52.1214H37.6887ZM26.8817 53.2136C25.5188 53.2136 24.4065 52.1214 24.4065 50.7671C24.4065 49.42 25.5115 48.3205 26.8817 48.3205C28.2445 48.3205 29.3569 49.4127 29.3569 50.7671C29.3495 52.1141 28.2445 53.2136 26.8817 53.2136Z" fill="#AEB4FC"/>
<g opacity="0.3">
<path d="M162.446 32.5926L142.689 28.1521C142.496 28.1099 142.373 27.9164 142.418 27.7228L144.906 16.6464C144.948 16.4528 145.142 16.3297 145.335 16.3754L165.092 20.8194C165.285 20.8616 165.409 21.0551 165.363 21.2487L162.872 32.3251C162.83 32.5151 162.64 32.6383 162.446 32.5926Z" fill="#ECECEC"/>
<path d="M142.746 27.8916C142.693 27.8811 142.662 27.8283 142.676 27.779L145.167 16.7025C145.177 16.6498 145.23 16.6181 145.279 16.6322L165.036 21.0761C165.089 21.0867 165.121 21.1395 165.107 21.1887L162.615 32.2652C162.605 32.318 162.552 32.3496 162.503 32.3356L142.746 27.8916Z" fill="#F5F4F5"/>
<path d="M162.311 20.1908L148.12 16.9995L148.062 17.2569L162.253 20.4483L162.311 20.1908Z" fill="#706F6E"/>
<path d="M146.739 18.5921L146.085 18.4444C146.004 18.4268 145.951 18.3458 145.969 18.2614L146.071 17.8005C146.088 17.7195 146.169 17.6668 146.254 17.6844L146.908 17.8321C146.989 17.8497 147.042 17.9307 147.024 18.0151L146.922 18.476C146.901 18.557 146.82 18.6097 146.739 18.5921Z" fill="#585857"/>
<path d="M146.113 18.3145C146.102 18.3109 146.095 18.3004 146.099 18.2898L146.201 17.8289C146.204 17.8183 146.215 17.8113 146.225 17.8148L146.88 17.9626C146.89 17.9661 146.897 17.9767 146.894 17.9872L146.792 18.4482C146.788 18.4587 146.778 18.4658 146.767 18.4622L146.113 18.3145Z" fill="#5E5E5D"/>
<path d="M147.939 18.8599L147.285 18.7121C147.204 18.6945 147.151 18.6136 147.168 18.5291L147.27 18.0682C147.288 17.9873 147.369 17.9345 147.453 17.9521L148.108 18.0999C148.189 18.1175 148.242 18.1984 148.224 18.2828L148.122 18.7438C148.101 18.8282 148.02 18.8775 147.939 18.8599Z" fill="#585857"/>
<path d="M147.312 18.5851C147.301 18.5816 147.294 18.5711 147.298 18.5605L147.4 18.0996C147.403 18.089 147.414 18.082 147.424 18.0855L148.079 18.2333C148.089 18.2368 148.097 18.2474 148.093 18.2579L147.991 18.7189C147.987 18.7294 147.977 18.7364 147.966 18.7329L147.312 18.5851Z" fill="#5E5E5D"/>
<path d="M149.138 19.1304L148.484 18.9826C148.403 18.965 148.35 18.8841 148.368 18.7996L148.47 18.3387C148.487 18.2578 148.568 18.205 148.653 18.2226L149.307 18.3704C149.388 18.388 149.441 18.4689 149.423 18.5533L149.321 19.0143C149.3 19.0952 149.219 19.148 149.138 19.1304Z" fill="#585857"/>
<path d="M148.513 18.8524C148.502 18.8488 148.495 18.8383 148.498 18.8277L148.601 18.3668C148.604 18.3562 148.615 18.3492 148.625 18.3527L149.28 18.5005C149.29 18.504 149.297 18.5146 149.294 18.5251L149.192 18.9861C149.188 18.9966 149.178 19.0037 149.167 19.0001L148.513 18.8524Z" fill="#5E5E5D"/>
<path d="M150.339 19.3978L149.684 19.25C149.604 19.2324 149.551 19.1515 149.568 19.067L149.67 18.6061C149.688 18.5251 149.769 18.4724 149.853 18.49L150.508 18.6377C150.589 18.6553 150.641 18.7363 150.624 18.8207L150.522 19.2816C150.501 19.3661 150.42 19.4189 150.339 19.3978Z" fill="#585857"/>
<path d="M149.712 19.1234C149.702 19.1199 149.695 19.1093 149.698 19.0988L149.8 18.6379C149.804 18.6273 149.814 18.6203 149.825 18.6238L150.479 18.7716C150.49 18.7751 150.497 18.7856 150.493 18.7962L150.391 19.2571C150.388 19.2677 150.377 19.2747 150.367 19.2712L149.712 19.1234Z" fill="#5E5E5D"/>
<path d="M151.535 19.6686L150.88 19.5208C150.799 19.5033 150.747 19.4223 150.764 19.3379L150.866 18.8769C150.884 18.796 150.965 18.7432 151.049 18.7608L151.704 18.9086C151.785 18.9262 151.837 19.0071 151.82 19.0916L151.718 19.5525C151.7 19.637 151.619 19.6862 151.535 19.6686Z" fill="#585857"/>
<path d="M150.912 19.3943C150.902 19.3908 150.895 19.3802 150.898 19.3697L151 18.9087C151.004 18.8982 151.014 18.8911 151.025 18.8947L151.68 19.0424C151.69 19.046 151.697 19.0565 151.694 19.0671L151.592 19.528C151.588 19.5386 151.577 19.5456 151.567 19.5421L150.912 19.3943Z" fill="#5E5E5D"/>
<path d="M152.734 19.9397L152.08 19.7919C151.999 19.7743 151.946 19.6934 151.964 19.609L152.066 19.148C152.083 19.0671 152.164 19.0143 152.249 19.0319L152.903 19.1797C152.984 19.1973 153.037 19.2782 153.019 19.3627L152.917 19.8236C152.9 19.9045 152.819 19.9573 152.734 19.9397Z" fill="#585857"/>
<path d="M152.112 19.6617C152.101 19.6581 152.094 19.6476 152.098 19.637L152.2 19.1761C152.203 19.1655 152.214 19.1585 152.224 19.162L152.879 19.3098C152.889 19.3133 152.896 19.3239 152.893 19.3344L152.791 19.7954C152.787 19.8059 152.777 19.813 152.766 19.8094L152.112 19.6617Z" fill="#5E5E5D"/>
<path d="M153.935 20.2071L153.281 20.0593C153.2 20.0417 153.147 19.9608 153.165 19.8763L153.267 19.4154C153.284 19.3345 153.365 19.2817 153.45 19.2993L154.104 19.4471C154.185 19.4647 154.238 19.5456 154.22 19.63L154.118 20.091C154.1 20.1754 154.016 20.2282 153.935 20.2071Z" fill="#585857"/>
<path d="M153.312 19.9327C153.302 19.9292 153.295 19.9186 153.298 19.9081L153.4 19.4471C153.404 19.4366 153.414 19.4296 153.425 19.4331L154.079 19.5809C154.09 19.5844 154.097 19.5949 154.093 19.6055L153.991 20.0664C153.988 20.077 153.977 20.084 153.967 20.0805L153.312 19.9327Z" fill="#5E5E5D"/>
<path d="M155.134 20.4781L154.48 20.3304C154.399 20.3128 154.346 20.2318 154.364 20.1474L154.466 19.6865C154.483 19.6055 154.564 19.5527 154.649 19.5703L155.303 19.7181C155.384 19.7357 155.437 19.8166 155.419 19.9011L155.317 20.362C155.296 20.4465 155.215 20.4957 155.134 20.4781Z" fill="#585857"/>
<path d="M154.512 20.2034C154.501 20.1999 154.494 20.1893 154.497 20.1788L154.6 19.7178C154.603 19.7073 154.614 19.7002 154.624 19.7038L155.279 19.8515C155.289 19.8551 155.296 19.8656 155.293 19.8762L155.191 20.3371C155.187 20.3477 155.177 20.3547 155.166 20.3512L154.512 20.2034Z" fill="#5E5E5D"/>
<path d="M156.335 20.7492L155.68 20.6014C155.599 20.5838 155.546 20.5029 155.564 20.4184L155.666 19.9575C155.684 19.8766 155.764 19.8238 155.849 19.8414L156.503 19.9892C156.584 20.0068 156.637 20.0877 156.62 20.1721L156.517 20.6331C156.496 20.714 156.415 20.7668 156.335 20.7492Z" fill="#585857"/>
<path d="M155.708 20.4711C155.697 20.4676 155.69 20.4571 155.694 20.4465L155.796 19.9856C155.799 19.975 155.81 19.968 155.82 19.9715L156.475 20.1193C156.485 20.1228 156.493 20.1334 156.489 20.1439L156.387 20.6048C156.383 20.6154 156.373 20.6224 156.362 20.6189L155.708 20.4711Z" fill="#5E5E5D"/>
<path d="M157.534 21.0162L156.88 20.8684C156.799 20.8508 156.746 20.7699 156.764 20.6854L156.866 20.2245C156.883 20.1436 156.964 20.0908 157.049 20.1084L157.703 20.2562C157.784 20.2738 157.837 20.3547 157.819 20.4391L157.717 20.9001C157.696 20.9845 157.615 21.0373 157.534 21.0162Z" fill="#585857"/>
<path d="M156.908 20.742C156.898 20.7385 156.89 20.7279 156.894 20.7174L156.996 20.2564C157 20.2459 157.01 20.2389 157.021 20.2424L157.675 20.3901C157.686 20.3937 157.693 20.4042 157.689 20.4148L157.587 20.8757C157.584 20.8863 157.573 20.8933 157.563 20.8898L156.908 20.742Z" fill="#5E5E5D"/>
<path d="M158.734 21.2872L158.079 21.1395C157.999 21.1219 157.946 21.0409 157.963 20.9565L158.065 20.4956C158.083 20.4146 158.164 20.3619 158.248 20.3795L158.903 20.5272C158.984 20.5448 159.037 20.6258 159.019 20.7102L158.917 21.1711C158.896 21.2556 158.815 21.3048 158.734 21.2872Z" fill="#585857"/>
<path d="M158.107 21.0131C158.097 21.0096 158.09 20.999 158.093 20.9885L158.195 20.5275C158.199 20.517 158.209 20.5099 158.22 20.5135L158.874 20.6612C158.885 20.6648 158.892 20.6753 158.888 20.6859L158.786 21.1468C158.783 21.1574 158.772 21.1644 158.762 21.1609L158.107 21.0131Z" fill="#5E5E5D"/>
<path d="M159.934 21.5583L159.279 21.4105C159.198 21.3929 159.145 21.312 159.163 21.2276L159.265 20.7666C159.283 20.6857 159.364 20.6329 159.448 20.6505L160.103 20.7983C160.183 20.8159 160.236 20.8968 160.219 20.9813L160.117 21.4422C160.095 21.5231 160.015 21.5759 159.934 21.5583Z" fill="#585857"/>
<path d="M159.307 21.2803C159.297 21.2768 159.29 21.2662 159.293 21.2556L159.395 20.7947C159.399 20.7842 159.41 20.7771 159.42 20.7806L160.075 20.9284C160.085 20.9319 160.092 20.9425 160.089 20.9531L159.987 21.414C159.983 21.4245 159.972 21.4316 159.962 21.4281L159.307 21.2803Z" fill="#5E5E5D"/>
<path d="M161.133 21.8259L160.479 21.6781C160.398 21.6605 160.345 21.5796 160.363 21.4951L160.465 21.0342C160.482 20.9533 160.563 20.9005 160.648 20.9181L161.302 21.0659C161.383 21.0835 161.436 21.1644 161.418 21.2488L161.316 21.7098C161.295 21.7942 161.214 21.847 161.133 21.8259Z" fill="#585857"/>
<path d="M160.507 21.5513C160.497 21.5478 160.49 21.5373 160.493 21.5267L160.595 21.0658C160.599 21.0552 160.609 21.0482 160.62 21.0517L161.274 21.1995C161.285 21.203 161.292 21.2136 161.288 21.2241L161.186 21.685C161.183 21.6956 161.172 21.7026 161.162 21.6991L160.507 21.5513Z" fill="#5E5E5D"/>
<path d="M162.333 22.0966L161.679 21.9488C161.598 21.9312 161.545 21.8503 161.562 21.7658L161.665 21.3049C161.682 21.224 161.763 21.1712 161.847 21.1888L162.502 21.3366C162.583 21.3542 162.636 21.4351 162.618 21.5195L162.516 21.9805C162.495 22.0649 162.414 22.1142 162.333 22.0966Z" fill="#585857"/>
<path d="M161.707 21.822C161.696 21.8185 161.689 21.808 161.693 21.7974L161.795 21.3365C161.798 21.3259 161.809 21.3189 161.819 21.3224L162.474 21.4702C162.484 21.4737 162.492 21.4842 162.488 21.4948L162.386 21.9557C162.382 21.9663 162.372 21.9733 162.361 21.9698L161.707 21.822Z" fill="#5E5E5D"/>
<path d="M163.53 22.3674L162.875 22.2197C162.794 22.2021 162.742 22.1211 162.759 22.0367L162.861 21.5758C162.879 21.4948 162.96 21.4421 163.044 21.4597L163.699 21.6074C163.78 21.625 163.832 21.706 163.815 21.7904L163.713 22.2513C163.695 22.3323 163.614 22.385 163.53 22.3674Z" fill="#585857"/>
<path d="M162.907 22.0898C162.896 22.0862 162.889 22.0757 162.893 22.0651L162.995 21.6042C162.998 21.5936 163.009 21.5866 163.019 21.5901L163.674 21.7379C163.684 21.7414 163.691 21.752 163.688 21.7625L163.586 22.2235C163.582 22.234 163.572 22.2411 163.561 22.2375L162.907 22.0898Z" fill="#5E5E5D"/>
<path d="M146.07 18.6031L146.879 18.7861C146.971 18.8072 147.031 18.8987 147.009 18.9937L146.83 19.7889C146.809 19.8804 146.717 19.9402 146.622 19.9191L145.813 19.7361C145.722 19.715 145.662 19.6235 145.683 19.5285L145.862 18.7333C145.884 18.6418 145.975 18.582 146.07 18.6031Z" fill="#585857"/>
<path d="M145.846 19.6055C145.825 19.602 145.81 19.5774 145.814 19.5563L145.993 18.7611C145.997 18.74 146.022 18.7259 146.043 18.7294L146.852 18.9124C146.873 18.9159 146.887 18.9405 146.884 18.9616L146.704 19.7568C146.701 19.778 146.676 19.792 146.655 19.7885L145.846 19.6055Z" fill="#5E5E5D"/>
<path d="M147.453 18.9155L148.263 19.0985C148.354 19.1196 148.414 19.2111 148.393 19.3061L148.213 20.1013C148.192 20.1927 148.101 20.2526 148.006 20.2314L147.196 20.0485C147.105 20.0274 147.045 19.9359 147.066 19.8409L147.246 19.0457C147.267 18.9507 147.358 18.8944 147.453 18.9155Z" fill="#585857"/>
<path d="M147.228 19.9185C147.206 19.915 147.192 19.8903 147.196 19.8692L147.375 19.074C147.379 19.0529 147.403 19.0388 147.425 19.0423L148.234 19.2253C148.255 19.2288 148.269 19.2535 148.265 19.2746L148.086 20.0698C148.083 20.0909 148.058 20.105 148.037 20.1014L147.228 19.9185Z" fill="#5E5E5D"/>
<path d="M148.836 19.2255L149.645 19.4084C149.737 19.4295 149.797 19.521 149.776 19.616L149.596 20.4112C149.575 20.5027 149.484 20.5625 149.389 20.5414L148.579 20.3584C148.488 20.3373 148.428 20.2459 148.449 20.1509L148.629 19.3557C148.65 19.2642 148.745 19.2044 148.836 19.2255Z" fill="#585857"/>
<path d="M148.61 20.2281C148.589 20.2246 148.575 20.1999 148.579 20.1788L148.758 19.3836C148.762 19.3625 148.786 19.3484 148.807 19.3519L149.617 19.5349C149.638 19.5384 149.652 19.5631 149.648 19.5842L149.469 20.3794C149.465 20.4005 149.441 20.4146 149.42 20.411L148.61 20.2281Z" fill="#5E5E5D"/>
<path d="M150.219 19.5351L151.028 19.718C151.12 19.7391 151.179 19.8306 151.158 19.9256L150.979 20.7208C150.958 20.8123 150.866 20.8721 150.771 20.851L149.962 20.6681C149.871 20.6469 149.811 20.5555 149.832 20.4605L150.011 19.6653C150.032 19.5738 150.127 19.514 150.219 19.5351Z" fill="#585857"/>
<path d="M149.994 20.541C149.973 20.5375 149.959 20.5128 149.962 20.4917L150.142 19.6965C150.145 19.6754 150.17 19.6613 150.191 19.6648L151 19.8478C151.022 19.8513 151.036 19.876 151.032 19.8971L150.853 20.6923C150.849 20.7134 150.825 20.7275 150.803 20.7239L149.994 20.541Z" fill="#5E5E5D"/>
<path d="M151.602 19.8487L152.411 20.0317C152.502 20.0528 152.562 20.1443 152.541 20.2393L152.362 21.0345C152.341 21.1259 152.249 21.1858 152.154 21.1646L151.345 20.9817C151.253 20.9606 151.194 20.8691 151.215 20.7741L151.394 19.9789C151.419 19.8839 151.51 19.8276 151.602 19.8487Z" fill="#585857"/>
<path d="M151.376 20.8509C151.355 20.8474 151.341 20.8228 151.345 20.8017L151.524 20.0065C151.528 19.9854 151.552 19.9713 151.573 19.9748L152.383 20.1578C152.404 20.1613 152.418 20.1859 152.414 20.207L152.235 21.0022C152.231 21.0233 152.207 21.0374 152.186 21.0339L151.376 20.8509Z" fill="#5E5E5D"/>
<path d="M152.985 20.1581L153.794 20.3411C153.885 20.3622 153.945 20.4537 153.924 20.5487L153.745 21.3439C153.723 21.4354 153.632 21.4952 153.537 21.4741L152.728 21.2911C152.636 21.27 152.576 21.1785 152.598 21.0835L152.777 20.2883C152.802 20.1968 152.893 20.137 152.985 20.1581Z" fill="#585857"/>
<path d="M152.759 21.1609C152.738 21.1574 152.724 21.1328 152.727 21.1116L152.907 20.3164C152.91 20.2953 152.935 20.2813 152.956 20.2848L153.765 20.4677C153.786 20.4713 153.8 20.4959 153.797 20.517L153.617 21.3122C153.614 21.3333 153.589 21.3474 153.568 21.3439L152.759 21.1609Z" fill="#5E5E5D"/>
<path d="M154.367 20.4712L155.177 20.6542C155.268 20.6753 155.328 20.7668 155.307 20.8618L155.127 21.657C155.106 21.7485 155.015 21.8083 154.92 21.7872L154.111 21.6042C154.019 21.5831 153.959 21.4916 153.98 21.3966L154.16 20.6014C154.184 20.5064 154.276 20.4501 154.367 20.4712Z" fill="#585857"/>
<path d="M154.142 21.4738C154.121 21.4703 154.107 21.4457 154.11 21.4246L154.29 20.6294C154.293 20.6083 154.318 20.5942 154.339 20.5977L155.148 20.7807C155.169 20.7842 155.184 20.8088 155.18 20.8299L155.001 21.6251C154.997 21.6462 154.972 21.6603 154.951 21.6568L154.142 21.4738Z" fill="#5E5E5D"/>
<path d="M155.754 20.781L156.563 20.964C156.654 20.9851 156.714 21.0766 156.693 21.1716L156.514 21.9668C156.492 22.0583 156.401 22.1181 156.306 22.097L155.497 21.914C155.405 21.8929 155.345 21.8014 155.367 21.7064L155.546 20.9112C155.567 20.8197 155.659 20.7599 155.754 20.781Z" fill="#585857"/>
<path d="M155.525 21.7838C155.504 21.7803 155.49 21.7557 155.493 21.7345L155.673 20.9393C155.676 20.9182 155.701 20.9042 155.722 20.9077L156.531 21.0906C156.552 21.0942 156.566 21.1188 156.563 21.1399L156.383 21.9351C156.38 21.9562 156.355 21.9703 156.334 21.9668L155.525 21.7838Z" fill="#5E5E5D"/>
<path d="M157.136 21.0902L157.946 21.2732C158.037 21.2943 158.097 21.3858 158.076 21.4808L157.896 22.276C157.875 22.3675 157.784 22.4273 157.689 22.4062L156.88 22.2232C156.788 22.2021 156.728 22.1106 156.749 22.0156L156.929 21.2204C156.95 21.1289 157.041 21.0691 157.136 21.0902Z" fill="#585857"/>
<path d="M156.912 22.0964C156.89 22.0928 156.876 22.0682 156.88 22.0471L157.059 21.2519C157.063 21.2308 157.088 21.2167 157.109 21.2202L157.918 21.4032C157.939 21.4067 157.953 21.4313 157.95 21.4525L157.77 22.2477C157.767 22.2688 157.742 22.2828 157.721 22.2793L156.912 22.0964Z" fill="#5E5E5D"/>
<path d="M158.519 21.4033L159.328 21.5863C159.42 21.6074 159.48 21.6989 159.459 21.7939L159.279 22.5891C159.258 22.6806 159.167 22.7404 159.072 22.7193L158.262 22.5363C158.171 22.5152 158.111 22.4237 158.132 22.3287L158.312 21.5335C158.333 21.4385 158.424 21.3822 158.519 21.4033Z" fill="#585857"/>
<path d="M158.294 22.4061C158.273 22.4026 158.259 22.378 158.262 22.3569L158.442 21.5617C158.445 21.5406 158.47 21.5265 158.491 21.53L159.3 21.713C159.321 21.7165 159.335 21.7411 159.332 21.7622L159.152 22.5574C159.149 22.5786 159.124 22.5926 159.103 22.5891L158.294 22.4061Z" fill="#5E5E5D"/>
<path d="M159.902 21.7131L160.711 21.8961C160.803 21.9172 160.863 22.0087 160.841 22.1037L160.662 22.8989C160.641 22.9904 160.549 23.0502 160.454 23.0291L159.649 22.8461C159.557 22.825 159.497 22.7335 159.518 22.6385L159.698 21.8433C159.715 21.7518 159.807 21.692 159.902 21.7131Z" fill="#585857"/>
<path d="M159.677 22.7161C159.656 22.7126 159.642 22.6879 159.645 22.6668L159.825 21.8716C159.828 21.8505 159.853 21.8364 159.874 21.84L160.683 22.0229C160.704 22.0264 160.718 22.0511 160.715 22.0722L160.532 22.8674C160.528 22.8885 160.504 22.9026 160.482 22.899L159.677 22.7161Z" fill="#5E5E5D"/>
<path d="M161.284 22.0266L162.094 22.2095C162.185 22.2307 162.245 22.3221 162.224 22.4171L162.044 23.2123C162.023 23.3038 161.932 23.3636 161.837 23.3425L161.028 23.1596C160.936 23.1384 160.876 23.047 160.897 22.952L161.077 22.1568C161.098 22.0618 161.193 22.0055 161.284 22.0266Z" fill="#585857"/>
<path d="M161.06 23.0296C161.038 23.026 161.024 23.0014 161.028 22.9803L161.207 22.1851C161.211 22.164 161.235 22.1499 161.257 22.1534L162.066 22.3364C162.087 22.3399 162.101 22.3645 162.098 22.3857L161.918 23.1809C161.915 23.202 161.89 23.216 161.869 23.2125L161.06 23.0296Z" fill="#5E5E5D"/>
<path d="M162.667 22.336L163.476 22.519C163.568 22.5401 163.628 22.6316 163.607 22.7266L163.427 23.5218C163.406 23.6132 163.315 23.6731 163.22 23.652L162.41 23.469C162.319 23.4479 162.259 23.3564 162.28 23.2614L162.463 22.4662C162.481 22.3747 162.576 22.3149 162.667 22.336Z" fill="#585857"/>
<path d="M162.442 23.3386C162.421 23.3351 162.407 23.3105 162.411 23.2893L162.59 22.4942C162.594 22.473 162.618 22.459 162.639 22.4625L163.449 22.6454C163.47 22.649 163.484 22.6736 163.48 22.6947L163.301 23.4899C163.297 23.511 163.273 23.5251 163.252 23.5216L162.442 23.3386Z" fill="#5E5E5D"/>
<path d="M145.778 19.8906L146.588 20.0735C146.679 20.0946 146.739 20.1861 146.718 20.2811L146.539 21.0763C146.517 21.1678 146.426 21.2276 146.331 21.2065L145.522 21.0235C145.43 21.0024 145.37 20.911 145.391 20.816L145.574 20.0208C145.596 19.9293 145.687 19.8695 145.778 19.8906Z" fill="#585857"/>
<path d="M145.553 20.8932C145.532 20.8897 145.518 20.865 145.522 20.8439L145.701 20.0487C145.705 20.0276 145.729 20.0135 145.75 20.017L146.56 20.2C146.581 20.2035 146.595 20.2282 146.591 20.2493L146.412 21.0445C146.408 21.0656 146.384 21.0797 146.362 21.0761L145.553 20.8932Z" fill="#5E5E5D"/>
<path d="M147.165 20.2037L147.974 20.3866C148.065 20.4077 148.125 20.4992 148.104 20.5942L147.925 21.3894C147.904 21.4809 147.812 21.5407 147.717 21.5196L146.908 21.3367C146.816 21.3155 146.757 21.2241 146.778 21.1291L146.957 20.3339C146.978 20.2389 147.07 20.1826 147.165 20.2037Z" fill="#585857"/>
<path d="M146.936 21.2061C146.914 21.2026 146.9 21.178 146.904 21.1568L147.083 20.3616C147.087 20.3405 147.111 20.3265 147.133 20.33L147.942 20.5129C147.963 20.5165 147.977 20.5411 147.974 20.5622L147.794 21.3574C147.791 21.3785 147.766 21.3926 147.745 21.3891L146.936 21.2061Z" fill="#5E5E5D"/>
<path d="M148.548 20.5133L149.357 20.6962C149.449 20.7174 149.509 20.8088 149.487 20.9038L149.308 21.699C149.287 21.7905 149.195 21.8503 149.1 21.8292L148.291 21.6463C148.2 21.6251 148.14 21.5337 148.161 21.4387L148.34 20.6435C148.362 20.552 148.453 20.4922 148.548 20.5133Z" fill="#585857"/>
<path d="M148.323 21.5161C148.302 21.5126 148.288 21.4879 148.291 21.4668L148.471 20.6716C148.474 20.6505 148.499 20.6364 148.52 20.6399L149.329 20.8229C149.35 20.8264 149.364 20.8511 149.361 20.8722L149.181 21.6674C149.178 21.6885 149.153 21.7026 149.132 21.699L148.323 21.5161Z" fill="#5E5E5D"/>
<path d="M149.93 20.8229L150.739 21.0058C150.831 21.027 150.89 21.1184 150.869 21.2134L150.69 22.0086C150.669 22.1001 150.577 22.1599 150.482 22.1388L149.673 21.9559C149.582 21.9348 149.522 21.8433 149.543 21.7483L149.722 20.9531C149.743 20.8616 149.835 20.8018 149.93 20.8229Z" fill="#585857"/>
<path d="M149.705 21.8259C149.683 21.8223 149.669 21.7977 149.673 21.7766L149.852 20.9814C149.856 20.9603 149.88 20.9462 149.902 20.9497L150.711 21.1327C150.732 21.1362 150.746 21.1608 150.743 21.182L150.563 21.9772C150.56 21.9983 150.535 22.0123 150.514 22.0088L149.705 21.8259Z" fill="#5E5E5D"/>
<path d="M151.314 21.1363L152.123 21.3193C152.214 21.3404 152.274 21.4319 152.253 21.5269L152.074 22.3221C152.053 22.4136 151.961 22.4734 151.866 22.4523L151.057 22.2693C150.965 22.2482 150.905 22.1567 150.927 22.0617L151.106 21.2665C151.127 21.1715 151.222 21.1152 151.314 21.1363Z" fill="#585857"/>
<path d="M151.088 22.1389C151.067 22.1354 151.053 22.1108 151.056 22.0897L151.236 21.2945C151.239 21.2734 151.264 21.2593 151.285 21.2628L152.094 21.4458C152.115 21.4493 152.129 21.4739 152.126 21.495L151.946 22.2902C151.943 22.3113 151.918 22.3254 151.897 22.3219L151.088 22.1389Z" fill="#5E5E5D"/>
<path d="M152.696 21.4454L153.505 21.6283C153.597 21.6495 153.657 21.7409 153.635 21.8359L153.456 22.6311C153.435 22.7226 153.343 22.7824 153.248 22.7613L152.439 22.5784C152.348 22.5572 152.288 22.4658 152.309 22.3708L152.488 21.5756C152.509 21.4841 152.604 21.4243 152.696 21.4454Z" fill="#585857"/>
<path d="M152.471 22.4487C152.45 22.4452 152.436 22.4206 152.44 22.3995L152.619 21.6043C152.622 21.5831 152.647 21.5691 152.668 21.5726L153.477 21.7556C153.499 21.7591 153.513 21.7837 153.509 21.8048L153.33 22.6C153.326 22.6211 153.302 22.6352 153.28 22.6317L152.471 22.4487Z" fill="#5E5E5D"/>
<path d="M154.079 21.7588L154.888 21.9418C154.98 21.9629 155.039 22.0544 155.018 22.1494L154.839 22.9446C154.818 23.0361 154.726 23.0959 154.631 23.0748L153.822 22.8918C153.73 22.8707 153.671 22.7792 153.692 22.6842L153.871 21.889C153.896 21.794 153.987 21.7377 154.079 21.7588Z" fill="#585857"/>
<path d="M153.854 22.7618C153.833 22.7583 153.819 22.7337 153.822 22.7126L154.002 21.9174C154.005 21.8963 154.03 21.8822 154.051 21.8857L154.86 22.0687C154.881 22.0722 154.895 22.0968 154.892 22.1179L154.713 22.9131C154.709 22.9342 154.684 22.9483 154.663 22.9448L153.854 22.7618Z" fill="#5E5E5D"/>
<path d="M155.461 22.0686L156.27 22.2516C156.362 22.2727 156.422 22.3642 156.401 22.4592L156.221 23.2544C156.2 23.3459 156.109 23.4057 156.014 23.3846L155.204 23.2016C155.113 23.1805 155.053 23.089 155.074 22.994L155.254 22.1988C155.278 22.1073 155.37 22.0475 155.461 22.0686Z" fill="#585857"/>
<path d="M155.236 23.0714C155.215 23.0679 155.201 23.0433 155.205 23.0222L155.384 22.227C155.388 22.2059 155.412 22.1918 155.433 22.1953L156.243 22.3783C156.264 22.3818 156.278 22.4064 156.274 22.4275L156.095 23.2227C156.091 23.2438 156.067 23.2579 156.046 23.2544L155.236 23.0714Z" fill="#5E5E5D"/>
<path d="M156.844 22.3782L157.654 22.5612C157.745 22.5823 157.805 22.6738 157.784 22.7688L157.604 23.564C157.583 23.6555 157.492 23.7153 157.397 23.6942L156.588 23.5112C156.496 23.4901 156.436 23.3986 156.457 23.3036L156.637 22.5084C156.661 22.4169 156.753 22.3571 156.844 22.3782Z" fill="#585857"/>
<path d="M156.619 23.3808C156.598 23.3773 156.584 23.3527 156.587 23.3316L156.767 22.5364C156.77 22.5153 156.795 22.5012 156.816 22.5047L157.625 22.6877C157.647 22.6912 157.661 22.7158 157.657 22.7369L157.478 23.5321C157.474 23.5533 157.45 23.5673 157.428 23.5638L156.619 23.3808Z" fill="#5E5E5D"/>
<path d="M158.227 22.6912L159.037 22.8741C159.128 22.8952 159.188 22.9867 159.167 23.0817L158.987 23.8769C158.966 23.9684 158.875 24.0282 158.78 24.0071L157.97 23.8241C157.879 23.803 157.819 23.7115 157.84 23.6165L158.02 22.8213C158.044 22.7263 158.136 22.67 158.227 22.6912Z" fill="#585857"/>
<path d="M158.001 23.6939C157.98 23.6904 157.966 23.6658 157.97 23.6447L158.149 22.8495C158.153 22.8284 158.177 22.8143 158.198 22.8178L159.008 23.0008C159.029 23.0043 159.043 23.0289 159.039 23.05L158.86 23.8452C158.856 23.8663 158.832 23.8804 158.811 23.8769L158.001 23.6939Z" fill="#5E5E5D"/>
<path d="M159.613 23.0011L160.422 23.1841C160.514 23.2052 160.574 23.2967 160.552 23.3917L160.373 24.1869C160.352 24.2784 160.26 24.3382 160.165 24.3171L159.356 24.1341C159.265 24.113 159.205 24.0215 159.226 23.9265L159.405 23.1313C159.426 23.0398 159.518 22.98 159.613 23.0011Z" fill="#585857"/>
<path d="M159.384 24.0037C159.363 24.0002 159.349 23.9756 159.353 23.9545L159.532 23.1593C159.536 23.1382 159.56 23.1241 159.581 23.1276L160.391 23.3106C160.412 23.3141 160.426 23.3387 160.422 23.3598L160.243 24.155C160.239 24.1761 160.215 24.1902 160.194 24.1867L159.384 24.0037Z" fill="#5E5E5D"/>
<path d="M160.996 23.3142L161.806 23.4972C161.897 23.5183 161.957 23.6098 161.936 23.7048L161.756 24.5C161.735 24.5914 161.644 24.6513 161.549 24.6302L160.739 24.4472C160.648 24.4261 160.588 24.3346 160.609 24.2396L160.789 23.4444C160.81 23.3494 160.901 23.2931 160.996 23.3142Z" fill="#585857"/>
<path d="M160.771 24.3172C160.75 24.3137 160.736 24.289 160.74 24.2679L160.919 23.4727C160.923 23.4516 160.947 23.4375 160.969 23.4411L161.778 23.624C161.799 23.6275 161.813 23.6522 161.809 23.6733L161.63 24.4685C161.626 24.4896 161.602 24.5037 161.581 24.5002L160.771 24.3172Z" fill="#5E5E5D"/>
<path d="M162.379 23.624L163.188 23.807C163.28 23.8281 163.34 23.9196 163.319 24.0146L163.139 24.8098C163.118 24.9012 163.027 24.9611 162.932 24.9399L162.122 24.757C162.031 24.7359 161.971 24.6444 161.992 24.5494L162.171 23.7542C162.193 23.6627 162.284 23.6029 162.379 23.624Z" fill="#585857"/>
<path d="M162.154 24.6264C162.133 24.6229 162.119 24.5983 162.122 24.5772L162.302 23.782C162.305 23.7609 162.33 23.7468 162.351 23.7503L163.16 23.9333C163.181 23.9368 163.195 23.9614 163.192 23.9825L163.012 24.7777C163.009 24.7988 162.984 24.8129 162.963 24.8094L162.154 24.6264Z" fill="#5E5E5D"/>
<path d="M145.49 21.1784L146.299 21.3613C146.391 21.3825 146.45 21.4739 146.429 21.5689L146.25 22.3641C146.229 22.4556 146.137 22.5154 146.042 22.4943L145.233 22.3114C145.142 22.2902 145.082 22.1988 145.103 22.1038L145.282 21.3086C145.307 21.2171 145.398 21.1573 145.49 21.1784Z" fill="#585857"/>
<path d="M145.265 22.181C145.244 22.1775 145.229 22.1528 145.233 22.1317L145.412 21.3365C145.416 21.3154 145.441 21.3013 145.462 21.3049L146.271 21.4878C146.292 21.4913 146.306 21.516 146.303 21.5371L146.123 22.3323C146.12 22.3534 146.095 22.3675 146.074 22.364L145.265 22.181Z" fill="#5E5E5D"/>
<path d="M146.873 21.4877L147.682 21.6706C147.773 21.6918 147.833 21.7832 147.812 21.8782L147.633 22.6734C147.612 22.7649 147.52 22.8247 147.425 22.8036L146.616 22.6207C146.524 22.5995 146.465 22.5081 146.486 22.4131L146.665 21.6179C146.69 21.5264 146.781 21.4701 146.873 21.4877Z" fill="#585857"/>
<path d="M146.647 22.4945C146.626 22.4909 146.612 22.4663 146.616 22.4452L146.795 21.65C146.799 21.6289 146.823 21.6148 146.844 21.6183L147.654 21.8013C147.675 21.8048 147.689 21.8295 147.685 21.8506L147.506 22.6458C147.502 22.6669 147.478 22.6809 147.457 22.6774L146.647 22.4945Z" fill="#5E5E5D"/>
<path d="M148.255 21.8009L149.064 21.9839C149.156 22.005 149.216 22.0965 149.195 22.1915L149.015 22.9867C148.994 23.0782 148.902 23.138 148.807 23.1169L147.998 22.9339C147.907 22.9128 147.847 22.8213 147.868 22.7263L148.047 21.9311C148.072 21.8396 148.164 21.7798 148.255 21.8009Z" fill="#585857"/>
<path d="M148.03 22.8039C148.009 22.8004 147.995 22.7757 147.999 22.7546L148.178 21.9594C148.182 21.9383 148.206 21.9242 148.227 21.9278L149.037 22.1107C149.058 22.1142 149.072 22.1389 149.068 22.16L148.889 22.9552C148.885 22.9763 148.861 22.9904 148.84 22.9868L148.03 22.8039Z" fill="#5E5E5D"/>
<path d="M149.642 22.1109L150.452 22.2938C150.543 22.315 150.603 22.4064 150.582 22.5014L150.402 23.2966C150.381 23.3881 150.29 23.4479 150.195 23.4268L149.385 23.2439C149.294 23.2227 149.234 23.1313 149.255 23.0363L149.435 22.2411C149.456 22.1496 149.547 22.0898 149.642 22.1109Z" fill="#585857"/>
<path d="M149.414 23.1135C149.392 23.11 149.378 23.0853 149.382 23.0642L149.561 22.269C149.565 22.2479 149.589 22.2338 149.611 22.2374L150.42 22.4203C150.441 22.4238 150.455 22.4485 150.452 22.4696L150.272 23.2648C150.269 23.2859 150.244 23.3 150.223 23.2964L149.414 23.1135Z" fill="#5E5E5D"/>
<path d="M151.025 22.4241L151.834 22.6071C151.925 22.6282 151.985 22.7197 151.964 22.8147L151.785 23.6099C151.763 23.7014 151.672 23.7612 151.577 23.7401L150.768 23.5571C150.676 23.536 150.616 23.4445 150.638 23.3495L150.817 22.5543C150.838 22.4593 150.93 22.403 151.025 22.4241Z" fill="#585857"/>
<path d="M150.799 23.4267C150.778 23.4232 150.764 23.3986 150.768 23.3775L150.947 22.5823C150.951 22.5612 150.975 22.5471 150.996 22.5506L151.806 22.7336C151.827 22.7371 151.841 22.7617 151.837 22.7828L151.658 23.578C151.654 23.5992 151.63 23.6132 151.609 23.6097L150.799 23.4267Z" fill="#5E5E5D"/>
<path d="M152.408 22.7337L153.218 22.9167C153.309 22.9378 153.369 23.0293 153.348 23.1243L153.168 23.9195C153.147 24.011 153.056 24.0708 152.961 24.0497L152.152 23.8667C152.06 23.8456 152 23.7541 152.021 23.6591L152.201 22.8639C152.222 22.7724 152.313 22.7126 152.408 22.7337Z" fill="#585857"/>
<path d="M152.182 23.7363C152.161 23.7328 152.146 23.7082 152.15 23.6871L152.329 22.8919C152.333 22.8708 152.358 22.8567 152.379 22.8602L153.188 23.0432C153.209 23.0467 153.223 23.0713 153.22 23.0924L153.04 23.8876C153.037 23.9088 153.012 23.9228 152.991 23.9193L152.182 23.7363Z" fill="#5E5E5D"/>
<path d="M153.79 23.0431L154.599 23.226C154.691 23.2471 154.751 23.3386 154.73 23.4336L154.55 24.2288C154.529 24.3203 154.438 24.3801 154.343 24.359L153.533 24.176C153.442 24.1549 153.382 24.0635 153.403 23.9685L153.583 23.1733C153.604 23.0818 153.695 23.0255 153.79 23.0431Z" fill="#585857"/>
<path d="M153.565 24.0493C153.544 24.0458 153.53 24.0211 153.534 24L153.713 23.2048C153.717 23.1837 153.741 23.1696 153.762 23.1731L154.572 23.3561C154.593 23.3596 154.607 23.3843 154.603 23.4054L154.424 24.2006C154.42 24.2217 154.396 24.2358 154.375 24.2322L153.565 24.0493Z" fill="#5E5E5D"/>
<path d="M155.173 23.3563L155.982 23.5392C156.074 23.5603 156.134 23.6518 156.112 23.7468L155.933 24.542C155.912 24.6335 155.82 24.6933 155.725 24.6722L154.916 24.4892C154.825 24.4681 154.765 24.3766 154.786 24.2816L154.965 23.4864C154.987 23.3914 155.082 23.3351 155.173 23.3563Z" fill="#585857"/>
<path d="M154.948 24.3591C154.927 24.3555 154.913 24.3309 154.916 24.3098L155.096 23.5146C155.099 23.4935 155.124 23.4794 155.145 23.4829L155.954 23.6659C155.975 23.6694 155.989 23.694 155.986 23.7152L155.806 24.5104C155.803 24.5315 155.778 24.5455 155.757 24.542L154.948 24.3591Z" fill="#5E5E5D"/>
<path d="M156.556 23.6661L157.365 23.849C157.457 23.8701 157.516 23.9616 157.495 24.0566L157.316 24.8518C157.295 24.9433 157.203 25.0031 157.108 24.982L156.299 24.799C156.208 24.7779 156.148 24.6864 156.169 24.5914L156.348 23.7962C156.369 23.7048 156.464 23.6449 156.556 23.6661Z" fill="#585857"/>
<path d="M156.331 24.6687C156.309 24.6651 156.295 24.6405 156.299 24.6194L156.478 23.8242C156.482 23.8031 156.506 23.789 156.528 23.7925L157.337 23.9755C157.358 23.979 157.372 24.0036 157.369 24.0248L157.186 24.82C157.182 24.8411 157.157 24.8551 157.136 24.8516L156.331 24.6687Z" fill="#5E5E5D"/>
<path d="M157.938 23.9788L158.747 24.1618C158.839 24.1829 158.899 24.2743 158.878 24.3693L158.698 25.1645C158.677 25.256 158.586 25.3158 158.491 25.2947L157.681 25.1118C157.59 25.0907 157.53 24.9992 157.551 24.9042L157.731 24.109C157.755 24.014 157.847 23.9577 157.938 23.9788Z" fill="#585857"/>
<path d="M157.713 24.9818C157.692 24.9782 157.678 24.9571 157.681 24.9325L157.861 24.1373C157.864 24.1162 157.889 24.1021 157.91 24.1056L158.719 24.2886C158.74 24.2921 158.754 24.3168 158.751 24.3379L158.571 25.1331C158.568 25.1542 158.543 25.1683 158.522 25.1647L157.713 24.9818Z" fill="#5E5E5D"/>
<path d="M159.322 24.2886L160.131 24.4715C160.223 24.4927 160.283 24.5841 160.261 24.6791L160.082 25.4743C160.061 25.5658 159.969 25.6256 159.874 25.6045L159.065 25.4216C158.974 25.4004 158.914 25.309 158.935 25.214L159.114 24.4188C159.139 24.3273 159.23 24.2675 159.322 24.2886Z" fill="#585857"/>
<path d="M159.096 25.2915C159.075 25.288 159.06 25.2634 159.064 25.2423L159.243 24.4471C159.247 24.426 159.272 24.4119 159.293 24.4154L160.102 24.5984C160.123 24.6019 160.137 24.6265 160.134 24.6476L159.954 25.4428C159.951 25.4639 159.926 25.478 159.905 25.4745L159.096 25.2915Z" fill="#5E5E5D"/>
<path d="M160.704 24.5985L161.513 24.7815C161.605 24.8026 161.664 24.8941 161.643 24.9891L161.464 25.7843C161.443 25.8758 161.351 25.9356 161.256 25.9145L160.447 25.7315C160.355 25.7104 160.296 25.6189 160.317 25.5239L160.496 24.7287C160.521 24.6373 160.612 24.5774 160.704 24.5985Z" fill="#585857"/>
<path d="M160.478 25.6046C160.457 25.6011 160.443 25.5765 160.447 25.5554L160.626 24.7602C160.63 24.7391 160.654 24.725 160.676 24.7285L161.485 24.9115C161.506 24.915 161.52 24.9396 161.516 24.9607L161.337 25.7524C161.334 25.7735 161.309 25.7876 161.288 25.7841L160.478 25.6046Z" fill="#5E5E5D"/>
<path d="M162.091 24.9114L162.9 25.0944C162.992 25.1155 163.052 25.207 163.03 25.302L162.851 26.0972C162.83 26.1887 162.738 26.2485 162.643 26.2274L161.834 26.0444C161.743 26.0233 161.683 25.9318 161.704 25.8368L161.883 25.0416C161.905 24.9466 161.996 24.8903 162.091 24.9114Z" fill="#585857"/>
<path d="M161.862 25.9142C161.841 25.9107 161.827 25.8861 161.83 25.865L162.01 25.0698C162.013 25.0487 162.038 25.0346 162.059 25.0381L162.868 25.2211C162.889 25.2246 162.903 25.2492 162.9 25.2703L162.72 26.0655C162.717 26.0866 162.692 26.1007 162.671 26.0972L161.862 25.9142Z" fill="#5E5E5D"/>
<path d="M145.201 22.4662L146.011 22.6492C146.102 22.6703 146.162 22.7618 146.141 22.8568L145.961 23.652C145.94 23.7434 145.849 23.8033 145.754 23.7821L144.944 23.5992C144.853 23.5781 144.793 23.4866 144.814 23.3916L144.994 22.5964C145.015 22.5049 145.11 22.4451 145.201 22.4662Z" fill="#585857"/>
<path d="M144.976 23.469C144.955 23.4655 144.941 23.4408 144.944 23.4197L145.124 22.6245C145.127 22.6034 145.152 22.5893 145.173 22.5929L145.982 22.7758C146.003 22.7793 146.018 22.804 146.014 22.8251L145.835 23.6203C145.831 23.6414 145.806 23.6555 145.785 23.6519L144.976 23.469Z" fill="#5E5E5D"/>
<path d="M146.584 22.7758L147.393 22.9588C147.485 22.9799 147.545 23.0714 147.524 23.1664L147.344 23.9616C147.323 24.053 147.232 24.1129 147.137 24.0917L146.327 23.9088C146.236 23.8877 146.176 23.7962 146.197 23.7012L146.377 22.906C146.398 22.8145 146.493 22.7547 146.584 22.7758Z" fill="#585857"/>
<path d="M146.359 23.7784C146.338 23.7749 146.324 23.7503 146.327 23.7291L146.507 22.9339C146.51 22.9128 146.535 22.8988 146.556 22.9023L147.365 23.0852C147.386 23.0888 147.4 23.1134 147.397 23.1345L147.217 23.9297C147.214 23.9508 147.189 23.9649 147.168 23.9614L146.359 23.7784Z" fill="#5E5E5D"/>
<path d="M147.967 23.0889L148.776 23.2719C148.868 23.293 148.928 23.3845 148.906 23.4795L148.727 24.2747C148.706 24.3661 148.614 24.426 148.519 24.4048L147.71 24.2219C147.619 24.2008 147.559 24.1093 147.58 24.0143L147.763 23.2191C147.784 23.1241 147.875 23.0678 147.967 23.0889Z" fill="#585857"/>
<path d="M147.742 24.0915C147.721 24.088 147.707 24.0634 147.71 24.0422L147.89 23.247C147.893 23.2259 147.918 23.2119 147.939 23.2154L148.748 23.3983C148.77 23.4019 148.784 23.4265 148.78 23.4476L148.601 24.2428C148.597 24.2639 148.573 24.278 148.551 24.2745L147.742 24.0915Z" fill="#5E5E5D"/>
<path d="M149.35 23.3987L150.159 23.5817C150.251 23.6028 150.31 23.6942 150.289 23.7892L150.11 24.5844C150.089 24.6759 149.997 24.7357 149.902 24.7146L149.093 24.5317C149.001 24.5106 148.942 24.4191 148.963 24.3241L149.142 23.5289C149.167 23.4374 149.258 23.3776 149.35 23.3987Z" fill="#585857"/>
<path d="M149.125 24.4015C149.104 24.398 149.09 24.3733 149.093 24.3522L149.273 23.557C149.276 23.5359 149.301 23.5218 149.322 23.5253L150.131 23.7083C150.152 23.7118 150.166 23.7365 150.163 23.7576L149.984 24.5528C149.98 24.5739 149.955 24.588 149.934 24.5844L149.125 24.4015Z" fill="#5E5E5D"/>
<path d="M155.69 24.8235L150.726 23.7081C150.634 23.687 150.546 23.7433 150.525 23.8348L150.331 24.6898C150.317 24.7531 150.356 24.8165 150.419 24.8305L155.43 25.9565C155.521 25.9776 155.616 25.9178 155.638 25.8263L155.817 25.0311C155.842 24.9396 155.785 24.8446 155.69 24.8235Z" fill="#585857"/>
<path d="M150.469 24.7037L150.659 23.8627C150.662 23.8451 150.683 23.8311 150.701 23.8381L155.666 24.9535C155.687 24.957 155.701 24.9816 155.697 25.0027L155.518 25.7979C155.514 25.8191 155.49 25.8331 155.469 25.8296L150.469 24.7037Z" fill="#5E5E5D"/>
<path d="M156.268 24.9537L157.077 25.1366C157.169 25.1578 157.228 25.2492 157.207 25.3442L157.028 26.1394C157.007 26.2309 156.915 26.2907 156.82 26.2696L156.011 26.0867C155.919 26.0656 155.86 25.9741 155.881 25.8791L156.06 25.0839C156.081 24.9924 156.173 24.9326 156.268 24.9537Z" fill="#585857"/>
<path d="M156.042 25.9565C156.021 25.9529 156.007 25.9283 156.01 25.9072L156.19 25.112C156.193 25.0909 156.218 25.0768 156.239 25.0803L157.048 25.2633C157.069 25.2668 157.083 25.2915 157.08 25.3126L156.901 26.1078C156.897 26.1289 156.872 26.143 156.851 26.1394L156.042 25.9565Z" fill="#5E5E5D"/>
<path d="M157.65 25.2668L158.459 25.4497C158.551 25.4709 158.611 25.5623 158.59 25.6573L158.41 26.4525C158.389 26.544 158.297 26.6038 158.202 26.5827L157.393 26.3998C157.302 26.3787 157.242 26.2872 157.263 26.1922L157.442 25.397C157.464 25.302 157.559 25.2457 157.65 25.2668Z" fill="#585857"/>
<path d="M157.425 26.2698C157.404 26.2662 157.39 26.2416 157.393 26.2205L157.573 25.4253C157.576 25.4042 157.601 25.3901 157.622 25.3936L158.431 25.5766C158.452 25.5801 158.466 25.6048 158.463 25.6259L158.283 26.4211C158.28 26.4422 158.255 26.4562 158.234 26.4527L157.425 26.2698Z" fill="#5E5E5D"/>
<path d="M159.032 25.5769L159.842 25.7599C159.933 25.781 159.993 25.8725 159.972 25.9675L159.792 26.7627C159.771 26.8542 159.68 26.914 159.585 26.8929L158.776 26.7099C158.684 26.6888 158.624 26.5973 158.645 26.5023L158.825 25.7071C158.846 25.6156 158.941 25.5558 159.032 25.5769Z" fill="#585857"/>
<path d="M158.807 26.5794C158.786 26.5758 158.772 26.5512 158.775 26.5301L158.955 25.7349C158.958 25.7138 158.983 25.6997 159.004 25.7032L159.813 25.8862C159.835 25.8897 159.849 25.9144 159.845 25.9355L159.666 26.7307C159.662 26.7518 159.641 26.7658 159.616 26.7623L158.807 26.5794Z" fill="#5E5E5D"/>
<path d="M160.416 25.8862L161.225 26.0691C161.316 26.0903 161.376 26.1817 161.355 26.2767L161.176 27.0719C161.155 27.1634 161.063 27.2232 160.968 27.2021L160.159 27.0192C160.067 26.998 160.008 26.9066 160.029 26.8116L160.208 26.0164C160.233 25.9249 160.324 25.8651 160.416 25.8862Z" fill="#585857"/>
<path d="M160.191 26.8889C160.17 26.8854 160.156 26.8608 160.159 26.8397L160.339 26.0445C160.342 26.0234 160.367 26.0093 160.388 26.0128L161.197 26.1958C161.218 26.1993 161.232 26.2239 161.229 26.245L161.049 27.0402C161.046 27.0613 161.021 27.0754 161 27.0719L160.191 26.8889Z" fill="#5E5E5D"/>
<path d="M161.799 26.1996L162.608 26.3826C162.699 26.4037 162.759 26.4952 162.738 26.5902L162.559 27.3854C162.537 27.4769 162.446 27.5367 162.351 27.5156L161.542 27.3326C161.45 27.3115 161.39 27.22 161.411 27.125L161.591 26.3298C161.616 26.2348 161.707 26.1785 161.799 26.1996Z" fill="#585857"/>
<path d="M161.574 27.2022C161.553 27.1987 161.539 27.1741 161.542 27.153L161.721 26.3578C161.725 26.3367 161.75 26.3226 161.771 26.3261L162.58 26.5091C162.601 26.5126 162.615 26.5372 162.612 26.5583L162.432 27.3535C162.429 27.3746 162.404 27.3887 162.383 27.3852L161.574 27.2022Z" fill="#5E5E5D"/>
<path d="M155.44 27.0685L151.38 26.1572C151.197 26.115 151.014 26.2311 150.975 26.4141L150.486 28.5851C150.444 28.768 150.56 28.951 150.743 28.9897L154.804 29.901C154.986 29.9432 155.169 29.8271 155.208 29.6441L155.697 27.4732C155.739 27.2902 155.623 27.1108 155.44 27.0685Z" fill="#EDEDED"/>
<path d="M155.472 26.9383L151.412 26.027C151.158 25.9707 150.905 26.129 150.849 26.3823L150.36 28.5533C150.303 28.8066 150.462 29.06 150.715 29.1163L154.775 30.0276C155.029 30.0839 155.282 29.9255 155.338 29.6722L155.827 27.5012C155.884 27.2479 155.725 26.9981 155.472 26.9383ZM155.212 29.6441C155.169 29.827 154.99 29.9431 154.807 29.9009L150.747 28.9896C150.564 28.9474 150.447 28.7679 150.49 28.585L150.979 26.414C151.021 26.231 151.2 26.1149 151.383 26.1571L155.444 27.0685C155.627 27.1107 155.743 27.2901 155.701 27.4731L155.212 29.6441Z" fill="#9D9B9B"/>
<path d="M150.729 27.5149L150.49 28.5846C150.448 28.7675 150.564 28.9505 150.747 28.9892L154.807 29.9005C154.99 29.9427 155.173 29.8266 155.212 29.6437L155.451 28.574L150.729 27.5149Z" fill="#DFDFDE"/>
<path d="M153.073 28.0397L150.729 27.512L150.49 28.5816C150.448 28.7646 150.564 28.9475 150.747 28.9862L152.76 29.4401L153.073 28.0397Z" fill="#D9D9DA"/>
<path d="M165.183 20.837L145.247 16.3543C145.131 16.3262 145.05 16.2171 145.06 16.0975L147.147 4.69024C147.175 4.37709 147.471 4.16246 147.777 4.23283L168.083 8.79994C168.389 8.87031 168.565 9.1905 168.456 9.48606L165.461 20.6857C165.419 20.7983 165.303 20.8651 165.183 20.837Z" fill="#E3E1E1"/>
<path d="M145.93 15.2599L147.855 5.62951C147.883 5.33395 148.161 5.12987 148.449 5.19672L167.059 9.38031C167.348 9.44365 167.513 9.74976 167.411 10.0277L165.032 19.5525C164.948 19.7847 164.705 19.9149 164.462 19.8622L146.314 15.7806C146.071 15.7278 145.909 15.5026 145.93 15.2599Z" fill="#C7C7C6"/>
<path d="M146.063 15.274L147.988 5.63666C148.009 5.42202 148.21 5.27424 148.421 5.3235L167.037 9.51061C167.245 9.55635 167.368 9.77802 167.294 9.97858L164.909 19.5104C164.849 19.6793 164.673 19.7743 164.497 19.7356L146.338 15.6505C146.165 15.6118 146.046 15.45 146.063 15.274Z" fill="#C6E6F2"/>
<path opacity="0.24" d="M146.352 14.3523C146.697 13.733 147.168 13.1489 147.689 12.6634C149.04 11.4072 150.923 10.7141 152.696 10.3341C154.786 9.88369 157.126 8.96182 159.251 9.14831C162.2 9.40165 164.195 9.85202 166.989 10.8126L167.295 9.97869C167.369 9.77813 167.249 9.55646 167.038 9.51072L148.421 5.32361C148.213 5.27787 148.009 5.42565 147.988 5.63677L146.095 14.9258C146.159 14.7182 146.261 14.5177 146.352 14.3523Z" fill="#B6E0ED"/>
<path d="M162.295 20.1898L148.108 16.9984L148.115 16.7592L162.418 19.9752L162.295 20.1898Z" fill="#585857"/>
<path d="M157.675 6.9068C157.696 6.81883 157.784 6.76254 157.872 6.78365C157.96 6.80476 158.016 6.89272 157.995 6.98069C157.974 7.06865 157.886 7.12495 157.798 7.10384C157.71 7.08624 157.654 6.99828 157.675 6.9068Z" fill="#3C3C3B"/>
<path d="M157.721 6.91724C157.735 6.8539 157.798 6.8152 157.861 6.82927C157.925 6.84335 157.963 6.90668 157.949 6.97001C157.935 7.03335 157.872 7.07205 157.809 7.05798C157.745 7.0439 157.707 6.98057 157.721 6.91724Z" fill="#585857"/>
<path d="M157.787 6.93506C157.794 6.91043 157.819 6.89284 157.844 6.89988C157.868 6.90692 157.886 6.93155 157.879 6.95618C157.872 6.98081 157.847 6.9984 157.822 6.99136C157.798 6.98433 157.78 6.95969 157.787 6.93506Z" fill="#B6E0ED"/>
</g>
<path d="M31.444 86.1175C30.4979 82.1178 26.4984 79.6511 22.5203 80.6011C18.537 81.5511 16.0803 85.5669 17.0264 89.5611C17.693 92.3679 19.8647 94.419 22.4773 95.0613C22.6279 95.4607 22.9074 97.8843 23.4073 98.6615C23.6331 99.0124 23.918 99.0717 24.3534 98.98C24.7029 100.227 26.1651 101.371 27.3692 101.258C28.2132 101.177 28.826 100.594 29.1002 99.8112C29.3152 99.2013 29.4872 98.4996 29.5947 97.8195C30.1753 97.8033 30.4549 97.7439 30.428 97.1988C30.3796 96.2542 29.3582 93.6525 29.3206 93.2531C31.1752 91.4881 32.0783 88.8001 31.444 86.1175Z" fill="#FDFFFC"/>
<path d="M27.5897 85.8477C27.4768 85.4428 27.079 85.173 26.6597 85.2755C26.2673 85.3673 25.9716 85.8045 26.0899 86.2093C26.1598 86.4576 26.3425 86.6573 26.5629 86.7491C26.4017 87.7962 26.1974 88.8271 26.1114 89.8851C26.0307 90.8674 25.9501 91.8282 25.7351 92.7836C24.5686 91.0294 23.4074 89.2805 22.1226 87.6127C22.4774 87.2726 22.2086 86.5116 21.6119 86.6519C20.9077 86.8192 21.1657 87.9203 21.8753 87.753C21.8807 87.753 21.8861 87.7476 21.8915 87.7422C23.2246 89.6368 24.5309 91.5583 25.6168 93.6094C25.7351 93.8307 26.0576 93.7821 26.1329 93.5554C26.4877 92.4975 26.5898 91.418 26.6651 90.3115C26.7511 89.1186 26.9822 87.9473 27.079 86.7598C27.4392 86.6411 27.6972 86.2309 27.5897 85.8477Z" fill="#AEB4FC"/>
<path d="M18.6385 79.3273C17.1387 78.5824 15.6335 77.8322 14.1337 77.0819C13.8219 76.9308 13.537 77.3788 13.8488 77.5461C15.311 78.3557 16.7786 79.16 18.2407 79.9696C18.6708 80.2071 19.0686 79.5432 18.6385 79.3273Z" fill="#808AFF"/>
<path d="M21.4608 73.6059C21.3372 73.3306 20.9824 73.5303 21.0093 73.7786C21.192 75.3331 21.7672 76.92 22.2188 78.4205C22.3317 78.7876 22.8961 78.6634 22.8047 78.2802C22.4338 76.7365 22.1113 75.0578 21.4608 73.6059Z" fill="#808AFF"/>
<path d="M28.4491 73.1526C28.062 73.4926 27.8255 74.0324 27.5836 74.4858C27.3309 74.9608 27.1052 75.4466 26.8901 75.9377C26.7181 76.3372 27.3793 76.5477 27.546 76.1375C27.7449 75.6355 27.9599 75.1497 28.2072 74.6693C28.4168 74.2537 28.7232 73.8489 28.8469 73.4009C28.9168 73.158 28.6265 72.9906 28.4491 73.1526Z" fill="#808AFF"/>
<defs>
<clipPath id="clip0">
<rect width="14.7683" height="17.933" fill="white" transform="translate(155.067 43.2501)"/>
</clipPath>
<clipPath id="clip1">
<rect width="72.7867" height="12.6586" fill="white" transform="translate(53.7983 141.354)"/>
</clipPath>
<clipPath id="clip2">
<rect width="33.7561" height="27.4269" fill="white" transform="translate(139.244 79.1159)"/>
</clipPath>
<clipPath id="clip3">
<rect width="36.9208" height="36.9208" fill="white" transform="translate(35.8657)"/>
</clipPath>
</defs>
</svg>
