<svg width="25" height="24" viewBox="0 0 25 24" fill="none" xmlns="http://www.w3.org/2000/svg">
<path d="M7.33337 21H3.83337C3.28337 21 2.83337 20.55 2.83337 20V10C2.83337 9.45 3.28337 9 3.83337 9H7.33337C7.88337 9 8.33337 9.45 8.33337 10V20C8.33337 20.55 7.88337 21 7.33337 21ZM14.5834 3H11.0834C10.5334 3 10.0834 3.45 10.0834 4V20C10.0834 20.55 10.5334 21 11.0834 21H14.5834C15.1334 21 15.5834 20.55 15.5834 20V4C15.5834 3.45 15.1334 3 14.5834 3ZM21.8334 11H18.3334C17.7834 11 17.3334 11.45 17.3334 12V20C17.3334 20.55 17.7834 21 18.3334 21H21.8334C22.3834 21 22.8334 20.55 22.8334 20V12C22.8334 11.45 22.3834 11 21.8334 11Z" fill="#A1A4B2"/>
</svg>
