<svg width="21" height="20" viewBox="0 0 21 20" fill="none" xmlns="http://www.w3.org/2000/svg">
<path d="M7 9.16665C9.41624 9.16665 11.375 7.30117 11.375 4.99998C11.375 2.69879 9.41624 0.833313 7 0.833313C4.58375 0.833313 2.625 2.69879 2.625 4.99998C2.625 7.30117 4.58375 9.16665 7 9.16665Z" fill="#A1A4B2"/>
<path d="M0 17.5C0 13.8181 2.98477 10.8333 6.66666 10.8333H7.33334C11.0152 10.8333 14 13.8181 14 17.5C14 18.4205 13.2538 19.1666 12.3333 19.1666H1.66667C0.746192 19.1666 0 18.4205 0 17.5Z" fill="#A1A4B2"/>
<path d="M14.8751 10.8333C16.3249 10.8333 17.5001 9.71403 17.5001 8.33331C17.5001 6.9526 16.3249 5.83331 14.8751 5.83331C13.4254 5.83331 12.2501 6.9526 12.2501 8.33331C12.2501 9.71403 13.4254 10.8333 14.8751 10.8333Z" fill="#A1A4B2"/>
<path d="M16.6251 8.33335V1.66669L19.2501 2.50002" stroke="#A1A4B2" stroke-width="2" stroke-linecap="round" stroke-linejoin="round"/>
</svg>
