<svg width="32" height="30" viewBox="0 0 32 30" fill="none" xmlns="http://www.w3.org/2000/svg">
<g clip-path="url(#clip0)">
<path d="M8.01032 13.0105C8.50323 13.0105 8.9028 13.4106 8.9028 13.904C8.9028 14.3975 8.5032 14.7975 8.01032 14.7975H7.80888C7.38158 14.7975 7.01498 15.1009 6.93348 15.5199L6.9311 15.5326L5.32572 24.466C5.31633 24.5182 5.3116 24.5712 5.3116 24.6243C5.3116 25.1128 5.70295 25.5098 6.18872 25.5176L6.20347 25.5177H28.5429C28.6001 25.5177 28.6572 25.5122 28.7133 25.5013C29.192 25.4079 29.5062 24.9472 29.4211 24.4681L29.4184 24.4535L27.6822 15.5202C27.6014 15.1047 27.2409 14.8035 26.8195 14.7976L26.8067 14.7975H23.5459C23.053 14.7975 22.6534 14.3974 22.6534 13.904C22.6534 13.4105 23.053 13.0105 23.5459 13.0105H26.8067C28.0745 13.0105 29.1663 13.9014 29.4254 15.141L29.433 15.1787L31.1692 24.112C31.4517 25.5651 30.5047 26.9724 29.0543 27.2553C28.8963 27.2861 28.736 27.3026 28.5751 27.3045L28.5429 27.3047H6.20343C4.72576 27.3047 3.52783 26.1046 3.52783 24.6243C3.52783 24.4756 3.54019 24.3273 3.56473 24.1807L3.57017 24.1494L5.17555 15.216C5.40271 13.9522 6.49191 13.0292 7.77006 13.0108L7.80888 13.0105H8.01032ZM15.6891 9.15527e-05C20.0672 9.15527e-05 23.6163 3.13576 23.6163 7.51872C23.6163 11.9017 18.3102 18.425 15.6891 18.425C13.0679 18.425 7.76187 11.9017 7.76187 7.51872C7.76187 3.13576 11.311 9.15527e-05 15.6891 9.15527e-05ZM15.6891 1.43906C12.3351 1.43906 9.61619 4.16101 9.61619 7.51872C9.61619 9.08502 10.6324 11.4026 12.2188 13.4921C12.2556 13.5406 12.2927 13.5889 12.33 13.6369L12.3859 13.7086C12.4324 13.7678 12.4793 13.8267 12.5266 13.8852L12.5831 13.9549C12.8096 14.2325 13.0398 14.4961 13.2701 14.7421L13.3277 14.8033C13.3469 14.8236 13.3661 14.8437 13.3853 14.8637L13.4429 14.9234C13.7978 15.289 14.1508 15.611 14.4891 15.8766C14.5197 15.9005 14.55 15.924 14.58 15.9469L14.6249 15.9807L14.6694 16.0138L14.7134 16.0459L14.7353 16.0617L14.7787 16.0926C14.8939 16.1737 15.0043 16.2456 15.1089 16.3078L15.1478 16.3307C15.1672 16.3419 15.1863 16.3528 15.2052 16.3633L15.2427 16.3839C15.2901 16.4096 15.3382 16.434 15.3869 16.4571C15.4314 16.4783 15.4768 16.4978 15.5227 16.5158L15.5498 16.5261C15.5807 16.5374 15.6093 16.5467 15.6353 16.554L15.6524 16.5587L15.6891 16.5677L15.715 16.5614L15.732 16.557C15.7646 16.5482 15.7968 16.5378 15.8284 16.5261L15.8555 16.5158C15.9014 16.4978 15.9468 16.4783 15.9913 16.4571C16.04 16.434 16.0881 16.4096 16.1355 16.3839L16.173 16.3633C16.1919 16.3528 16.211 16.3419 16.2304 16.3307L16.2693 16.3078C16.3739 16.2456 16.4843 16.1737 16.5995 16.0926L16.6429 16.0617L16.6648 16.0459L16.7088 16.0138L16.7533 15.9807L16.7982 15.9469C16.8282 15.924 16.8586 15.9005 16.8891 15.8766C17.2274 15.611 17.5805 15.289 17.9353 14.9234L17.9929 14.8637C18.0121 14.8437 18.0313 14.8236 18.0505 14.8033L18.108 14.7421C18.3384 14.496 18.5686 14.2325 18.7951 13.9549L18.8516 13.8852C18.8989 13.8267 18.9458 13.7678 18.9923 13.7086L19.0482 13.6369C19.0854 13.589 19.1225 13.5407 19.1594 13.4921C20.7458 11.4026 21.762 9.08498 21.762 7.51872C21.762 4.16101 19.0431 1.43906 15.6891 1.43906ZM15.6891 3.97612C17.8312 3.97612 19.5677 5.71456 19.5677 7.85906C19.5677 10.0036 17.8312 11.742 15.6891 11.742C13.547 11.742 11.8105 10.0036 11.8105 7.85906C11.8105 5.71456 13.547 3.97612 15.6891 3.97612ZM15.6891 5.8325C14.5711 5.8325 13.6648 6.73981 13.6648 7.85906C13.6648 8.9783 14.5711 9.88561 15.6891 9.88561C16.8071 9.88561 17.7134 8.9783 17.7134 7.85906C17.7134 6.73981 16.8071 5.8325 15.6891 5.8325Z" fill="#A1A4B2"/>
</g>
<defs>
<clipPath id="clip0">
<rect width="32" height="30" fill="white"/>
</clipPath>
</defs>
</svg>
