<svg width="31" height="30" viewBox="0 0 31 30" fill="none" xmlns="http://www.w3.org/2000/svg">
<path d="M18.5909 5.952C18.2259 4.835 17.6011 3.79799 16.7933 2.84699C16.3529 2.32951 15.8703 1.84872 15.3502 1.40949C15.1328 1.22256 14.9062 1.04634 14.6713 0.881495C14.1112 0.501495 13.3666 0.985495 13.4985 1.64499C13.4995 1.65149 13.5041 1.683 13.5102 1.73699C13.5511 2.118 13.5304 2.60699 13.3984 3.161C13.2043 3.97449 12.8004 4.77749 12.1327 5.53799C11.9472 5.7495 11.7419 5.956 11.5165 6.157C11.2809 6.368 11.0145 6.58649 10.6951 6.83399C10.409 7.05599 9.0891 8.035 8.7297 8.314C5.39647 10.8975 3.79102 13.452 3.79102 17.674C3.79102 24.068 9.03047 29.25 15.4937 29.25C21.957 29.25 27.1964 24.0675 27.1964 17.6745C27.1964 14.94 26.0161 12.106 24.0603 9.31299C23.4093 8.38504 22.7006 7.49799 21.9383 6.657C21.7095 6.40399 21.4753 6.15594 21.2356 5.91299C21.1448 5.82034 21.0525 5.72916 20.9586 5.63949C20.4708 5.1805 19.6656 5.5305 19.6772 6.19599C19.6772 6.21849 19.6762 6.26799 19.6716 6.338C19.6628 6.46599 19.6476 6.59347 19.6261 6.72C19.5633 7.10861 19.4404 7.48535 19.2617 7.837C19.1606 8.03199 19.0443 8.2105 18.9093 8.372C18.9634 7.614 18.874 6.818 18.5909 5.952ZM15.6322 3.812C16.3227 4.6245 16.849 5.498 17.1487 6.4135C17.4748 7.4125 17.4682 8.2685 17.2609 9.1005C17.2271 9.238 17.1194 9.6075 17.1224 9.595C17.0855 9.7325 17.0688 9.8195 17.0759 9.94849C17.0809 10.0686 17.1143 10.186 17.1733 10.2911C17.2323 10.3962 17.3153 10.4863 17.4157 10.554C17.5161 10.6218 17.6312 10.6654 17.7517 10.6814C17.8721 10.6973 17.9947 10.6852 18.1097 10.646C19.2753 10.261 20.0988 9.5105 20.6119 8.521C20.7357 8.2805 20.8383 8.03349 20.9207 7.783C21.5985 8.54018 22.2307 9.33623 22.8138 10.167C24.6098 12.732 25.6799 15.302 25.6799 17.6745C25.6799 23.239 21.1194 27.75 15.4942 27.75C9.86807 27.75 5.3075 23.239 5.3075 17.6745C5.3075 13.9805 6.66576 11.8195 9.66486 9.49449C10.0076 9.22899 11.3274 8.2495 11.6307 8.0145C11.94 7.7771 12.2408 7.52912 12.5325 7.271C12.796 7.03633 13.0449 6.78604 13.2776 6.5215C14.275 5.386 14.7921 4.207 14.9736 3.10399C15.1985 3.32499 15.4194 3.56099 15.6322 3.81149V3.812Z" fill="#A1A4B2"/>
<path d="M8.59326 14.0685C8.59326 13.794 8.82023 13.572 9.09673 13.572H9.32724C9.60526 13.572 9.83071 13.7955 9.83071 14.073V17.232H11.3593V14.073C11.3593 13.7965 11.5863 13.572 11.8628 13.572H12.0933C12.3713 13.572 12.5968 13.8005 12.5968 14.0685V21.6195C12.5964 21.7513 12.5432 21.8776 12.4488 21.9707C12.3544 22.0637 12.2266 22.116 12.0933 22.116H11.8628C11.7295 22.1155 11.6018 22.0629 11.5076 21.9697C11.4133 21.8766 11.36 21.7503 11.3593 21.6185V18.312H9.83071V21.6185C9.83071 21.8935 9.60374 22.116 9.32724 22.116H9.09673C8.81871 22.116 8.59326 21.8875 8.59326 21.6195V14.0685ZM13.6886 15.588C13.6886 15.244 13.7493 14.94 13.8706 14.676C13.9919 14.412 14.1517 14.194 14.3498 14.022C14.5454 13.8515 14.7718 13.7192 15.0171 13.632C15.2638 13.544 15.5125 13.5 15.7632 13.5C16.0139 13.5 16.2626 13.544 16.5093 13.632C16.756 13.72 16.9784 13.85 17.1766 14.022C17.3747 14.194 17.5344 14.412 17.6558 14.676C17.7771 14.94 17.8377 15.244 17.8377 15.588V20.1C17.8377 20.452 17.7771 20.758 17.6558 21.018C17.5344 21.278 17.3747 21.494 17.1766 21.666C16.981 21.8365 16.7546 21.9688 16.5093 22.056C16.2626 22.144 16.0139 22.188 15.7632 22.188C15.5125 22.188 15.2638 22.144 15.0171 22.056C14.7718 21.9688 14.5454 21.8365 14.3498 21.666C14.1456 21.4859 13.9823 21.265 13.8706 21.018C13.7493 20.758 13.6886 20.452 13.6886 20.1V15.588ZM14.9261 20.1C14.9261 20.396 15.009 20.614 15.1748 20.754C15.3406 20.894 15.5367 20.964 15.7632 20.964C15.9897 20.964 16.1858 20.894 16.3516 20.754C16.5174 20.614 16.6003 20.396 16.6003 20.1V15.588C16.6003 15.292 16.5174 15.074 16.3516 14.934C16.1882 14.7948 15.9788 14.7201 15.7632 14.724C15.5367 14.724 15.3406 14.794 15.1748 14.934C15.009 15.074 14.9261 15.292 14.9261 15.588V20.1ZM19.7424 14.724H18.8113C18.6786 14.7239 18.5514 14.6717 18.4576 14.5789C18.3638 14.4861 18.311 14.3602 18.3109 14.229V14.067C18.3109 13.7935 18.5373 13.572 18.8139 13.572H21.9085C22.1865 13.572 22.4115 13.794 22.4115 14.067V14.229C22.4115 14.3603 22.3587 14.4862 22.2649 14.579C22.171 14.6718 22.0437 14.724 21.911 14.724H20.9799V21.6195C20.9795 21.7513 20.9263 21.8776 20.8319 21.9707C20.7375 22.0637 20.6097 22.116 20.4764 22.116H20.2459C20.1799 22.1162 20.1144 22.1035 20.0534 22.0786C19.9923 22.0538 19.9368 22.0172 19.89 21.9711C19.8432 21.925 19.8061 21.8702 19.7808 21.8099C19.7555 21.7495 19.7424 21.6848 19.7424 21.6195V14.724Z" fill="#A1A4B2"/>
</svg>
