<svg width="343" height="243" viewBox="0 0 343 243" fill="none" xmlns="http://www.w3.org/2000/svg">
<path d="M175.565 240.904C216.064 240.904 248.895 239.662 248.895 238.13C248.895 236.598 216.064 235.357 175.565 235.357C135.065 235.357 102.234 236.598 102.234 238.13C102.234 239.662 135.065 240.904 175.565 240.904Z" fill="#F9F0E3"/>
<path opacity="0.5" d="M46.5498 236.23C72.2585 236.23 93.0996 234.695 93.0996 232.802C93.0996 230.908 72.2585 229.373 46.5498 229.373C20.841 229.373 0 230.908 0 232.802C0 234.695 20.841 236.23 46.5498 236.23Z" fill="#F9EAD4"/>
<path d="M339.123 240.911C339.123 242.068 323.276 243 303.725 243C284.173 243 268.327 242.068 268.327 240.911C268.327 239.753 284.173 238.822 303.725 238.822C323.269 238.822 339.123 239.753 339.123 240.911Z" fill="#F9F0E3"/>
<path d="M253.335 74.9193L251.7 77.6564H254.963L253.335 74.9193Z" fill="#E7CCA8"/>
<path d="M253.335 79.942L251.7 82.6791H254.963L253.335 79.942Z" fill="#E7CCA8"/>
<path d="M256.718 76.9793L255.203 79.942H258.225L256.718 76.9793Z" fill="#E7CCA8"/>
<path d="M7.66445 91.2469L6.02954 93.9912H9.29185L7.66445 91.2469Z" fill="#E7CCA8"/>
<path d="M7.66445 96.2697L6.02954 99.0068H9.29185L7.66445 96.2697Z" fill="#E7CCA8"/>
<path d="M11.0467 93.307L9.53174 96.2697H12.5541L11.0467 93.307Z" fill="#E7CCA8"/>
<path d="M250.073 196.15L248.446 198.887H251.7L250.073 196.15Z" fill="#E7CCA8"/>
<path d="M250.073 201.165L248.446 203.91H251.7L250.073 201.165Z" fill="#E7CCA8"/>
<path d="M253.455 198.203L251.948 201.165H254.963L253.455 198.203Z" fill="#E7CCA8"/>
<path d="M185.787 55.5782C185.787 57.5072 184.182 59.065 182.194 59.065C180.207 59.065 178.602 57.5072 178.602 55.5782C178.602 53.6491 180.207 52.0913 182.194 52.0913C184.174 52.0913 185.787 53.6564 185.787 55.5782Z" stroke="white" stroke-miterlimit="10"/>
<path d="M341.005 203.895H266.557C265.454 203.895 264.562 203.029 264.562 201.959C264.562 200.889 265.454 200.023 266.557 200.023H341.005C342.107 200.023 343 200.889 343 201.959C343 203.029 342.107 203.895 341.005 203.895Z" fill="#FEE6C6"/>
<path d="M276.839 238.13C275.721 238.13 274.799 237.468 274.754 236.623L272.819 202.701H280.859L278.924 236.623C278.871 237.468 277.956 238.13 276.839 238.13Z" fill="#FEE6C6"/>
<path d="M331.443 238.13C330.326 238.13 329.403 237.468 329.358 236.623L327.423 202.701H335.463L333.528 236.623C333.476 237.468 332.561 238.13 331.443 238.13Z" fill="#FEE6C6"/>
<path d="M303.785 238.13C302.667 238.13 301.745 237.468 301.7 236.623L299.765 202.701H307.805L305.87 236.623C305.825 237.468 304.902 238.13 303.785 238.13Z" fill="#FEE6C6"/>
<path d="M320.486 193.243C321.558 188.606 318.553 184.004 313.776 182.965C308.999 181.925 304.258 184.841 303.186 189.478C302.115 194.115 305.12 198.717 309.897 199.757C314.674 200.796 319.415 197.88 320.486 193.243Z" fill="#F9D8AC"/>
<path d="M316.301 184.292H307.159C306.65 184.292 306.237 183.891 306.237 183.396C306.237 182.901 306.65 182.501 307.159 182.501H316.301C316.811 182.501 317.224 182.901 317.224 183.396C317.224 183.891 316.811 184.292 316.301 184.292Z" fill="#F9D8AC"/>
<path d="M307.79 168.204C308.112 168.35 308.495 168.903 308.622 169.667C308.75 170.432 308.585 171.087 308.315 171.313C308 171.174 307.61 170.614 307.482 169.849C307.355 169.085 307.542 168.437 307.79 168.204Z" fill="#F9D8AC"/>
<path d="M308.39 171.237L308.205 171.267L309.036 176.172L309.221 176.143L308.39 171.237Z" fill="#F9D8AC"/>
<path d="M310.452 171.101C310.107 171.079 309.537 171.392 309.117 172.011C308.697 172.637 308.585 173.3 308.727 173.635C309.065 173.664 309.642 173.343 310.062 172.725C310.489 172.106 310.579 171.436 310.452 171.101Z" fill="#F9D8AC"/>
<path d="M306.222 171.778C306.545 171.647 307.182 171.764 307.79 172.222C308.397 172.681 308.72 173.278 308.697 173.642C308.39 173.78 307.737 173.656 307.13 173.198C306.522 172.739 306.215 172.135 306.222 171.778Z" fill="#F9D8AC"/>
<path d="M306.627 174.181C306.95 174.05 307.587 174.173 308.194 174.625C308.802 175.083 309.124 175.68 309.102 176.044C308.794 176.182 308.142 176.059 307.535 175.6C306.927 175.141 306.62 174.537 306.627 174.181Z" fill="#F9D8AC"/>
<path d="M310.864 173.511C310.519 173.489 309.949 173.802 309.529 174.421C309.109 175.039 308.997 175.709 309.139 176.044C309.477 176.073 310.054 175.753 310.474 175.134C310.894 174.508 310.992 173.838 310.864 173.511Z" fill="#F9D8AC"/>
<path d="M309.199 176.035L309.014 176.064L309.846 180.97L310.031 180.94L309.199 176.035Z" fill="#F9D8AC"/>
<path d="M311.269 175.899C310.924 175.877 310.354 176.19 309.934 176.809C309.514 177.435 309.402 178.097 309.544 178.432C309.882 178.461 310.459 178.148 310.879 177.522C311.299 176.903 311.397 176.234 311.269 175.899Z" fill="#F9D8AC"/>
<path d="M307.032 176.576C307.355 176.445 307.992 176.561 308.6 177.02C309.207 177.478 309.529 178.075 309.507 178.439C309.199 178.578 308.547 178.454 307.94 177.995C307.332 177.537 307.025 176.932 307.032 176.576Z" fill="#F9D8AC"/>
<path d="M307.445 178.985C307.767 178.854 308.405 178.978 309.012 179.429C309.62 179.888 309.942 180.485 309.92 180.849C309.612 180.987 308.96 180.863 308.352 180.405C307.745 179.946 307.43 179.335 307.445 178.985Z" fill="#F9D8AC"/>
<path d="M311.674 178.308C311.329 178.286 310.759 178.599 310.339 179.218C309.92 179.837 309.807 180.507 309.949 180.841C310.287 180.87 310.864 180.55 311.284 179.931C311.712 179.313 311.802 178.636 311.674 178.308Z" fill="#F9D8AC"/>
<path d="M310.016 180.831L309.831 180.861L310.663 185.766L310.848 185.737L310.016 180.831Z" fill="#F9D8AC"/>
<path d="M315.724 171.749C315.979 171.968 316.159 172.536 316.032 173.198C315.904 173.86 315.537 174.341 315.207 174.443C314.952 174.232 314.772 173.657 314.892 172.994C315.027 172.339 315.409 171.866 315.724 171.749Z" fill="#F9D8AC"/>
<path d="M315.129 174.398L314.323 178.651L314.507 178.683L315.313 174.431L315.129 174.398Z" fill="#F9D8AC"/>
<path d="M317.299 174.938C316.977 174.814 316.347 174.894 315.739 175.266C315.139 175.644 314.817 176.154 314.847 176.467C315.154 176.598 315.799 176.51 316.407 176.139C317.007 175.761 317.307 175.244 317.299 174.938Z" fill="#F9D8AC"/>
<path d="M313.077 174.181C313.422 174.174 313.984 174.465 314.412 175.025C314.839 175.586 314.952 176.175 314.809 176.459C314.472 176.474 313.902 176.175 313.474 175.615C313.047 175.054 312.957 174.465 313.077 174.181Z" fill="#F9D8AC"/>
<path d="M312.687 176.27C313.032 176.263 313.594 176.554 314.022 177.114C314.449 177.675 314.562 178.264 314.419 178.548C314.082 178.563 313.512 178.264 313.084 177.704C312.657 177.143 312.559 176.554 312.687 176.27Z" fill="#F9D8AC"/>
<path d="M316.902 177.02C316.579 176.896 315.949 176.976 315.342 177.347C314.742 177.726 314.419 178.235 314.449 178.548C314.757 178.679 315.402 178.592 316.009 178.221C316.609 177.85 316.917 177.325 316.902 177.02Z" fill="#F9D8AC"/>
<path d="M314.345 178.559L313.539 182.811L313.723 182.844L314.529 178.592L314.345 178.559Z" fill="#F9D8AC"/>
<path d="M316.511 179.094C316.189 178.97 315.559 179.05 314.952 179.422C314.352 179.8 314.029 180.31 314.059 180.623C314.367 180.754 315.012 180.667 315.619 180.295C316.219 179.924 316.519 179.407 316.511 179.094Z" fill="#F9D8AC"/>
<path d="M312.289 178.345C312.634 178.337 313.197 178.629 313.624 179.189C314.052 179.75 314.164 180.339 314.022 180.623C313.684 180.638 313.114 180.339 312.687 179.779C312.259 179.218 312.169 178.629 312.289 178.345Z" fill="#F9D8AC"/>
<path d="M313.551 182.717L312.745 186.969L312.93 187.002L313.736 182.749L313.551 182.717Z" fill="#F9D8AC"/>
<path d="M322.009 130.504C322.399 130.745 322.811 131.509 322.856 132.521C322.909 133.525 322.586 134.348 322.211 134.603C321.821 134.384 321.409 133.598 321.356 132.586C321.311 131.582 321.656 130.774 322.009 130.504Z" fill="#FEE6C6"/>
<path d="M322.33 134.507L322.083 134.519L322.405 140.982L322.652 140.971L322.33 134.507Z" fill="#FEE6C6"/>
<path d="M325.008 134.639C324.566 134.559 323.786 134.88 323.141 135.622C322.496 136.365 322.256 137.216 322.391 137.668C322.826 137.762 323.614 137.427 324.259 136.685C324.896 135.942 325.121 135.091 325.008 134.639Z" fill="#FEE6C6"/>
<path d="M319.436 134.901C319.871 134.785 320.681 135.025 321.394 135.702C322.106 136.379 322.436 137.202 322.346 137.668C321.926 137.799 321.101 137.544 320.389 136.867C319.669 136.19 319.361 135.36 319.436 134.901Z" fill="#FEE6C6"/>
<path d="M319.594 138.068C320.029 137.951 320.839 138.191 321.551 138.868C322.264 139.545 322.594 140.368 322.504 140.834C322.084 140.965 321.259 140.71 320.546 140.033C319.826 139.356 319.526 138.526 319.594 138.068Z" fill="#FEE6C6"/>
<path d="M325.166 137.806C324.723 137.726 323.944 138.046 323.299 138.788C322.654 139.531 322.414 140.383 322.549 140.834C322.984 140.929 323.771 140.594 324.416 139.851C325.053 139.109 325.278 138.257 325.166 137.806Z" fill="#FEE6C6"/>
<path d="M322.632 140.861L322.385 140.873L322.707 147.336L322.954 147.325L322.632 140.861Z" fill="#FEE6C6"/>
<path d="M325.323 140.965C324.881 140.885 324.101 141.205 323.456 141.947C322.811 142.69 322.571 143.542 322.706 143.993C323.141 144.088 323.928 143.753 324.573 143.01C325.211 142.268 325.436 141.409 325.323 140.965Z" fill="#FEE6C6"/>
<path d="M319.751 141.227C320.186 141.11 320.996 141.351 321.709 142.028C322.421 142.705 322.751 143.527 322.661 143.993C322.241 144.124 321.416 143.869 320.704 143.192C319.984 142.508 319.676 141.678 319.751 141.227Z" fill="#FEE6C6"/>
<path d="M319.909 144.393C320.344 144.277 321.154 144.517 321.866 145.194C322.579 145.871 322.909 146.694 322.819 147.16C322.399 147.291 321.574 147.036 320.861 146.359C320.141 145.682 319.834 144.852 319.909 144.393Z" fill="#FEE6C6"/>
<path d="M325.481 144.131C325.038 144.051 324.258 144.372 323.614 145.114C322.969 145.857 322.729 146.708 322.864 147.16C323.299 147.254 324.086 146.919 324.731 146.177C325.368 145.434 325.593 144.583 325.481 144.131Z" fill="#FEE6C6"/>
<path d="M322.961 147.158L322.714 147.17L323.036 153.633L323.283 153.622L322.961 147.158Z" fill="#FEE6C6"/>
<path d="M327.603 199.935H320.629C317.846 199.935 315.649 197.628 315.874 194.934L319.496 151.731H328.728L332.351 194.934C332.583 197.628 330.386 199.935 327.603 199.935Z" fill="#FEE6C6"/>
<path d="M329.681 151.862H318.551C317.899 151.862 317.374 151.353 317.374 150.719C317.374 150.086 317.899 149.576 318.551 149.576H329.681C330.333 149.576 330.858 150.086 330.858 150.719C330.858 151.345 330.333 151.862 329.681 151.862Z" fill="#FEE6C6"/>
<path d="M325.511 160.43C325.616 156.805 325.803 153.18 325.998 149.562C326.193 145.944 326.456 142.326 326.688 138.708C326.973 135.091 327.228 131.473 327.551 127.862L328.046 122.446C328.241 120.641 328.406 118.836 328.616 117.031C328.571 118.843 328.481 120.656 328.413 122.468L328.128 127.899C327.933 131.516 327.671 135.134 327.438 138.752C327.146 142.37 326.898 145.988 326.576 149.598C326.253 153.209 325.923 156.82 325.511 160.43Z" fill="#FEE6C6"/>
<path d="M325.863 156.281C325.301 149.038 325.084 141.788 324.949 134.537C324.844 127.287 324.829 120.037 325.159 112.779C325.721 120.022 325.938 127.272 326.073 134.523C326.171 141.773 326.186 149.023 325.863 156.281Z" fill="#FEE6C6"/>
<path d="M324.911 163.08C325.376 159.476 325.916 155.888 326.478 152.306C327.033 148.718 327.656 145.143 328.241 141.562C328.886 137.988 329.501 134.414 330.176 130.847L331.203 125.496C331.571 123.72 331.916 121.937 332.306 120.161C332.081 121.959 331.811 123.757 331.563 125.555L330.746 130.934C330.191 134.523 329.568 138.097 328.983 141.678C328.338 145.253 327.723 148.827 327.048 152.394C326.366 155.968 325.683 159.527 324.911 163.08Z" fill="#FEE6C6"/>
<path d="M323.531 112.888C323.531 113.311 323.179 113.653 322.744 113.653C322.309 113.653 321.956 113.311 321.956 112.888C321.956 112.466 322.309 112.124 322.744 112.124C323.179 112.124 323.531 112.466 323.531 112.888Z" stroke="#FEE6C6" stroke-miterlimit="10"/>
<path d="M327.753 111.018C328.797 111.018 329.643 110.196 329.643 109.183C329.643 108.17 328.797 107.349 327.753 107.349C326.71 107.349 325.864 108.17 325.864 109.183C325.864 110.196 326.71 111.018 327.753 111.018Z" stroke="#FEE6C6" stroke-miterlimit="10"/>
<path d="M331.556 118.632C331.899 118.632 332.178 118.361 332.178 118.028C332.178 117.694 331.899 117.423 331.556 117.423C331.212 117.423 330.933 117.694 330.933 118.028C330.933 118.361 331.212 118.632 331.556 118.632Z" stroke="#FEE6C6" stroke-miterlimit="10"/>
<path d="M333.686 131.072C333.686 131.385 333.423 131.64 333.101 131.64C332.778 131.64 332.516 131.385 332.516 131.072C332.516 130.759 332.778 130.505 333.101 130.505C333.423 130.505 333.686 130.759 333.686 131.072Z" stroke="#FEE6C6" stroke-miterlimit="10"/>
<path d="M318.716 126.275C319.28 126.275 319.736 125.832 319.736 125.285C319.736 124.738 319.28 124.295 318.716 124.295C318.153 124.295 317.696 124.738 317.696 125.285C317.696 125.832 318.153 126.275 318.716 126.275Z" stroke="#FEE6C6" stroke-miterlimit="10"/>
<path d="M294.215 171.313H268.222V198.8H294.215V171.313Z" fill="#F9D8AC"/>
<path d="M291.306 174.392H271.139V195.72H291.306V174.392Z" fill="#FEE6C6"/>
<path d="M32.3681 45.8889H28.1833V225.5H32.3681V45.8889Z" fill="#FEE6C6"/>
<path d="M51.6269 232.059H8.93188C8.93188 227.626 18.4938 224.037 30.2831 224.037C42.0724 224.037 51.6269 227.626 51.6269 232.059Z" fill="#FEE6C6"/>
<path d="M59.644 48.3569H0.907471L1.99491 44.6589L2.21239 43.931L4.18478 37.234L4.40227 36.5061L15.1566 0H46.8948L56.5167 36.5061L56.7117 37.234L58.4741 43.931L58.6691 44.6589L59.644 48.3569Z" fill="#FEE6C6"/>
<path d="M4.76215 38.8717L2.75977 42.2348H6.75703L4.76215 38.8717Z" fill="#E5CAA6"/>
<path d="M9.29193 42.2348L7.28955 38.8717H11.2943L9.29193 42.2348Z" fill="#E5CAA6"/>
<path d="M13.2893 38.8717L11.2944 42.2348H15.2917L13.2893 38.8717Z" fill="#E5CAA6"/>
<path d="M17.8264 42.2348L15.824 38.8717H19.8212L17.8264 42.2348Z" fill="#E5CAA6"/>
<path d="M21.8237 38.8717L19.8213 42.2348H23.8186L21.8237 38.8717Z" fill="#E5CAA6"/>
<path d="M26.3535 42.2348L24.3511 38.8717H28.3558L26.3535 42.2348Z" fill="#E5CAA6"/>
<path d="M30.3506 38.8717L28.3557 42.2348H32.353L30.3506 38.8717Z" fill="#E5CAA6"/>
<path d="M34.8804 42.2348L32.8855 38.8717H36.8828L34.8804 42.2348Z" fill="#E5CAA6"/>
<path d="M38.8852 38.8717L36.8828 42.2348H40.8801L38.8852 38.8717Z" fill="#E5CAA6"/>
<path d="M43.415 42.2348L41.4126 38.8717H45.4099L43.415 42.2348Z" fill="#E5CAA6"/>
<path d="M47.4123 38.8717L45.4099 42.2348H49.4147L47.4123 38.8717Z" fill="#E5CAA6"/>
<path d="M51.9419 42.2348L49.947 38.8717H53.9443L51.9419 42.2348Z" fill="#E5CAA6"/>
<path d="M55.9392 38.8717L53.9443 42.2348H57.9416L55.9392 38.8717Z" fill="#E5CAA6"/>
<path d="M56.7118 37.2339H4.18481L4.4023 36.506H56.5168L56.7118 37.2339Z" fill="#E5CAA6"/>
<path d="M58.6691 44.659H1.99487L2.21236 43.931H58.4741L58.6691 44.659Z" fill="#E5CAA6"/>
<path d="M66.273 154.904C67.8029 149.153 71.0952 144.014 74.4775 139.064C77.4774 134.667 80.6197 130.293 84.5795 126.682C88.5392 123.064 93.4214 120.218 98.7911 119.417C97.4787 123.523 96.1663 127.628 94.8538 131.734C93.5414 135.839 92.184 140.032 89.5967 143.519C86.8893 147.159 82.967 149.823 78.7823 151.73C74.59 153.637 70.1053 154.839 65.6431 156.032" fill="#66A986"/>
<path d="M66.5511 154.978C68.8085 147.196 73.7132 140.121 78.6629 133.693C81.2203 130.366 84.0326 127.236 87.4374 124.71C89.0498 123.509 97.2768 118.217 98.0943 120.714C98.4543 121.82 96.4594 125.817 96.1219 126.872C95.4919 128.845 94.877 130.818 94.232 132.783C93.0246 136.474 91.7121 140.208 89.3648 143.382C83.8451 150.814 74.2157 153.456 65.5762 155.771C65.2312 155.866 65.3737 156.39 65.7262 156.295C74.1707 154.032 83.3351 151.484 89.1023 144.597C94.7945 137.806 96.4669 127.629 99.0692 119.491C99.1367 119.28 98.9192 119.12 98.7242 119.156C90.6022 120.597 84.3101 125.773 79.3379 131.939C73.8557 138.738 68.441 146.454 66.0111 154.84C65.9062 155.167 66.4461 155.313 66.5511 154.978Z" fill="#66A986"/>
<path d="M57.2741 174.232C63.1988 161.944 69.1159 149.649 75.0406 137.362C75.3481 136.728 74.3731 136.175 74.0656 136.808C68.141 149.096 62.2238 161.391 56.2992 173.679C55.9992 174.312 56.9666 174.865 57.2741 174.232Z" fill="#80B996"/>
<path d="M58.1291 147.786C58.4741 134.909 63.4838 121.893 66.8211 109.511C66.9111 109.169 66.3711 109.023 66.2811 109.365C62.9288 121.813 57.9191 134.836 57.5741 147.786C57.5591 148.135 58.1216 148.135 58.1291 147.786Z" fill="#80B996"/>
<path d="M49.1895 150.479C43.5349 145.602 37.8352 140.674 33.403 134.719C28.9782 128.765 25.8659 121.624 26.1134 114.286C29.7207 119.84 37.3402 121.915 41.0975 127.375C42.3349 129.173 43.0774 131.247 43.8049 133.293C45.8447 139.022 47.8921 144.758 49.932 150.487" fill="#66A986"/>
<path d="M49.3846 150.29C43.4524 145.173 37.4228 139.99 32.9155 133.584C30.6732 130.396 28.8358 126.909 27.6808 123.211C27.0809 121.289 26.6759 119.324 26.4809 117.329C26.3159 115.611 25.791 114.992 27.1034 116.048C28.9633 117.547 30.5607 119.163 32.5556 120.532C35.2929 122.403 38.1877 124.157 40.2501 126.77C42.9125 130.141 43.9924 134.683 45.4098 138.658C46.8272 142.625 48.2371 146.592 49.6546 150.559C49.7746 150.887 50.3145 150.749 50.1945 150.414C48.6196 146.003 47.0522 141.598 45.4773 137.187C44.2399 133.708 43.2724 129.871 41.0301 126.836C37.1303 121.551 30.1557 119.542 26.3459 114.141C26.1959 113.922 25.821 113.995 25.821 114.279C25.701 129.901 37.8278 141.038 48.9796 150.669C49.2571 150.909 49.6621 150.523 49.3846 150.29Z" fill="#66A986"/>
<path d="M38.1951 123.713C47.4421 141.991 53.5168 161.58 56.1941 181.781C56.2841 182.465 57.409 182.479 57.319 181.781C54.6192 161.384 48.507 141.627 39.1626 123.16C38.8476 122.526 37.8727 123.08 38.1951 123.713Z" fill="#80B996"/>
<path d="M54.8812 107.333C50.254 91.5881 50.389 74.5544 55.2712 58.8746C58.6685 63.6135 61.2708 68.891 62.9507 74.4233C64.8256 80.589 65.5531 87.1477 64.4507 93.488C63.3482 99.8283 60.3334 105.936 55.4962 110.325" fill="#66A986"/>
<path d="M55.1518 107.262C52.7819 98.9486 51.612 90.3807 51.8144 81.7547C51.9269 77.1323 52.4069 72.5244 53.2769 67.9748C53.6518 66.0167 54.1018 64.0731 54.6118 62.1441C55.4892 58.8611 56.1042 60.4844 57.4091 62.6682C66.0861 77.1396 68.6285 97.4709 55.2867 110.137C55.0243 110.384 55.4217 110.77 55.6842 110.523C70.4734 96.4809 66.0486 73.8347 55.5042 58.7373C55.3692 58.548 55.0618 58.5699 54.9868 58.8028C50.1795 74.6937 50.052 91.4435 54.5968 107.407C54.7093 107.742 55.2492 107.596 55.1518 107.262Z" fill="#66A986"/>
<path d="M67.9685 150.479C66.7386 142.559 69.3634 134.435 73.6157 127.571C77.8679 120.707 83.6801 114.898 89.4397 109.161C90.8422 120.095 88.4498 131.458 82.7426 140.98C81.1752 143.6 79.3153 146.126 76.8255 147.953C74.3356 149.78 71.1258 150.858 68.0585 150.319" fill="#80B996"/>
<path d="M68.2535 150.479C67.181 142.203 69.7459 134.195 74.2006 127.171C76.4655 123.604 79.1654 120.321 82.0227 117.183C83.3201 115.764 84.655 114.366 86.005 112.99C86.5824 112.401 87.1524 111.658 87.8123 111.163C88.8248 110.406 88.6973 109.875 89.3423 110.981C89.9572 112.022 89.5448 114.687 89.5298 115.873C89.5073 117.707 89.3873 119.542 89.1698 121.369C88.6748 125.387 87.6924 129.376 86.2224 133.169C83.3201 140.674 77.8679 151.134 68.0435 150.05C67.6835 150.013 67.691 150.559 68.0435 150.596C77.043 151.593 82.3827 143.142 85.54 136.212C89.4248 127.702 90.7672 118.384 89.7022 109.162C89.6797 108.943 89.4098 108.783 89.2223 108.965C77.9279 120.233 65.4711 133.489 67.676 150.479C67.736 150.821 68.2985 150.829 68.2535 150.479Z" fill="#80B996"/>
<path d="M59.2234 136.32C58.526 126.638 60.5359 116.913 63.8207 107.741C67.1055 98.5692 71.6502 89.8849 76.18 81.2224C79.1873 91.1297 80.1472 101.779 77.6124 111.81C75.0775 121.841 68.8154 131.173 59.6584 136.429" fill="#80B996"/>
<path d="M59.509 136.321C58.9165 126.341 60.9114 116.535 64.3387 107.16C66.1611 102.173 68.351 97.3179 70.6984 92.5426C71.8233 90.2424 72.9932 87.9639 74.1706 85.6928C74.3056 85.4307 75.4981 82.5845 75.7831 82.599C76.728 82.6354 76.788 84.4116 76.983 85.205C81.5202 103.833 77.3655 125.54 59.5165 136.197C59.209 136.379 59.494 136.852 59.8015 136.67C79.3903 124.98 82.2852 101.023 76.458 81.1504C76.398 80.9321 76.053 80.8665 75.9405 81.0849C66.9186 98.3443 57.7616 116.434 58.9465 136.321C58.969 136.67 59.5315 136.677 59.509 136.321Z" fill="#80B996"/>
<path d="M53.1569 101.46C57.6491 126.843 58.4366 152.678 55.5342 178.279C55.4517 178.978 56.5842 178.971 56.6592 178.279C59.569 152.583 58.744 126.647 54.2443 101.169C54.1168 100.477 53.0369 100.768 53.1569 101.46Z" fill="#80B996"/>
<path d="M55.0312 109.736C50.7189 106.242 46.9616 100.309 45.9492 94.9513C44.9368 89.5937 45.2367 84.0832 45.5817 78.6455C45.9342 73.2078 46.3317 67.7192 45.5217 62.3252C49.729 67.8211 53.2688 73.7975 56.0511 80.0941C58.1585 84.8621 59.8459 89.8921 60.0334 95.0751C60.2209 100.258 58.7809 105.645 55.2487 109.539" fill="#80B996"/>
<path d="M55.2343 109.547C48.2597 103.578 45.5823 95.68 45.5448 86.8356C45.5298 82.7373 45.9123 78.6536 46.1223 74.5698C46.2273 72.5243 46.3023 70.4788 46.2723 68.4333C46.2648 67.8437 45.6873 63.7236 46.0623 63.5052C47.4122 62.719 56.9592 82.9193 57.4917 84.4043C60.4765 92.6955 61.1214 102.181 55.0543 109.351C54.8293 109.62 55.2193 110.006 55.4518 109.736C67.4736 95.5272 55.0168 74.4752 45.7623 62.1949C45.6198 62.0056 45.1999 62.0348 45.2374 62.3332C46.4898 71.8619 44.3599 81.3761 45.1324 90.912C45.7323 98.3443 49.0396 104.983 54.8293 109.933C55.1068 110.166 55.5043 109.78 55.2343 109.547Z" fill="#80B996"/>
<path d="M48.694 147.115C50.8689 139.698 49.5864 129.586 45.9416 122.729C42.2969 115.879 36.6197 110.209 30.3201 105.506C30.665 113.412 31.295 121.426 34.0098 128.888C36.7322 136.356 41.4119 143.556 48.694 147.115Z" fill="#80B996"/>
<path d="M48.9646 147.189C53.5094 130.293 43.7899 115.393 30.5232 105.318C30.3507 105.187 30.0282 105.252 30.0432 105.514C30.7332 120.619 33.253 139.407 48.5522 147.356C48.8746 147.524 49.1521 147.051 48.8371 146.883C41.885 143.273 37.4228 136.859 34.6705 129.835C33.253 126.217 32.3456 122.424 31.7456 118.603C31.3407 116.011 31.0857 113.405 30.8982 110.792C30.8382 109.94 30.6657 109.001 30.7332 108.15C30.8307 106.912 30.3432 106.555 31.6031 106.839C32.8706 107.123 34.9404 109.605 35.8629 110.457C37.2278 111.716 38.5327 113.041 39.7627 114.424C42.5075 117.511 44.9299 120.947 46.5723 124.71C49.6021 131.626 50.3895 139.757 48.4247 147.043C48.3347 147.385 48.8746 147.531 48.9646 147.189Z" fill="#80B996"/>
<path d="M80.4777 205.096C80.4777 217.413 75.5505 228.143 68.2684 233.726H45.3047C38.0227 228.143 33.0955 217.413 33.0955 205.096C33.0955 193.588 37.4002 183.462 43.9023 177.624H69.6633C76.1729 183.462 80.4777 193.58 80.4777 205.096Z" fill="#FEE6C6"/>
<path d="M46.1073 189.511L39.9426 199.884H52.2794L46.1073 189.511Z" stroke="#E6CAA6" stroke-miterlimit="10"/>
<path d="M46.1072 192.045L42.1924 198.625H50.0219L46.1072 192.045Z" stroke="#E6CAA6" stroke-width="0.5" stroke-miterlimit="10"/>
<path d="M55.0167 223.571L47.5621 227.75V219.4L55.0167 223.571Z" stroke="#E6CAA6" stroke-width="0.75" stroke-miterlimit="10"/>
<path d="M52.5418 223.571L48.7996 225.668V221.475L52.5418 223.571Z" stroke="#E6CAA6" stroke-width="0.5" stroke-miterlimit="10"/>
<path d="M65.4711 180.674L59.5015 190.712H71.4483L65.4711 180.674Z" stroke="#E6CAA6" stroke-miterlimit="10"/>
<path d="M65.471 184.481L62.8987 188.805H68.0509L65.471 184.481Z" stroke="#E6CAA6" stroke-width="0.5" stroke-miterlimit="10"/>
<path d="M65.4711 224.758L58.6165 209.464H72.3331L65.4711 224.758Z" stroke="#E6CAA6" stroke-miterlimit="10"/>
<path d="M65.4711 221.031L61.1213 211.328H69.8283L65.4711 221.031Z" stroke="#E6CAA6" stroke-width="0.5" stroke-miterlimit="10"/>
<path d="M42.74 211.83C42.74 210.811 43.5949 209.981 44.6449 209.981C45.6948 209.981 46.5498 210.811 46.5498 211.83C46.5498 212.849 45.6948 213.679 44.6449 213.679C43.5949 213.679 42.74 212.849 42.74 211.83Z" stroke="#E6CAA6" stroke-miterlimit="10"/>
<path d="M65.4711 202.512C67.161 202.512 68.5309 201.182 68.5309 199.542C68.5309 197.902 67.161 196.572 65.4711 196.572C63.7812 196.572 62.4113 197.902 62.4113 199.542C62.4113 201.182 63.7812 202.512 65.4711 202.512Z" stroke="#E6CAA6" stroke-miterlimit="10"/>
<path d="M53.1418 185.129C53.8003 185.129 54.3342 184.611 54.3342 183.972C54.3342 183.333 53.8003 182.814 53.1418 182.814C52.4832 182.814 51.9493 183.333 51.9493 183.972C51.9493 184.611 52.4832 185.129 53.1418 185.129Z" stroke="#E6CAA6" stroke-miterlimit="10"/>
<g opacity="0.25">
<path opacity="0.25" d="M71.3882 179.342C67.2784 199.047 57.859 217.697 44.2698 232.867C44.6073 233.158 44.9522 233.457 45.3047 233.726H68.2684C75.5505 228.143 80.4777 217.413 80.4777 205.096C80.4777 194.636 76.9229 185.333 71.3882 179.342Z" fill="#FEE6C6"/>
</g>
<path d="M69.6258 177.624H43.9473C43.1673 177.624 42.5374 177.013 42.5374 176.256V175.972C42.5374 175.215 43.1673 174.603 43.9473 174.603H69.6258C70.4057 174.603 71.0357 175.215 71.0357 175.972V176.256C71.0432 177.013 70.4057 177.624 69.6258 177.624Z" fill="#F9D8AC"/>
<path d="M71.2609 145.034C71.9808 142.661 72.8883 140.339 73.9007 138.061C74.9056 135.782 76.0606 133.562 77.298 131.393C78.5579 129.231 79.9079 127.127 81.3928 125.111C82.1427 124.106 82.9002 123.109 83.6876 122.133C84.4976 121.172 85.3 120.219 86.1625 119.302C85.8025 119.811 85.435 120.321 85.0601 120.816L83.9801 122.344C83.2602 123.364 82.5552 124.39 81.8727 125.424C80.5078 127.506 79.1879 129.602 77.9505 131.749C76.698 133.89 75.5431 136.081 74.4182 138.294C73.3007 140.514 72.2733 142.77 71.2609 145.034Z" fill="#66A986"/>
<path d="M53.2469 103.476C52.8344 101.241 52.5044 98.9994 52.1894 96.7574C51.8669 94.5153 51.597 92.266 51.327 90.024C51.0795 87.7746 50.832 85.5253 50.637 83.2687L50.352 79.8838C50.2845 78.7555 50.1945 77.6199 50.1495 76.4916C50.3595 77.6054 50.5245 78.7264 50.7195 79.8474L51.207 83.2105C51.5295 85.4525 51.7994 87.7018 52.0694 89.9512C52.3169 92.2005 52.5644 94.4498 52.7594 96.7137C52.9619 98.9557 53.1419 101.212 53.2469 103.476Z" fill="#66A986"/>
<path d="M35.6455 116.179C36.9204 118.108 38.0529 120.117 39.1178 122.162C40.1902 124.208 41.1352 126.304 42.0201 128.437C42.8826 130.57 43.6775 132.732 44.3525 134.93C44.6825 136.029 45.005 137.136 45.2974 138.242C45.5674 139.356 45.8449 140.47 46.0624 141.598L44.945 138.344C44.5775 137.26 44.195 136.182 43.805 135.105C43.0101 132.958 42.2001 130.817 41.3302 128.706C40.4752 126.588 39.5453 124.492 38.6078 122.403C37.6479 120.313 36.6504 118.253 35.6455 116.179Z" fill="#66A986"/>
<path d="M62.6063 127.047C63.7838 124.274 64.9537 121.507 66.0561 118.712C67.1586 115.917 68.246 113.121 69.2209 110.29C70.2559 107.473 71.1783 104.619 72.0783 101.766C72.5283 100.339 72.9632 98.9049 73.3907 97.4636L74.6581 93.1396C74.3956 94.6173 74.0657 96.0805 73.7432 97.5509C73.3907 99.0141 73.0157 100.47 72.6332 101.919C71.8383 104.823 70.9083 107.684 69.9259 110.53C68.891 113.354 67.8035 116.172 66.5811 118.93C65.3662 121.675 64.0612 124.397 62.6063 127.047Z" fill="#66A986"/>
<path d="M203.126 97.7764H146.331C132.577 97.7764 121.425 108.601 121.425 121.951V181.052H228.039V121.951C228.039 108.601 216.887 97.7764 203.126 97.7764Z" fill="#5C6193"/>
<path d="M215.417 168.044H134.04V181.052H215.417V168.044Z" fill="#4E5567"/>
<path d="M215.417 181.053H127.733V214.116H215.417V181.053Z" fill="#8E97FD"/>
<path d="M222.362 219.015H127.103C124.313 219.015 122.055 216.824 122.055 214.116H227.409C227.409 216.824 225.144 219.015 222.362 219.015Z" fill="#3F414E"/>
<path d="M124.583 234.323H121.425L127.103 219.014H131.52L124.583 234.323Z" fill="#3F414E"/>
<path d="M224.882 234.323H228.039L222.362 219.014H217.945L224.882 234.323Z" fill="#3F414E"/>
<path d="M112.381 107.262C109.329 105.289 106.764 102.479 105.556 99.1159C104.349 95.7528 104.619 91.822 106.666 88.8665C108.714 85.9111 112.621 84.1495 116.198 84.9429C116.348 80.255 120.788 76.841 125.085 74.6936C129.817 72.3278 134.76 70.9593 139.597 73.1067C142.289 74.3078 145.124 76.2587 146.549 78.7846C147.974 81.3033 148.821 84.084 149.646 86.8501C153.029 84.8993 157.633 85.1977 160.723 87.5635C163.813 89.9293 165.17 94.2096 164 97.8565C167.825 96.2842 172.46 95.5854 175.977 97.7328C179.675 99.9894 180.949 104.626 181.204 108.863C181.422 112.503 181.047 116.361 178.917 119.36C176.397 122.912 171.935 124.586 167.713 125.933C160.408 128.255 152.886 130.199 145.199 130.417C137.512 130.636 129.592 129.02 123.293 124.747C116.986 120.474 112.538 113.311 112.763 105.849" fill="#4E5567"/>
<path d="M108.354 112.561C104.529 112.757 100.899 115.108 99.2417 118.464C97.5843 121.82 97.9593 126.035 100.187 129.056C97.0068 129.099 93.9245 130.934 92.4396 133.664C90.9547 136.393 91.1422 139.895 92.8971 142.464C94.382 144.634 96.8044 146.046 99.3167 146.963C106.284 149.504 114.203 148.645 121.118 145.973C125.093 144.437 128.91 142.261 131.587 139.029C134.265 135.796 135.66 131.378 134.505 127.382C133.695 124.594 131.737 122.228 129.427 120.408C127.11 118.588 124.433 117.256 121.77 115.967C117.181 113.747 112.373 111.549 107.244 111.462" fill="#3F4553"/>
<path d="M130.89 161.457H108.811C101.844 161.457 96.1969 155.975 96.1969 149.213C96.1969 142.45 101.844 136.969 108.811 136.969H126.308C128.843 136.969 130.897 138.963 130.897 141.424V161.457H130.89Z" fill="#8E97FD"/>
<path d="M134.04 214.115H119.348C114.226 214.115 110.071 210.083 110.071 205.111V136.961H124.763C129.885 136.961 134.04 140.994 134.04 145.966V214.115Z" fill="#8E97FD"/>
<path d="M136.635 75.9747C138.629 75.5161 140.879 75.8655 142.649 77.0448C143.519 77.6344 144.284 78.3987 144.772 79.3086C145.064 79.7381 145.214 80.2331 145.402 80.699C145.544 81.1794 145.642 81.6817 145.724 82.1622C145.477 81.7181 145.319 81.2522 145.064 80.83C144.802 80.4151 144.592 79.9783 144.277 79.6071C143.729 78.8209 143.017 78.1658 142.222 77.6344C141.434 77.0957 140.534 76.7099 139.597 76.4406C138.652 76.1931 137.662 76.0184 136.635 75.9747Z" fill="white"/>
<path d="M170.023 99.9456C172.122 99.9092 174.297 100.666 175.887 102.129C176.292 102.486 176.615 102.923 176.937 103.345C177.192 103.818 177.492 104.262 177.635 104.772C177.845 105.259 177.912 105.784 177.995 106.293C178.047 106.81 178.025 107.327 178.01 107.829C177.777 106.832 177.545 105.856 177.095 104.983C176.682 104.095 176.097 103.301 175.37 102.646C174.657 101.976 173.817 101.431 172.917 100.987C171.995 100.564 171.035 100.193 170.023 99.9456Z" fill="white"/>
<path d="M157.386 89.2596C157.851 89.3251 158.293 89.4852 158.721 89.6891C159.148 89.8929 159.538 90.1622 159.883 90.4752C160.228 90.7955 160.513 91.1886 160.708 91.6108C160.911 92.033 160.986 92.5062 160.971 92.9575C160.821 92.528 160.693 92.1058 160.446 91.7418C160.206 91.3779 159.943 91.0358 159.613 90.7373C158.976 90.1404 158.211 89.6672 157.386 89.2596Z" fill="white"/>
<path d="M168.8 120.845C169.745 117.511 169.438 113.74 167.443 110.872C165.448 108.004 161.623 106.272 158.173 107.145C159.231 104.736 157.701 101.86 155.466 100.383C153.239 98.9049 150.479 98.4464 147.839 97.864C140.084 96.1534 132.652 93.0596 126.03 88.7866C122.678 86.6247 122.123 87.1124 120.54 83.6255C119.595 84.9722 117.743 87.1633 117.691 88.8303C114.698 86.1806 108.699 85.904 106.659 88.8594C104.611 91.8148 104.341 95.7457 105.549 99.1088C106.756 102.472 109.321 105.282 112.373 107.254L112.748 105.842C112.523 113.304 116.971 120.466 123.278 124.739C129.585 129.012 137.504 130.628 145.184 130.41C152.271 130.206 159.216 128.539 165.98 126.457C167.233 124.732 168.23 122.861 168.8 120.845Z" fill="#3F4553"/>
<path d="M127.223 145.966V205.671H115.223V155.313H111.931C108.459 155.313 105.646 152.583 105.646 149.212C105.646 145.842 108.459 143.112 111.931 143.112H124.283C125.91 143.112 127.223 144.386 127.223 145.966Z" stroke="#8C96FF" stroke-miterlimit="10"/>
<path d="M139.792 96.5609C139.289 92.7465 141.779 89.296 145.349 88.852C148.926 88.408 152.234 91.1304 152.744 94.9448C153.246 98.7592 150.756 102.21 147.186 102.654C143.609 103.098 140.302 100.368 139.792 96.5609Z" fill="#8E97FD"/>
<path d="M139.792 96.5626C140.294 100.377 143.609 103.107 147.186 102.655C148.671 102.473 149.961 101.76 150.936 100.734C146.496 97.9676 145.717 91.1031 145.574 88.8392C145.499 88.8465 145.432 88.8465 145.357 88.8538C141.779 89.2978 139.289 92.7482 139.792 96.5626Z" fill="#8E97FD"/>
<path d="M130.26 112.321L132.78 123.342L141.614 125.788C141.614 125.788 144.772 122.723 144.772 122.112C144.772 121.5 140.354 109.868 140.354 109.868L130.26 112.321Z" fill="#FDBCA0"/>
<path d="M140.347 109.875L130.252 112.321L131.115 116.084C132.922 116.841 134.962 117.402 137.287 117.678C138.554 117.831 139.859 117.598 140.969 116.972C141.539 116.652 142.072 116.259 142.582 115.844C141.472 112.838 140.347 109.875 140.347 109.875Z" fill="#DF8370"/>
<path d="M116.378 90.2788C116.378 90.2788 115.118 114.162 137.197 115.385C144.134 112.939 148.551 103.753 147.291 96.4007C146.031 89.0558 137.827 76.8046 125.843 80.4807C119.536 82.9339 116.378 90.2788 116.378 90.2788Z" fill="#FDBCA0"/>
<path d="M186.402 117.839L202.443 98.8031C203.081 98.046 203.433 97.0997 203.433 96.117V90.9486C203.433 90.5555 203.696 90.1988 204.078 90.0751C204.693 89.8786 205.323 90.3226 205.323 90.9486V94.5737L211 84.7757L218.567 84.1642L208.473 101.307L193.331 127.025L186.402 117.839Z" fill="#FDBCA0"/>
<path d="M257.055 100.688L283.551 109.263L291.703 102.596C294.755 100.099 299.232 99.8585 302.405 102.21C304.242 103.571 305.21 105.485 303.102 108.041C298.055 114.162 283.543 120.896 283.543 120.896L253.89 114.774L257.055 100.688Z" fill="#FDBCA0"/>
<path opacity="0.5" d="M253.905 114.774L268.627 117.817C269.572 112.67 268.837 107.473 268.154 104.284L257.063 100.696L253.905 114.774Z" fill="#DF8370"/>
<path d="M175.677 144.779C175.677 144.779 208.893 108.958 223.749 96.7282C226.224 94.69 229.434 93.7 232.674 93.9548C243.638 94.8137 266.519 98.8538 266.519 98.8538C266.519 98.8538 270.937 114.774 262.732 123.96C257.685 123.349 234.976 119.061 234.976 119.061L188.921 168.044L175.677 144.779Z" fill="#739BE0"/>
<path d="M263.992 131.917L285.441 155.182L303.327 158.159C306.65 158.712 308.735 162.119 307.415 165.133C306.56 167.076 304.512 169.697 299.953 168.656C289.228 166.21 279.134 163.145 279.134 163.145L253.898 143.549L263.992 131.917Z" fill="#FDBCA0"/>
<path opacity="0.5" d="M277.206 146.25L263.992 131.917L253.898 143.549L271.537 157.249C274.447 154.33 276.914 150.61 277.206 146.25Z" fill="#DF8370"/>
<path opacity="0.2" d="M223.607 103.811L177.237 147.509L188.929 168.044L234.984 119.061C234.984 119.061 257.693 123.349 262.74 123.96C263.265 123.378 263.73 122.759 264.157 122.126C255.908 115.582 246.061 108.069 238.726 102.821C234.106 99.5235 227.717 99.9384 223.607 103.811Z" fill="#739BE0"/>
<path d="M157.386 164.368C157.386 164.368 168.74 180.288 185.142 178.454C200.456 176.736 217.412 155.276 229.352 136.991C230.574 135.112 233.311 134.901 234.834 136.554C244.223 146.767 260.842 161.922 260.842 161.922C260.842 161.922 276.614 154.577 276.614 142.938C272.264 137.871 254.115 119.702 243.263 108.907C238.584 104.248 231.009 103.848 225.827 107.975L175.04 148.448L157.386 164.368Z" fill="#97B8FF"/>
<g opacity="0.5">
<path opacity="0.5" d="M185.142 178.454C200.456 176.736 217.412 155.276 229.352 136.99C230.574 135.112 233.311 134.901 234.834 136.554C244.223 146.767 260.842 161.922 260.842 161.922C260.842 161.922 264.517 160.204 268.319 157.125C259.867 148.958 250.913 141.285 241.508 134.173C238.464 131.873 234.849 129.5 231.061 130.228C227.769 130.869 225.452 133.657 223.434 136.263C219.07 141.897 214.712 147.531 210.348 153.165C205.585 159.316 200.553 165.686 193.421 169.042C187.339 171.895 180.042 172.215 173.72 169.908C168.815 168.117 164.555 164.754 161.668 160.517L157.386 164.375C157.386 164.368 168.74 180.288 185.142 178.454Z" fill="#97B8FF"/>
</g>
<path d="M218.575 161.457H240.653C247.621 161.457 253.268 155.975 253.268 149.213C253.268 142.45 247.621 136.969 240.653 136.969H223.157C220.622 136.969 218.567 138.963 218.567 141.424V161.457H218.575Z" fill="#8E97FD"/>
<path d="M215.417 214.115H230.109C235.231 214.115 239.386 210.083 239.386 205.111V136.961H224.694C219.572 136.961 215.417 140.994 215.417 145.966V214.115Z" fill="#8E97FD"/>
<path d="M221.695 145.966V205.671H233.694V155.313H236.986C240.458 155.313 243.271 152.583 243.271 149.212C243.271 145.842 240.458 143.112 236.986 143.112H224.634C223.007 143.112 221.695 144.386 221.695 145.966Z" stroke="#8C96FF" stroke-miterlimit="10"/>
<path d="M122.055 101.3L111.331 104.364C111.331 104.364 114.488 114.774 130.26 121.507L132.15 120.896C132.15 120.896 140.977 125.693 143.189 117.475C146.759 116.266 151.251 115.262 154.769 114.57C158.406 113.857 162.178 114.417 165.425 116.142L178.04 122.861C179.232 123.495 180.725 123.225 181.602 122.213L190.189 112.321L198.948 118.719L186.807 137.478C186.019 138.701 184.392 139.131 183.072 138.468L171.268 132.528L178.205 142.938C178.205 142.938 177.575 161.922 157.386 164.368C150.449 157.635 141.614 149.06 136.567 145.384C131.52 141.708 115.118 131.298 110.701 127.01C106.284 122.723 94.9295 107.414 94.2996 99.4581C94.2996 95.1705 119.536 92.1132 119.536 92.1132L122.055 101.3Z" fill="#FFFFFE"/>
<path d="M118.021 125.191C104.836 116.419 99.2493 104.961 96.8869 97.0776C95.297 97.8129 94.2996 98.6136 94.2996 99.4653C94.9295 107.429 106.284 122.73 110.701 127.018C115.118 131.305 131.52 141.715 136.567 145.391C137.467 146.046 138.494 146.861 139.597 147.793C136.905 142.246 130.98 133.817 118.021 125.191Z" fill="#F2F2F2"/>
<path d="M159.223 124.623C159.748 124.477 160.288 124.397 160.836 124.354C161.383 124.303 161.931 124.31 162.486 124.361C163.581 124.463 164.69 124.732 165.688 125.256C166.693 125.751 167.578 126.508 168.223 127.404C168.583 127.833 168.815 128.335 169.078 128.816C169.325 129.304 169.46 129.835 169.655 130.344L169.603 130.243C170.218 131.051 170.788 131.895 171.38 132.718C171.973 133.547 172.528 134.392 173.082 135.251C172.385 134.501 171.695 133.744 171.043 132.972C170.39 132.193 169.708 131.429 169.078 130.636L169.055 130.614L169.018 130.534C168.815 130.068 168.658 129.58 168.425 129.122C168.17 128.685 167.96 128.219 167.623 127.833C167.345 127.411 166.97 127.069 166.61 126.705C166.205 126.399 165.823 126.064 165.358 125.831C164.465 125.329 163.476 124.965 162.426 124.79C161.383 124.616 160.303 124.536 159.223 124.623Z" fill="#97B8FF"/>
<path d="M134.422 98.1187C134.977 98.9704 135.457 100.688 136.86 100.419C137.34 100.324 137.565 99.9677 137.932 99.6911C139.222 98.7156 139.897 100.215 138.982 101.038C138.51 101.46 137.85 101.562 137.242 101.627C136.89 101.664 136.882 102.21 137.242 102.173C138.127 102.079 139.057 101.882 139.627 101.154C140.084 100.572 140.174 99.7711 139.672 99.1888C139.207 98.6647 138.517 98.5773 137.932 98.9559C137.385 99.3053 137.077 100.135 136.185 99.7639C135.547 99.5018 135.247 98.359 134.91 97.8421C134.715 97.5509 134.227 97.8203 134.422 98.1187Z" fill="#444359"/>
<path d="M131.445 106.148C134.377 108.535 138.457 108.019 140.624 104.947C140.827 104.656 140.339 104.379 140.137 104.67C138.194 107.429 134.49 107.917 131.842 105.762C131.565 105.536 131.167 105.922 131.445 106.148Z" fill="#444359"/>
<path d="M124.643 96.5026C125.325 94.7992 127.05 93.8602 128.91 94.1805C129.262 94.2387 129.412 93.7146 129.06 93.6564C126.885 93.2851 124.898 94.3625 124.103 96.3643C123.968 96.6846 124.515 96.8229 124.643 96.5026Z" fill="#444359"/>
<path d="M126.435 101.343L124.943 100.506L126.66 100.652L126.435 101.343Z" fill="#444359"/>
<path d="M126.795 101.547C127.59 99.4652 129.78 98.5044 131.94 99.2105C132.285 99.3196 132.435 98.7955 132.09 98.6864C129.63 97.8856 127.148 99.0576 126.255 101.409C126.128 101.729 126.668 101.875 126.795 101.547Z" fill="#444359"/>
<path d="M127.77 99.3414L127.103 97.4415L128.422 98.9847L127.77 99.3414Z" fill="#444359"/>
<path d="M130.852 98.7517L131.31 97.4415L131.602 98.8027L130.852 98.7517Z" fill="#444359"/>
<path d="M142.207 94.2824L143.257 92.9503L142.889 94.5882L142.207 94.2824Z" fill="#444359"/>
<path d="M143.009 94.4718C140.632 93.5691 138.089 94.581 137.077 96.8521C136.934 97.1724 137.422 97.449 137.564 97.1287C138.487 95.0614 140.692 94.1733 142.867 94.9959C143.197 95.1269 143.339 94.5955 143.009 94.4718Z" fill="#444359"/>
<path d="M139.754 94.4353L139.462 92.448L140.467 94.2023L139.754 94.4353Z" fill="#444359"/>
<path d="M137.482 96.5972L136.635 95.4762L137.947 96.0294L137.482 96.5972Z" fill="#444359"/>
<path d="M204.348 100.696L211.81 77.984C212.005 77.3943 212.56 76.9867 213.205 76.9721L226.592 76.63C227.619 76.6009 228.369 77.5618 228.069 78.5154L220.63 102.108C220.427 102.741 219.812 103.163 219.13 103.141L205.721 102.61C204.731 102.552 204.048 101.613 204.348 100.696Z" fill="#3F4553"/>
<path d="M203.088 100.696L210.55 77.9841C210.745 77.3944 211.3 76.9868 211.945 76.9722L225.332 76.6301C226.359 76.601 227.109 77.5619 226.809 78.5155L219.37 102.108C219.167 102.741 218.552 103.163 217.87 103.142L204.461 102.61C203.463 102.552 202.788 101.613 203.088 100.696Z" fill="#4E5567"/>
<path d="M224.379 80.328L219.392 96.1315L218.68 98.4027L218.342 99.4727C218.222 99.8513 217.922 100.135 217.562 100.252C217.42 100.295 217.277 100.317 217.127 100.31L214.33 100.201L206.245 99.8804C205.436 99.844 204.888 99.0796 205.128 98.3371L208.99 86.5737L210.453 82.126L211.188 79.8985C211.218 79.8039 211.263 79.7092 211.323 79.6292C211.533 79.3016 211.9 79.0905 212.313 79.0759L212.703 79.0686L223.18 78.7993C224.012 78.7775 224.619 79.5564 224.379 80.328Z" fill="#F2EDE4"/>
<g opacity="0.35">
<path opacity="0.35" d="M219.392 96.1315L218.68 98.4026L211.323 79.6291C211.533 79.3016 211.9 79.0905 212.313 79.0759L212.703 79.0686L219.392 96.1315Z" fill="white"/>
</g>
<g opacity="0.35">
<path opacity="0.35" d="M217.562 100.252C217.42 100.295 217.277 100.317 217.127 100.31L214.33 100.201L208.99 86.5737L210.453 82.126L217.562 100.252Z" fill="white"/>
</g>
<path d="M119.303 104.823C121.905 99.0869 122.595 92.55 121.253 86.4135C122.19 89.3325 125.468 90.9849 128.595 91.3707C131.722 91.7565 134.895 91.2179 138.044 91.3707C141.194 91.5236 144.599 92.601 146.189 95.2434C146.481 95.7238 146.804 96.3207 147.374 96.3644C148.086 96.4226 148.506 95.6073 148.656 94.9304C149.819 89.8566 147.674 84.2879 143.587 80.9248C139.499 77.5618 133.71 76.3898 128.483 77.5327C123.255 78.6755 118.651 82.0095 115.696 86.3407C113.843 89.0559 112.591 92.1933 112.403 95.4472C112.216 98.6938 113.146 102.05 115.238 104.59C115.756 105.216 116.393 105.82 117.203 105.995C118.013 106.17 119.003 105.726 119.131 104.925" fill="#3F4553"/>
<path d="M119.232 112.14C123.112 111.372 125.567 107.467 124.716 103.417C123.866 99.3678 120.031 96.7077 116.151 97.4756C112.272 98.2435 109.816 102.149 110.667 106.198C111.518 110.247 115.352 112.908 119.232 112.14Z" fill="#8E97FD"/>
<path d="M114.856 101.802C110.596 89.1941 115.928 84.4407 116.168 84.135L116.326 84.1204H116.363L116.521 84.1131C116.341 84.3533 114.196 90.0677 117.698 100.433L114.856 101.802Z" fill="#8E97FD"/>
<path d="M123.848 108.848C112.823 111.687 111.009 105.958 111.031 101.824C110.506 103.156 110.356 104.67 110.679 106.206C111.534 110.26 115.366 112.917 119.243 112.153C121.245 111.745 122.865 110.508 123.848 108.848Z" fill="#8E97FD"/>
<path d="M93.6753 17.16H97.6753V18.296H93.4353V19.704H97.6753V20.84H91.5313V22.328H105.179V20.84H99.3713V19.704H103.867V18.296H99.3713V17.16H104.459V15.688H99.3713V14.664H97.6753V15.688H94.3153C94.4113 15.4 94.5233 15.096 94.6353 14.792L93.1313 14.456C92.5233 16.184 91.7873 17.528 90.9393 18.472L92.0433 19.768C92.6353 19.048 93.1793 18.184 93.6753 17.16ZM92.8913 8.296V14.248H103.547V8.296H92.8913ZM101.883 12.856H94.5393V11.928H101.883V12.856ZM94.5393 10.616V9.704H101.883V10.616H94.5393ZM107.819 7.944V9.544H107.003V11.096H107.819V17.352H106.827V18.904H114.523V17.352H113.659V11.096H114.443V9.544H113.659V7.976H112.059V9.544H109.419V7.944H107.819ZM109.419 17.352V16.248H112.059V17.352H109.419ZM112.059 11.096V12.216H109.419V11.096H112.059ZM109.419 14.792V13.672H112.059V14.792H109.419ZM112.283 19L110.987 19.816C111.659 20.776 112.203 21.64 112.587 22.408L113.547 21.736L114.715 22.792C115.755 21.4 116.395 19.656 116.635 17.56H119.195V20.312C119.195 20.744 119.035 20.968 118.715 20.968C118.235 20.968 117.707 20.936 117.131 20.888L117.579 22.52H119.243C120.331 22.52 120.875 21.976 120.875 20.92V8.344H115.067V16.056C115.051 18.04 114.619 19.72 113.771 21.112C113.403 20.504 112.907 19.8 112.283 19ZM108.667 19.048C108.107 20.072 107.435 20.952 106.667 21.688L108.011 22.648C108.763 21.816 109.419 20.84 109.995 19.688L108.667 19.048ZM116.731 13.736H119.195V16.04H116.731V13.736ZM119.195 12.216H116.731V9.912H119.195V12.216ZM133.227 14.856L131.787 15.768C133.435 18.264 134.747 20.536 135.739 22.568L137.227 21.528C136.299 19.64 134.955 17.416 133.227 14.856ZM127.083 14.952C126.203 17.576 124.827 19.672 122.971 21.24L124.395 22.472C126.187 20.872 127.611 18.584 128.699 15.592L127.083 14.952ZM123.051 11.976V13.592H137.387V11.976H123.051ZM128.971 7.96L127.819 9.064C129.147 10.008 130.171 10.888 130.875 11.72L132.091 10.488C131.243 9.656 130.203 8.808 128.971 7.96ZM141.483 18.584C141.083 18.584 140.763 18.696 140.523 18.936C140.267 19.16 140.139 19.464 140.139 19.848C140.139 20.2 140.251 20.504 140.491 20.744C140.731 20.984 141.019 21.112 141.371 21.112C141.547 21.112 141.675 21.08 141.771 21.048C141.771 21.432 141.643 21.8 141.355 22.184C141.051 22.536 140.683 22.792 140.251 22.952V24.008C141.083 23.768 141.755 23.336 142.251 22.712C142.731 22.072 142.987 21.336 142.987 20.488C142.987 19.928 142.843 19.464 142.571 19.112C142.283 18.76 141.915 18.584 141.483 18.584ZM155.019 9.576V11.272H160.859L156.763 21H158.747L162.747 11.08V9.576H155.019ZM168.807 13.784H175.127V16.152H168.807V13.784ZM175.127 12.232H168.807V9.992H175.127V12.232ZM168.711 17.704H175.127V20.328C175.127 20.744 174.967 20.968 174.647 20.968C174.055 20.968 173.399 20.936 172.695 20.888L173.143 22.52H175.191C176.279 22.52 176.823 21.992 176.823 20.936V8.392H167.127V16.248C167.095 18.424 166.599 20.216 165.607 21.608L166.887 22.776C167.879 21.416 168.487 19.72 168.711 17.704ZM183.415 9.576C183.031 9.976 182.551 10.344 181.975 10.696C181.399 11.016 180.855 11.24 180.343 11.368V13.224C181.399 12.92 182.263 12.456 182.951 11.832V21H184.823V9.576H183.415ZM199.786 8.36H189.37V22.616H191.05V21.496H198.106V22.6H199.786V8.36ZM191.05 19.864V15.56H198.106V19.864H191.05ZM191.05 13.928V9.992H198.106V13.928H191.05ZM205.69 18.584C205.29 18.584 204.97 18.696 204.73 18.936C204.474 19.16 204.346 19.464 204.346 19.848C204.346 20.2 204.458 20.504 204.698 20.744C204.938 20.984 205.226 21.112 205.578 21.112C205.754 21.112 205.882 21.08 205.978 21.048C205.978 21.432 205.85 21.8 205.562 22.184C205.258 22.536 204.89 22.792 204.458 22.952V24.008C205.29 23.768 205.962 23.336 206.458 22.712C206.938 22.072 207.194 21.336 207.194 20.488C207.194 19.928 207.05 19.464 206.778 19.112C206.49 18.76 206.122 18.584 205.69 18.584ZM219.93 13.336V14.952H225.21C224.97 15.816 224.682 16.552 224.33 17.144C223.354 18.776 221.706 20.2 219.37 21.4L220.442 22.776C223.002 21.368 224.826 19.72 225.898 17.816C226.218 17.24 226.49 16.552 226.746 15.752C227.93 18.76 230.042 21.096 233.098 22.776L234.154 21.4C231.178 19.88 229.13 17.736 228.01 14.952H233.61V13.336H227.274C227.418 12.408 227.53 11.352 227.626 10.184H233.13V8.584H220.362V10.184H225.93C225.85 11.336 225.738 12.376 225.578 13.336H219.93ZM239.146 10.76H248.954V9.16H239.962C240.122 8.824 240.266 8.472 240.426 8.088L238.73 7.704C237.802 9.928 236.73 11.656 235.514 12.872L236.586 14.168C237.514 13.224 238.378 12.088 239.146 10.76ZM248.458 22.664C248.874 22.664 249.258 22.424 249.594 21.944C249.914 21.48 250.218 20.52 250.474 19.08L249.098 18.408C248.986 18.984 248.874 19.512 248.778 19.96C248.618 20.504 248.458 20.792 248.298 20.792C247.978 20.792 247.754 20.536 247.626 20.056C247.466 19.544 247.386 18.392 247.386 16.6V14.184H236.97V15.768H245.866V16.6C245.866 19.048 246.074 20.664 246.506 21.464C246.922 22.248 247.578 22.648 248.458 22.664ZM238.746 11.72V13.256H248.234V11.72H238.746ZM251.882 8.376V9.976H258.25V11.448H252.57V22.712H254.186V13.032H258.25V22.424H259.882V13.032H263.882V20.44C263.882 20.872 263.69 21.096 263.306 21.096L261.594 21.016L262.026 22.6H263.834C264.938 22.6 265.498 21.992 265.498 20.808V11.448H259.882V9.976H266.25V8.376H251.882ZM255.386 13.976L254.57 15.192C255.45 15.544 256.298 16.056 257.13 16.696L257.978 15.384C257.194 14.824 256.33 14.36 255.386 13.976ZM255.274 17.16L254.442 18.376C255.322 18.76 256.17 19.304 257.002 19.992L257.85 18.68C257.082 18.072 256.218 17.576 255.274 17.16ZM261.018 13.976L260.186 15.192C261.066 15.576 261.93 16.12 262.762 16.824L263.61 15.512C262.842 14.904 261.978 14.392 261.018 13.976ZM261.018 17.32L260.186 18.552C261.066 18.952 261.93 19.512 262.762 20.216L263.61 18.92C262.826 18.296 261.962 17.768 261.018 17.32Z" fill="#4FA6FF"/>
<path d="M112.094 38.416H118.046V36.064C116.238 36.224 114.486 36.304 112.79 36.304L112.022 33.952C116.918 33.952 121.094 33.392 124.55 32.272L125.774 34.36C124.286 34.936 122.518 35.4 120.47 35.752V38.416H126.494V40.768H120.47V42.928H125.03V50.104H113.486V42.928H118.046V40.768H112.094V38.416ZM122.63 47.92V45.136H115.91V47.92H122.63ZM107.342 32.488C108.926 33.736 110.27 34.984 111.374 36.232L109.574 38.008C108.662 36.808 107.342 35.512 105.614 34.12L107.342 32.488ZM120.998 54.112C120.182 54.112 118.75 54.096 116.702 54.064C115.182 54.048 113.902 53.912 112.862 53.656C111.902 53.368 111.062 52.816 110.342 52C110.006 51.6 109.71 51.4 109.454 51.4C108.974 51.4 108.142 52.472 106.958 54.616L105.11 52.912C106.326 50.976 107.398 49.752 108.326 49.24V42.664H105.158V40.36H110.654V49.48L110.918 49.744C111.494 50.384 112.054 50.856 112.598 51.16C113.27 51.512 114.326 51.712 115.766 51.76C117.622 51.792 119.246 51.808 120.638 51.808L124.286 51.784C125.518 51.736 126.454 51.688 127.094 51.64L126.494 54.112H120.998ZM141.894 32.224C144.918 35.616 148.382 38.264 152.286 40.168L150.918 42.592C149.654 41.92 148.462 41.184 147.342 40.384V42.04H134.622V40.36C133.406 41.192 132.182 41.952 130.95 42.64L129.606 40.192C133.782 38.064 137.27 35.408 140.07 32.224H141.894ZM146.286 39.616C144.302 38.08 142.534 36.376 140.982 34.504C139.478 36.376 137.702 38.08 135.654 39.616H146.286ZM148.902 44.392V54.472H146.478V53.248H135.486V54.472H133.062V44.392H148.902ZM135.486 50.872H146.478V46.744H135.486V50.872ZM162.502 43.192H167.662V39.064H170.206V43.192H175.702V45.64H170.206V51.256H176.734V53.704H161.638V51.256H167.662V45.64H162.502V43.192ZM158.302 45.592C157.726 46.136 157.054 46.744 156.286 47.416L154.678 45.328C157.366 43.088 159.518 40.552 161.134 37.72H155.542V35.272H162.334C162.766 34.28 163.158 33.2 163.51 32.032L166.102 32.344C165.862 33.192 165.534 34.168 165.118 35.272H176.734V37.72H164.014C163.102 39.544 162.022 41.248 160.774 42.832V54.568H158.302V45.592ZM194.606 45.4C194.414 45.464 194.126 45.544 193.742 45.64C194.062 46.712 194.238 47.88 194.27 49.144C194.27 51.08 193.998 52.416 193.454 53.152C192.798 54.032 191.366 54.472 189.158 54.472H188.414L187.574 52.264H188.822C190.102 52.264 190.918 52.088 191.27 51.736C191.67 51.256 191.87 50.392 191.87 49.144L191.846 48.64C189.254 50.56 185.91 52.144 181.814 53.392L180.566 51.256C185.254 49.928 188.878 48.264 191.438 46.264C191.278 45.768 191.126 45.352 190.982 45.016C188.71 46.68 185.758 48.032 182.126 49.072L180.878 46.936C184.75 45.96 187.774 44.72 189.95 43.216C189.902 43.136 189.702 42.88 189.35 42.448C189.286 42.448 189.254 42.464 189.254 42.496C187.702 43.248 185.486 44.056 182.606 44.92L181.334 42.832C183.478 42.4 185.542 41.784 187.526 40.984L188.87 40.408H183.878V38.104H198.086V40.408H192.83C192.206 40.84 191.686 41.176 191.27 41.416C191.942 42.136 192.494 42.904 192.926 43.72C195.022 43.112 196.998 42.216 198.854 41.032L200.534 42.712C199.286 43.496 197.974 44.16 196.598 44.704C197.702 47.44 199.462 49.64 201.878 51.304L200.102 53.392C197.574 51.264 195.742 48.6 194.606 45.4ZM191.63 32.128C191.87 32.72 192.11 33.392 192.35 34.144H201.326V38.704H198.83V36.448H183.11V38.704H180.638V34.144H189.806C189.534 33.504 189.286 32.976 189.062 32.56L191.63 32.128ZM205.11 35.632H209.406C209.006 34.672 208.518 33.688 207.942 32.68L210.51 32.248C211.022 33.336 211.494 34.464 211.926 35.632H215.358V38.056H209.766L209.742 40.888H214.326C214.326 46.824 214.222 50.56 214.014 52.096C213.774 53.504 212.71 54.208 210.822 54.208C210.502 54.208 209.934 54.16 209.118 54.064L208.542 51.928C209.502 51.992 210.134 52.024 210.438 52.024C211.174 52.024 211.614 51.656 211.758 50.92C211.854 50.2 211.926 47.624 211.974 43.192H209.646C209.294 48.184 208.286 51.952 206.622 54.496L204.654 52.768C206.462 50.08 207.39 45.728 207.438 39.712V38.056H205.11V35.632ZM219.006 38.008C218.894 38.344 218.694 38.872 218.406 39.592C219.078 41.896 219.918 43.944 220.926 45.736C221.966 43.56 222.558 40.984 222.702 38.008H219.006ZM219.582 47.992C218.574 46.28 217.734 44.36 217.062 42.232C216.774 42.664 216.486 43.072 216.198 43.456L214.638 41.536C216.206 39.2 217.27 36.048 217.83 32.08L220.302 32.512C220.078 33.824 219.87 34.864 219.678 35.632H226.494V38.008H225.054C224.894 41.896 224.014 45.24 222.414 48.04C223.806 49.896 225.43 51.344 227.286 52.384L225.846 54.52C224.006 53.448 222.39 51.992 220.998 50.152C219.654 51.848 217.95 53.304 215.886 54.52L214.494 52.312C216.574 51.224 218.27 49.784 219.582 47.992ZM244.15 33.592C243.11 38.088 241.758 41.512 240.094 43.864L238.174 42.208C239.838 39.808 241.062 36.624 241.846 32.656L244.15 33.592ZM248.254 45.592C249.502 48.152 250.574 50.824 251.47 53.608L249.118 54.664C248.766 53.544 248.534 52.824 248.422 52.504C245.67 53.128 242.622 53.608 239.278 53.944L238.822 51.52C239.974 51.168 241.654 47.504 243.862 40.528L246.334 41.392C245.022 45.152 243.638 48.448 242.182 51.28C244.118 51.056 245.942 50.736 247.654 50.32C247.174 49.024 246.614 47.704 245.974 46.36L248.254 45.592ZM235.918 54.424H233.446V43.96C232.726 45.832 231.862 47.56 230.854 49.144L229.774 46.36C231.454 44.248 232.678 41.84 233.446 39.136H230.23V36.712H233.446V32.296H235.918V36.712H238.51V39.136H235.918V40.408C237.038 41.64 238.15 42.976 239.254 44.416L237.766 46.648C236.758 44.824 236.142 43.728 235.918 43.36V54.424ZM248.134 32.416C248.902 36.32 250.27 39.504 252.238 41.968L250.534 43.96C248.406 41.272 246.918 37.808 246.07 33.568L248.134 32.416Z" fill="#A1A4B2"/>
</svg>
