<svg width="69" height="36" viewBox="0 0 69 36" fill="none" xmlns="http://www.w3.org/2000/svg">
<path d="M12.128 7.152V30H8.384V11.664C6.99733 12.9227 5.25867 13.8507 3.168 14.448V10.736C4.17067 10.48 5.26933 10.032 6.464 9.392C7.59467 8.70933 8.544 7.96266 9.312 7.152H12.128ZM29.7875 6.704C32.2408 6.704 34.1928 7.35467 35.6435 8.656C36.9448 9.82933 37.5955 11.2693 37.5955 12.976C37.5955 14.128 37.3395 15.1093 36.8275 15.92C36.2302 16.7947 35.3875 17.4453 34.2995 17.872V17.936C35.3662 18.2347 36.2835 18.8747 37.0515 19.856C37.9262 20.9653 38.3635 22.2133 38.3635 23.6C38.3635 25.6053 37.6168 27.2587 36.1235 28.56C34.6088 29.8187 32.4968 30.448 29.7875 30.448C27.0568 30.448 24.9448 29.8187 23.4515 28.56C21.9582 27.28 21.2115 25.6267 21.2115 23.6C21.2115 22.1707 21.6488 20.9227 22.5235 19.856C23.2915 18.8533 24.2088 18.2133 25.2755 17.936V17.872C24.1662 17.4453 23.3235 16.7947 22.7475 15.92C22.2355 15.1093 21.9795 14.128 21.9795 12.976C21.9795 11.248 22.6302 9.808 23.9315 8.656C25.3608 7.35467 27.3128 6.704 29.7875 6.704ZM29.7875 9.68C28.4222 9.68 27.3448 10.0427 26.5555 10.768C25.8515 11.408 25.4995 12.1867 25.4995 13.104C25.4995 14.1493 25.7875 14.9813 26.3635 15.6C27.0675 16.3467 28.2088 16.72 29.7875 16.72C31.3662 16.72 32.5075 16.3467 33.2115 15.6C33.7875 14.9813 34.0755 14.1493 34.0755 13.104C34.0755 12.1867 33.7235 11.408 33.0195 10.768C32.2088 10.0427 31.1315 9.68 29.7875 9.68ZM29.7875 19.504C28.1875 19.504 26.9715 19.888 26.1395 20.656C25.3288 21.3813 24.9235 22.3627 24.9235 23.6C24.9235 24.752 25.3502 25.68 26.2035 26.384C27.0355 27.088 28.2302 27.44 29.7875 27.44C31.3022 27.44 32.5182 27.0773 33.4355 26.352C34.2462 25.648 34.6515 24.7307 34.6515 23.6C34.6515 22.384 34.2568 21.4133 33.4675 20.688C32.6142 19.8987 31.3875 19.504 29.7875 19.504Z" fill="white"/>
<path fill-rule="evenodd" clip-rule="evenodd" d="M57.3113 10.168C57.1124 9.94405 56.7625 9.94405 56.5636 10.168L50.1291 17.4122C49.8427 17.7347 50.0716 18.2442 50.5029 18.2442H52.9376C53.2137 18.2442 53.4376 18.4681 53.4376 18.7442V24.9943C53.4376 25.2704 53.6614 25.4943 53.9376 25.4943H59.9376C60.2137 25.4943 60.4376 25.2704 60.4376 24.9943V18.7442C60.4376 18.4681 60.6614 18.2442 60.9376 18.2442H63.3719C63.8033 18.2442 64.0322 17.7347 63.7458 17.4122L57.3113 10.168L57.6851 9.83594L57.3113 10.168ZM55.816 9.5039C56.4127 8.83207 57.4622 8.83208 58.0589 9.5039L64.4934 16.7481C65.3528 17.7155 64.666 19.2442 63.3719 19.2442H61.4376V24.9943C61.4376 25.8227 60.766 26.4943 59.9376 26.4943H53.9376C53.1091 26.4943 52.4376 25.8227 52.4376 24.9943V19.2442H50.5029C49.2089 19.2442 48.5221 17.7155 49.3815 16.7481L55.816 9.5039Z" fill="white"/>
</svg>
