<svg width="57" height="57" viewBox="0 0 57 57" fill="none" xmlns="http://www.w3.org/2000/svg">
<rect width="57" height="57" rx="28.5" fill="white"/>
<path d="M35.3333 25.0145C35.3333 23.1541 34.5607 21.37 33.1855 20.0545C31.8102 18.739 29.9449 18 28 18C26.0551 18 24.1898 18.739 22.8146 20.0545C21.4393 21.37 20.6667 23.1541 20.6667 25.0145C20.6667 30.9484 18.213 33.809 16.8641 34.9333C16.6615 35.1021 16.7934 35.5362 17.0571 35.5362H23.5221C23.6391 35.5362 23.7407 35.6154 23.7752 35.7271C23.9991 36.4529 24.9987 39 28 39C31.0013 39 32.0009 36.4529 32.2248 35.7271C32.2593 35.6154 32.3609 35.5362 32.4779 35.5362H38.9429C39.2066 35.5362 39.3385 35.1021 39.1359 34.9333C37.787 33.809 35.3333 30.9484 35.3333 25.0145Z" stroke="#333333" stroke-width="2"/>
</svg>
